<svg width="61" height="61" viewBox="0 0 61 61" fill="none" xmlns="http://www.w3.org/2000/svg">
<path d="M47.4435 14.1969C44.0973 12.6867 40.509 11.5742 36.7573 10.9369C36.689 10.9246 36.6207 10.9554 36.5855 11.0168C36.124 11.8241 35.6129 12.8773 35.2549 13.7051C31.2196 13.1109 27.2051 13.1109 23.2526 13.7051C22.8945 12.8589 22.3648 11.8241 21.9013 11.0168C21.8661 10.9574 21.7978 10.9267 21.7295 10.9369C17.9798 11.5721 14.3915 12.6847 11.0433 14.1969C11.0143 14.2091 10.9895 14.2297 10.973 14.2563C4.16679 24.2573 2.3023 34.0125 3.21696 43.6467C3.2211 43.6939 3.248 43.739 3.28525 43.7676C7.77577 47.0111 12.1256 48.9802 16.3947 50.2854C16.463 50.3059 16.5354 50.2813 16.5789 50.2259C17.5887 48.8696 18.4889 47.4394 19.2607 45.9354C19.3063 45.8473 19.2628 45.7428 19.1697 45.708C17.7419 45.1753 16.3823 44.5257 15.0744 43.7881C14.971 43.7287 14.9627 43.5832 15.0578 43.5135C15.3331 43.3107 15.6084 43.0996 15.8712 42.8865C15.9187 42.8476 15.985 42.8394 16.0409 42.864C24.6328 46.7222 33.9346 46.7222 42.4252 42.864C42.4811 42.8374 42.5474 42.8456 42.597 42.8845C42.8599 43.0976 43.1351 43.3107 43.4124 43.5135C43.5075 43.5832 43.5013 43.7287 43.3979 43.7881C42.09 44.5401 40.7304 45.1753 39.3005 45.7059C39.2074 45.7408 39.166 45.8473 39.2115 45.9354C39.9999 47.4373 40.9001 48.8675 41.8913 50.2239C41.9327 50.2813 42.0072 50.3059 42.0755 50.2854C46.3653 48.9802 50.7151 47.0111 55.2056 43.7676C55.245 43.739 55.2698 43.6959 55.274 43.6488C56.3686 32.5105 53.4405 22.8353 47.5117 14.2583C47.4972 14.2297 47.4725 14.2091 47.4435 14.1969ZM20.5438 37.7805C17.957 37.7805 15.8256 35.4447 15.8256 32.5761C15.8256 29.7075 17.9157 27.3718 20.5438 27.3718C23.1925 27.3718 25.3033 29.7281 25.2619 32.5761C25.2619 35.4447 23.1718 37.7805 20.5438 37.7805ZM37.9885 37.7805C35.4018 37.7805 33.2704 35.4447 33.2704 32.5761C33.2704 29.7075 35.3604 27.3718 37.9885 27.3718C40.6373 27.3718 42.7481 29.7281 42.7067 32.5761C42.7067 35.4447 40.6373 37.7805 37.9885 37.7805Z" fill="black"/>
</svg>
