<svg width="64" height="64" viewBox="0 0 64 64" fill="none" xmlns="http://www.w3.org/2000/svg">
<path d="M28.4454 16.4C28.0637 16.0116 27.5889 15.7274 27.0662 15.5745C26.5435 15.4216 25.9903 15.4051 25.4595 15.5266C24.9238 15.645 24.4268 15.897 24.0148 16.2593C23.6028 16.6216 23.2892 17.0823 23.1032 17.5984L12.1548 47.6812C11.984 48.1709 11.9322 48.6941 12.0035 49.2077C12.0747 49.7213 12.2671 50.2105 12.5648 50.6352C12.8624 51.0598 13.2567 51.4075 13.7152 51.6497C14.1737 51.8919 14.6832 52.0216 15.2017 52.0281C15.5815 52.0287 15.9589 51.9669 16.3188 51.8453L46.4017 40.8969C46.9178 40.7109 47.3785 40.3973 47.7408 39.9853C48.103 39.5733 48.3551 39.0763 48.4735 38.5406C48.595 38.0098 48.5785 37.4566 48.4256 36.9339C48.2727 36.4112 47.9885 35.9364 47.6001 35.5547L28.4454 16.4ZM18.9595 38.4594L22.8595 27.7344L36.2657 41.1406L25.5407 45.0406L18.9595 38.4594ZM38.5001 20.625C38.53 19.526 38.7931 18.4459 39.272 17.4563C40.3485 15.3031 42.3798 14.125 45.0001 14.125C46.361 14.125 47.2345 13.6578 47.7829 12.6625C48.0625 12.0989 48.2216 11.4832 48.2501 10.8547C48.2501 10.6422 48.2922 10.4319 48.3742 10.2359C48.4561 10.0398 48.5761 9.86204 48.7273 9.71276C48.8784 9.56348 49.0577 9.44571 49.2548 9.36627C49.4518 9.28683 49.6627 9.24731 49.8751 9.25C50.3061 9.25 50.7194 9.4212 51.0241 9.72595C51.3289 10.0307 51.5001 10.444 51.5001 10.875C51.5001 13.4953 49.7735 17.375 45.0001 17.375C43.6392 17.375 42.7657 17.8422 42.2173 18.8375C41.9377 19.4011 41.7786 20.0168 41.7501 20.6453C41.7501 20.8578 41.7079 21.0681 41.626 21.2641C41.5441 21.4602 41.4241 21.638 41.2729 21.7872C41.1218 21.9365 40.9425 22.0543 40.7454 22.1337C40.5484 22.2132 40.3375 22.2527 40.1251 22.25C39.6941 22.25 39.2808 22.0788 38.976 21.774C38.6713 21.4693 38.5001 21.056 38.5001 20.625V20.625ZM33.6251 14.125V9.25C33.6251 8.81902 33.7963 8.4057 34.101 8.10095C34.4058 7.7962 34.8191 7.625 35.2501 7.625C35.6811 7.625 36.0944 7.7962 36.3991 8.10095C36.7039 8.4057 36.8751 8.81902 36.8751 9.25V14.125C36.8751 14.556 36.7039 14.9693 36.3991 15.274C36.0944 15.5788 35.6811 15.75 35.2501 15.75C34.8191 15.75 34.4058 15.5788 34.101 15.274C33.7963 14.9693 33.6251 14.556 33.6251 14.125ZM54.2829 30.8422C54.588 31.1503 54.7592 31.5664 54.7592 32C54.7592 32.4336 54.588 32.8497 54.2829 33.1578C53.9723 33.4581 53.5571 33.626 53.1251 33.626C52.693 33.626 52.2779 33.4581 51.9673 33.1578L48.7173 29.9078C48.4582 29.5921 48.3257 29.1913 48.3458 28.7833C48.3658 28.3753 48.5369 27.9894 48.8257 27.7006C49.1145 27.4118 49.5004 27.2407 49.9084 27.2207C50.3163 27.2006 50.7172 27.3331 51.0329 27.5922L54.2829 30.8422ZM55.2579 22.1687L50.3829 23.7937C50.2197 23.8502 50.0478 23.8777 49.8751 23.875C49.4886 23.8751 49.1148 23.7374 48.8206 23.4868C48.5265 23.2361 48.3313 22.8887 48.2702 22.5071C48.209 22.1255 48.2859 21.7346 48.4869 21.4046C48.688 21.0745 49.0001 20.8269 49.3673 20.7063L54.2423 19.0813C54.445 19.0146 54.6589 18.9885 54.8717 19.0044C55.0845 19.0204 55.2921 19.0781 55.4826 19.1743C55.6731 19.2705 55.8428 19.4033 55.982 19.5651C56.1212 19.7269 56.2272 19.9145 56.2938 20.1172C56.3605 20.3199 56.3866 20.5338 56.3707 20.7466C56.3547 20.9594 56.297 21.167 56.2008 21.3575C56.1046 21.548 55.9718 21.7177 55.81 21.8569C55.6482 21.9961 55.4606 22.1021 55.2579 22.1687Z" fill="black"/>
</svg>
