<svg width="60" height="61" viewBox="0 0 60 61" fill="none" xmlns="http://www.w3.org/2000/svg">
<g clip-path="url(#clip0_8_868)">
<path d="M17 14.6349C14.7675 14.6349 12.5569 15.0746 10.4944 15.9289C8.43185 16.7833 6.55778 18.0355 4.97919 19.6141C3.40059 21.1927 2.14838 23.0667 1.29405 25.1293C0.439718 27.1918 0 29.4024 0 31.6349C0 33.8674 0.439718 36.078 1.29405 38.1405C2.14838 40.203 3.40059 42.0771 4.97919 43.6557C6.55778 45.2343 8.43185 46.4865 10.4944 47.3408C12.5569 48.1952 14.7675 48.6349 17 48.6349C19.2325 48.6349 21.4431 48.1952 23.5056 47.3408C25.5682 46.4865 27.4422 45.2343 29.0208 43.6557C30.5994 42.0771 31.8516 40.203 32.706 38.1405C33.5603 36.078 34 33.8674 34 31.6349C34 29.4024 33.5603 27.1918 32.706 25.1293C31.8516 23.0667 30.5994 21.1927 29.0208 19.6141C27.4422 18.0355 25.5682 16.7833 23.5056 15.9289C21.4431 15.0746 19.2325 14.6349 17 14.6349ZM44 16.6349C42.9494 16.6349 41.9091 17.0229 40.9385 17.7767C39.9679 18.5305 39.086 19.6354 38.3431 21.0283C37.6003 22.4212 37.011 24.0748 36.609 25.8946C36.2069 27.7145 36 29.6651 36 31.6349C36 33.6047 36.2069 35.5553 36.609 37.3751C37.011 39.195 37.6003 40.8486 38.3431 42.2415C39.086 43.6344 39.9679 44.7393 40.9385 45.4931C41.9091 46.2469 42.9494 46.6349 44 46.6349C45.0506 46.6349 46.0909 46.2469 47.0615 45.4931C48.0321 44.7393 48.914 43.6344 49.6569 42.2415C50.3997 40.8486 50.989 39.195 51.391 37.3751C51.7931 35.5553 52 33.6047 52 31.6349C52 29.6651 51.7931 27.7145 51.391 25.8946C50.989 24.0748 50.3997 22.4212 49.6569 21.0283C48.914 19.6354 48.0321 18.5305 47.0615 17.7767C46.0909 17.0229 45.0506 16.6349 44 16.6349ZM57 18.6349C56.2043 18.6349 55.4413 20.0045 54.8787 22.4425C54.3161 24.8805 54 28.1871 54 31.6349C54 35.0827 54.3161 38.3893 54.8787 40.8273C55.4413 43.2653 56.2043 44.6349 57 44.6349C57.7957 44.6349 58.5587 43.2653 59.1213 40.8273C59.6839 38.3893 60 35.0827 60 31.6349C60 28.1871 59.6839 24.8805 59.1213 22.4425C58.5587 20.0045 57.7957 18.6349 57 18.6349Z" fill="black"/>
</g>
<defs>
<clipPath id="clip0_8_868">
<rect width="60" height="60" fill="white" transform="translate(0 0.634888)"/>
</clipPath>
</defs>
</svg>
