<svg width="60" height="61" viewBox="0 0 60 61" fill="none" xmlns="http://www.w3.org/2000/svg">
<path d="M55 8.1587C52.8236 9.75859 50.4139 10.9822 47.8636 11.7825C46.4949 10.1424 44.6758 8.97985 42.6523 8.45223C40.6289 7.9246 38.4989 8.05732 36.5502 8.83244C34.6015 9.60756 32.9283 10.9877 31.7568 12.7861C30.5853 14.5846 29.972 16.7146 30 18.8881V21.2566C26.006 21.3646 22.0483 20.4414 18.4796 18.5694C14.9108 16.6974 11.8416 13.9347 9.54545 10.5272C9.54545 10.5272 0.454546 31.8439 20.9091 41.318C16.2285 44.6291 10.6526 46.2894 5 46.055C25.4545 57.8977 50.4545 46.055 50.4545 18.8171C50.4524 18.1573 50.3916 17.4992 50.2727 16.8512C52.5923 14.4672 54.2291 11.4574 55 8.1587Z" fill="black"/>
</svg>
