<svg width="64" height="64" viewBox="0 0 64 64" fill="none" xmlns="http://www.w3.org/2000/svg">
<path fill-rule="evenodd" clip-rule="evenodd" d="M58.2363 13.7585C59.1447 14.6949 59.7898 15.8545 60.1066 17.1201C60.9525 21.8099 61.3632 26.568 61.3332 31.3334C61.3501 36.0276 60.9395 40.7137 60.1066 45.3334C59.7898 46.599 59.1447 47.7586 58.2363 48.695C57.328 49.6314 56.1886 50.3116 54.9332 50.6667C50.3466 51.8934 31.9999 51.8934 31.9999 51.8934C31.9999 51.8934 13.6532 51.8934 9.06656 50.6667C7.83675 50.3302 6.71451 49.6823 5.80828 48.7854C4.90205 47.8885 4.24245 46.773 3.89323 45.5467C3.04728 40.8569 2.63664 36.0989 2.66656 31.3334C2.64319 26.6036 3.0538 21.8816 3.89323 17.2267C4.21 15.9612 4.85514 14.8016 5.76349 13.8652C6.67184 12.9287 7.81122 12.2486 9.06656 11.8934C13.6532 10.6667 31.9999 10.6667 31.9999 10.6667C31.9999 10.6667 50.3466 10.6667 54.9332 11.7867C56.1886 12.1419 57.328 12.8221 58.2363 13.7585ZM41.3333 31.3333L26 40.0533V22.6133L41.3333 31.3333Z" fill="black"/>
</svg>
