<svg height="22" viewBox="0 0 24 22" width="24" xmlns="http://www.w3.org/2000/svg"><path d="m1.51135256 13.4289876c-.06188967.3308594-.10510256.6658366-.10510256 1.0085124 0 4.1699382 4.82482913 7.5625 10.640625 7.5625 5.8157959 0 10.546875-3.3925618 10.546875-7.5625 0-.3426758-.0432129-.677653-.1051026-1.0085124.9118653-.4647786 1.5113526-1.3826985 1.5113526-2.4289876 0-1.51661785-1.2614136-2.75-2.8125-2.75-.7088013 0-1.3747559.25978191-1.885437.71274413-1.767334-1.20473632-4.1121826-1.97101236-6.7047729-2.06769205l1.3454589-5.10307618 3.0342407 1.03805341c.0444947 1.47902017 1.281189 2.66997069 2.8042603 2.66997069 1.5510864 0 2.8125-1.23338215 2.8125-2.75s-1.2614136-2.75-2.8125-2.75c-1.0814209 0-2.0112305.60621743-2.4816284 1.48331705l-4.3361206-1.4826009-1.8222656 6.90722656c-2.45214846.15039062-4.75671392.90502931-6.4432984 2.05480142-.51068114-.45296222-1.17663572-.71274413-1.885437-.71274413-1.55108644 0-2.8125 1.23338215-2.8125 2.75 0 1.0462891.59948728 1.964209 1.51135256 2.4289876zm14.75427244-2.4289876c1.1630859 0 2.109375.9252604 2.109375 2.0625s-.9462891 2.0625-2.109375 2.0625-2.109375-.9252604-2.109375-2.0625.9462891-2.0625 2.109375-2.0625zm-.3006592 6.0734538.6013184 1.2419759c-1.3196411.6115885-2.8824463.9345703-4.5194092.9345703s-3.29351808-.3229818-4.61315916-.9345703l.60131832-1.242155c2.26611324 1.0487956 5.66381844 1.0487956 7.92993164.0001791zm-8.2305908-6.0734538c1.16308594 0 2.109375.9252604 2.109375 2.0625s-.94628906 2.0625-2.109375 2.0625-2.109375-.9252604-2.109375-2.0625.94628906-2.0625 2.109375-2.0625z"/></svg>