<?xml version="1.0" encoding="UTF-8"?>
<svg width="1024px" height="1024px" viewBox="0 0 1024 1024" version="1.1" xmlns="http://www.w3.org/2000/svg" xmlns:xlink="http://www.w3.org/1999/xlink">
    <!-- Generator: Sketch 57.1 (83088) - https://sketch.com -->
    <title>unidao_ww</title>
    <desc>Created with Sketch.</desc>
    <g id="unidao_ww" stroke="none" stroke-width="1" fill="none" fill-rule="evenodd">
        <g id="Icon" transform="translate(-779.000000, -7.000000)" fill="#000000" fill-rule="nonzero">
            <g id="Group-3">
                <path d="M966.83459,745.98895 L966.83459,809.966851 C966.83459,830.740435 975.448076,841.127072 992.675306,841.127072 C1001.06806,841.127072 1007.47296,838.613285 1011.8902,833.585635 C1016.30744,828.557986 1018.51602,820.685136 1018.51602,809.966851 L1018.51602,745.98895 L1045.01932,745.98895 L1045.01932,810.961326 C1045.01932,827.977986 1040.4089,841.071777 1031.18791,850.243094 C1021.96693,859.41441 1009.07431,864 992.509661,864 C975.945016,864 963.052395,859.41441 953.831409,850.243094 C944.610424,841.071777 940,827.977986 940,810.961326 L940,745.98895 L966.83459,745.98895 Z M1579.55773,744 C1591.5947,744 1602.41678,746.596659 1612.02427,751.790055 C1621.63176,756.983451 1629.19617,764.138076 1634.71772,773.254144 C1640.23927,782.370211 1643,792.618728 1643,804 C1643,815.381272 1640.23927,825.629789 1634.71772,834.745856 C1629.19617,843.861924 1621.63176,851.016549 1612.02427,856.209945 C1602.41678,861.403341 1591.5947,864 1579.55773,864 C1567.52075,864 1556.67107,861.403341 1547.00836,856.209945 C1537.34566,851.016549 1529.78125,843.861924 1524.31492,834.745856 C1518.84858,825.629789 1516.11546,815.381272 1516.11546,804 C1516.11546,792.618728 1518.84858,782.370211 1524.31492,773.254144 C1529.78125,764.138076 1537.34566,756.983451 1547.00836,751.790055 C1556.67107,746.596659 1567.52075,744 1579.55773,744 Z M1093.71913,745.98895 L1151.36381,816.430939 L1151.36381,745.98895 L1177.86711,745.98895 L1177.86711,862.01105 L1155.83624,862.01105 L1098.02592,791.569061 L1098.02592,862.01105 L1071.52262,862.01105 L1071.52262,745.98895 L1093.71913,745.98895 Z M1232.19887,745.98895 L1232.19887,862.01105 L1205.36428,862.01105 L1205.36428,745.98895 L1232.19887,745.98895 Z M1312.37135,745.98895 C1324.96048,745.98895 1336.08623,748.392241 1345.74894,753.198895 C1355.41165,758.005549 1362.92084,764.773437 1368.27674,773.502762 C1373.63265,782.232088 1376.31056,792.397732 1376.31056,804 C1376.31056,815.602268 1373.63265,825.767912 1368.27674,834.497238 C1362.92084,843.226563 1355.41165,849.994451 1345.74894,854.801105 C1336.08623,859.607759 1324.96048,862.01105 1312.37135,862.01105 L1259.69604,862.01105 L1259.69604,745.98895 L1312.37135,745.98895 Z M1459.46466,745.98895 L1511.31173,862.01105 L1483.15198,862.01105 L1472.88195,837.149171 L1419.04713,837.149171 L1408.7771,862.01105 L1381.27992,862.01105 L1432.96136,745.98895 L1459.46466,745.98895 Z M1579.55773,766.872928 C1572.71101,766.872928 1566.52697,768.447498 1561.00542,771.596685 C1555.48387,774.745872 1551.14952,779.138093 1548.00224,784.773481 C1544.85496,790.408868 1543.28134,796.817644 1543.28134,804 C1543.28134,811.182356 1544.85496,817.591132 1548.00224,823.226519 C1551.14952,828.861907 1555.48387,833.254128 1561.00542,836.403315 C1566.52697,839.552502 1572.71101,841.127072 1579.55773,841.127072 C1586.40445,841.127072 1592.58849,839.552502 1598.11004,836.403315 C1603.63159,833.254128 1607.96594,828.861907 1611.11322,823.226519 C1614.2605,817.591132 1615.83412,811.182356 1615.83412,804 C1615.83412,796.817644 1614.2605,790.408868 1611.11322,784.773481 C1607.96594,779.138093 1603.63159,774.745872 1598.11004,771.596685 C1592.58849,768.447498 1586.40445,766.872928 1579.55773,766.872928 Z M1311.04618,768.033149 L1286.53063,768.033149 L1286.53063,839.966851 L1311.04618,839.966851 C1322.64143,839.966851 1331.88989,836.734839 1338.79182,830.270718 C1345.69376,823.806598 1349.14467,815.049779 1349.14467,804 C1349.14467,792.950221 1345.69376,784.193402 1338.79182,777.729282 C1331.88989,771.265161 1322.64143,768.033149 1311.04618,768.033149 Z M1446.04736,772.342541 L1427.6607,816.762431 L1464.43402,816.762431 L1446.04736,772.342541 Z M1039.18967,200.003187 L1039.18967,454.158458 C1039.18967,530.383663 1069.21856,568.462256 1129.33847,568.462256 C1188.35956,568.462256 1218.19842,531.141427 1218.7893,456.43377 L1218.79825,454.158458 L1218.79825,341.371854 L1350.94345,341.371854 L1350.94345,458.256526 C1350.94345,528.994967 1331.39106,583.63021 1292.31453,622.213269 C1253.238,660.739646 1198.44389,680 1127.96043,680 C1057.47132,680 1002.70544,660.739646 963.628912,622.213269 C924.915193,584.016041 905.392441,530.086067 905.005857,460.373848 L905,458.256526 L905,200.003187 L1039.18967,200.003187 Z M1219.67647,200 L1444.01494,200 C1495.96825,200 1542.04795,209.800222 1582.25966,229.281634 C1622.49397,248.768714 1653.65241,276.446262 1675.79709,312.257598 C1697.94178,348.068934 1709,390.030206 1709,438.073398 C1709,486.178939 1697.94178,528.077861 1675.79709,563.894865 C1653.65241,599.762883 1622.49397,627.38375 1582.25966,646.921843 C1542.45006,666.208441 1496.88926,675.950951 1445.57178,676.143872 L1444.01494,676.146795 L1270.82784,676.146795 C1290.78121,666.278556 1308.59974,653.71228 1324.1479,638.385618 C1343.68106,619.100053 1358.82444,596.17885 1369.62662,569.84957 L1370.11464,568.650438 L1438.58184,568.650438 C1479.25667,568.650438 1511.88351,557.138437 1536.53578,534.001072 C1561.13157,510.863707 1573.46053,478.872701 1573.46053,438.073398 C1573.46053,397.279763 1561.13157,365.283088 1536.53578,342.202405 C1512.13003,319.296413 1479.90841,307.728888 1439.79967,307.499828 L1438.58184,307.496357 L1353.86614,307.496357 L1353.86614,307.989486 C1353.06134,307.890293 1352.26438,307.751738 1351.43932,307.708309 L1350.94062,307.694742 L1219.67647,307.694742 L1219.67647,200 L1444.01494,200 Z" id="Mask"></path>
            </g>
        </g>
        <g id="Export"></g>
    </g>
</svg>