<svg width="624" height="233" viewBox="0 0 624 233" fill="none" xmlns="http://www.w3.org/2000/svg">
<g clip-path="url(#clip0_420_27326)">
<path d="M415.45 117.07C416.185 118.663 416.552 120.255 416.552 121.848C416.552 124.666 415.389 127.056 413.061 129.016C410.855 130.976 408.282 131.956 405.341 131.956C403.381 131.956 401.543 131.466 399.828 130.486C398.112 129.384 396.765 127.729 395.784 125.524L384.757 100.897H320.063L309.036 125.524C308.056 127.729 306.708 129.384 304.992 130.486C303.277 131.466 301.378 131.956 299.295 131.956C296.477 131.956 293.903 130.976 291.576 129.016C289.248 127.056 288.084 124.666 288.084 121.848C288.084 120.255 288.451 118.663 289.186 117.07L339.912 8.08272C341.015 5.63219 342.669 3.7943 344.874 2.56904C347.202 1.22125 349.653 0.547363 352.226 0.547363C354.799 0.547363 357.188 1.22125 359.394 2.56904C361.722 3.7943 363.438 5.63219 364.54 8.08272L415.45 117.07ZM328.15 82.517H376.67L352.41 27.9319L328.15 82.517ZM460.896 132.141C457.22 132.141 454.28 131.099 452.074 129.016C449.991 126.811 448.95 123.931 448.95 120.378V21.1317H415.5C408.148 21.1317 404.472 17.8848 404.472 11.3909C404.472 4.89704 408.148 1.6501 415.5 1.6501H506.108C513.459 1.6501 517.135 4.89704 517.135 11.3909C517.135 17.8848 513.459 21.1317 506.108 21.1317H472.659V120.378C472.659 123.931 471.556 126.811 469.35 129.016C467.267 131.099 464.449 132.141 460.896 132.141ZM542.917 132.324C539.364 132.324 536.485 131.221 534.279 129.016C532.196 126.811 531.155 123.931 531.155 120.378V12.8612C531.155 9.30796 532.135 6.55114 534.096 4.59073C536.178 2.63031 538.996 1.6501 542.55 1.6501H607.06C614.534 1.6501 618.269 4.83577 618.269 11.2071C618.269 17.456 614.534 20.5804 607.06 20.5804H554.496V55.8679H603.384C610.858 55.8679 614.595 59.0536 614.595 65.4252C614.595 71.6739 610.858 74.7982 603.384 74.7982H554.496V120.378C554.496 123.931 553.454 126.811 551.372 129.016C549.289 131.221 546.471 132.324 542.917 132.324Z" fill="#35BF8D"/>
<path d="M356.562 168.192C370.224 168.192 377.055 176.33 377.055 192.606V226.886C377.055 228.489 376.591 229.754 375.663 230.681C374.736 231.524 373.513 231.946 371.995 231.946C370.477 231.946 369.212 231.524 368.2 230.681C367.272 229.754 366.809 228.489 366.809 226.886V192.859C366.809 187.209 365.797 183.119 363.773 180.589C361.749 178.059 358.586 176.794 354.285 176.794C349.141 176.794 345.093 178.522 342.142 181.98C339.19 185.438 337.714 190.118 337.714 196.021V226.886C337.714 228.489 337.208 229.754 336.196 230.681C335.268 231.524 334.046 231.946 332.528 231.946C331.01 231.946 329.787 231.524 328.859 230.681C327.932 229.754 327.468 228.489 327.468 226.886V192.859C327.468 187.209 326.456 183.119 324.432 180.589C322.408 178.059 319.203 176.794 314.818 176.794C309.758 176.794 305.711 178.522 302.675 181.98C299.723 185.438 298.247 190.118 298.247 196.021V226.886C298.247 228.489 297.784 229.754 296.856 230.681C295.928 231.524 294.705 231.946 293.187 231.946C291.669 231.946 290.404 231.524 289.392 230.681C288.465 229.754 288.001 228.489 288.001 226.886V173.505C288.001 171.987 288.465 170.764 289.392 169.836C290.404 168.908 291.669 168.445 293.187 168.445C294.621 168.445 295.801 168.908 296.729 169.836C297.657 170.679 298.121 171.86 298.121 173.378V179.45C299.976 175.824 302.548 173.041 305.837 171.101C309.126 169.161 312.921 168.192 317.222 168.192C326.836 168.192 333.118 172.24 336.07 180.336C337.841 176.625 340.54 173.674 344.166 171.481C347.792 169.288 351.924 168.192 356.562 168.192ZM443.411 217.02C444.338 217.02 445.139 217.399 445.814 218.158C446.489 218.917 446.826 219.887 446.826 221.068C446.826 223.176 445.35 225.116 442.399 226.886C439.363 228.657 436.158 230.007 432.785 230.934C429.412 231.777 426.123 232.199 422.918 232.199C413.388 232.199 405.841 229.374 400.275 223.724C394.793 218.074 392.053 210.273 392.053 200.322C392.053 193.997 393.275 188.431 395.721 183.624C398.167 178.733 401.582 174.939 405.967 172.24C410.437 169.541 415.497 168.192 421.147 168.192C429.159 168.192 435.525 170.806 440.248 176.035C444.971 181.263 447.332 188.347 447.332 197.286C447.332 198.973 446.995 200.196 446.32 200.955C445.645 201.714 444.549 202.093 443.031 202.093H402.299C403.058 216.598 409.931 223.851 422.918 223.851C426.207 223.851 429.032 223.429 431.393 222.586C433.754 221.658 436.284 220.435 438.983 218.917C441.176 217.652 442.652 217.02 443.411 217.02ZM421.274 176.161C415.877 176.161 411.533 177.848 408.244 181.221C405.04 184.594 403.142 189.359 402.552 195.515H438.351C438.182 189.274 436.622 184.51 433.67 181.221C430.718 177.848 426.586 176.161 421.274 176.161ZM511.889 141.501C513.491 141.501 514.756 141.965 515.684 142.892C516.611 143.82 517.075 145.001 517.075 146.434V226.886C517.075 228.404 516.611 229.627 515.684 230.555C514.756 231.483 513.491 231.946 511.889 231.946C510.286 231.946 509.021 231.483 508.094 230.555C507.25 229.627 506.829 228.404 506.829 226.886V220.056C504.973 223.935 502.233 226.929 498.607 229.037C495.065 231.145 490.891 232.199 486.084 232.199C480.686 232.199 475.922 230.85 471.79 228.151C467.657 225.453 464.453 221.7 462.176 216.893C459.899 212.002 458.76 206.352 458.76 199.943C458.76 193.618 459.899 188.052 462.176 183.245C464.453 178.438 467.657 174.727 471.79 172.113C475.922 169.499 480.686 168.192 486.084 168.192C490.891 168.192 495.065 169.246 498.607 171.354C502.233 173.462 504.973 176.457 506.829 180.336V146.434C506.829 144.916 507.25 143.736 508.094 142.892C509.021 141.965 510.286 141.501 511.889 141.501ZM488.108 223.724C494.095 223.724 498.691 221.7 501.896 217.652C505.185 213.52 506.829 207.701 506.829 200.196C506.829 192.69 505.185 186.913 501.896 182.865C498.691 178.818 494.095 176.794 488.108 176.794C482.12 176.794 477.439 178.818 474.066 182.865C470.777 186.913 469.133 192.606 469.133 199.943C469.133 207.448 470.777 213.309 474.066 217.526C477.439 221.658 482.12 223.724 488.108 223.724ZM541.24 231.946C539.722 231.946 538.457 231.524 537.445 230.681C536.517 229.754 536.054 228.489 536.054 226.886V173.505C536.054 171.903 536.517 170.679 537.445 169.836C538.457 168.908 539.722 168.445 541.24 168.445C542.758 168.445 543.981 168.908 544.908 169.836C545.836 170.679 546.3 171.903 546.3 173.505V226.886C546.3 228.573 545.836 229.838 544.908 230.681C543.981 231.524 542.758 231.946 541.24 231.946ZM541.24 155.163C539.216 155.163 537.572 154.573 536.307 153.392C535.042 152.211 534.409 150.651 534.409 148.711C534.409 146.856 535.042 145.338 536.307 144.157C537.572 142.977 539.216 142.386 541.24 142.386C543.264 142.386 544.908 142.977 546.173 144.157C547.438 145.338 548.071 146.856 548.071 148.711C548.071 150.651 547.438 152.211 546.173 153.392C544.908 154.573 543.264 155.163 541.24 155.163ZM590.627 168.192C606.06 168.192 613.776 176.288 613.776 192.479V226.886C613.776 228.404 613.313 229.627 612.385 230.555C611.542 231.483 610.361 231.946 608.843 231.946C607.325 231.946 606.102 231.483 605.174 230.555C604.247 229.627 603.783 228.404 603.783 226.886V220.815C602.181 224.441 599.735 227.266 596.446 229.29C593.157 231.23 589.362 232.199 585.061 232.199C581.098 232.199 577.429 231.398 574.056 229.796C570.767 228.194 568.153 225.959 566.213 223.092C564.274 220.224 563.304 217.062 563.304 213.604C563.304 208.966 564.485 205.382 566.846 202.852C569.207 200.238 573.087 198.382 578.484 197.286C583.881 196.105 591.386 195.515 601 195.515H603.783V191.341C603.783 186.281 602.729 182.57 600.621 180.209C598.597 177.848 595.265 176.667 590.627 176.667C584.893 176.667 579.074 178.227 573.171 181.348C570.894 182.781 569.292 183.498 568.364 183.498C567.352 183.498 566.509 183.119 565.834 182.36C565.159 181.601 564.822 180.631 564.822 179.45C564.822 178.269 565.159 177.257 565.834 176.414C566.593 175.486 567.774 174.559 569.376 173.631C572.328 171.944 575.658 170.638 579.369 169.71C583.164 168.698 586.917 168.192 590.627 168.192ZM586.453 224.104C591.513 224.104 595.645 222.417 598.85 219.044C602.139 215.586 603.783 211.158 603.783 205.761V202.093H601.506C594.085 202.093 588.434 202.43 584.555 203.105C580.676 203.695 577.893 204.749 576.207 206.267C574.605 207.701 573.803 209.852 573.803 212.719C573.803 216.008 574.984 218.748 577.345 220.941C579.791 223.049 582.827 224.104 586.453 224.104Z" fill="#2C4053"/>
<path d="M116.401 228.243C178.463 228.243 228.775 177.932 228.775 115.87C228.775 53.8075 178.463 3.49609 116.401 3.49609C54.3387 3.49609 4.02734 53.8075 4.02734 115.87C4.02734 177.932 54.3387 228.243 116.401 228.243Z" stroke="#35BF8D" stroke-width="6.14063"/>
<path d="M116.094 128.151C150.517 128.151 178.421 100.246 178.421 65.8235C178.421 31.401 150.517 3.49609 116.094 3.49609C81.6715 3.49609 53.7666 31.401 53.7666 65.8235C53.7666 100.246 81.6715 128.151 116.094 128.151Z" stroke="#35BF8D" stroke-width="6.14063"/>
</g>
<defs>
<clipPath id="clip0_420_27326">
<rect width="622.66" height="232.116" fill="white" transform="translate(0.957031 0.425781)"/>
</clipPath>
</defs>
</svg>
