<svg width="439" height="53" viewBox="0 0 439 53" fill="none" xmlns="http://www.w3.org/2000/svg">
<g clip-path="url(#clip0_1246_50520)">
<path d="M29.3044 0.365234C3.39937 0.365234 0.484375 13.2902 0.484375 20.6052V22.2552C0.484375 29.4602 3.39937 42.7152 29.3044 42.7152H31.6694C57.4644 42.7152 60.4344 29.4602 60.4344 22.2552V20.6052C60.4344 13.2902 57.4094 0.365234 31.6694 0.365234H29.3044ZM47.0144 21.7602C47.0144 26.4902 44.2094 32.7602 30.4594 32.7602C16.5994 32.7602 13.9044 26.3252 13.9044 21.6502V20.9902C13.9044 16.3152 16.3794 10.2652 30.4594 10.2652C44.3194 10.2652 47.0144 16.3152 47.0144 20.9902V21.7602ZM76.1949 26.9852C76.1949 23.1902 79.4949 19.3402 87.1399 19.3402H87.4149C95.3349 19.3402 97.5349 23.1902 97.5349 26.9852V27.2052C97.5349 30.7802 95.3349 34.9052 87.4149 34.9052H87.1399C79.6599 34.9052 76.1949 30.8902 76.1949 27.2052V26.9852ZM63.9299 12.4102V52.3402H76.1949V37.8202C77.1849 38.9202 82.1349 42.7152 90.9349 42.7152H91.8149C105.455 42.7152 110.075 35.3452 110.075 27.5902V26.5452C110.075 18.4052 105.62 11.6952 92.1999 11.6952H91.2099C82.2449 11.6952 77.5149 15.4902 76.1949 16.6452V12.4102H63.9299ZM134.121 18.4602C140.336 18.4602 143.196 20.3302 144.021 23.4652H124.221C125.156 20.3302 127.906 18.4602 134.066 18.4602H134.121ZM156.231 31.5502H144.131C143.966 32.2652 142.646 35.3452 134.506 35.3452H134.451C127.686 35.3452 124.716 33.0352 124.001 29.5702H156.396V27.5352C156.396 20.3302 153.206 11.5852 135.826 11.5852H132.471C116.466 11.5852 111.956 18.9002 111.956 26.4902V27.7002C111.956 35.4552 117.016 42.8252 132.801 42.8252H135.936C153.591 42.8252 156.231 35.6202 156.231 31.6052V31.5502ZM159.563 42.0002H171.828V28.0302C171.828 23.1902 175.403 20.0002 180.903 20.0002C186.348 20.0002 188.823 22.8052 188.823 27.3702V42.0002H201.198V23.3002C201.198 17.5802 197.128 11.7502 186.788 11.7502H186.403C177.603 11.7502 173.203 15.9852 171.718 17.4702V12.4102H159.563V42.0002ZM206.238 42.0002H218.558V13.6752L234.673 42.0002H241.548L257.663 13.6752V42.0002H270.313V1.08024H252.768L238.578 26.5452L224.443 1.08024H206.238V42.0002ZM276.049 1.08024V42.0002H319.719V32.4852H288.699V25.7752H318.454V16.4252H288.699V10.3752H319.169V1.08024H276.049ZM324.483 1.08024V42.0002H337.133V14.8852L364.908 42.0002H377.558V1.08024H364.908V26.8202L338.783 1.08024H324.483ZM416.064 25.2802H400.554L408.144 9.93524L416.064 25.2802ZM424.644 42.0002H438.449L416.559 1.08024H399.949L379.269 42.0002H392.304L395.989 34.5202H420.794L424.644 42.0002Z" fill="black"/>
</g>
<defs>
<clipPath id="clip0_1246_50520">
<rect width="439" height="53" fill="white"/>
</clipPath>
</defs>
</svg>
