<svg width="215" height="97" viewBox="0 0 215 97" fill="none" xmlns="http://www.w3.org/2000/svg">
<circle cx="14.86" cy="22.7853" r="14.4787" fill="#262626"/>
<path fill-rule="evenodd" clip-rule="evenodd" d="M42.2207 45.0841L56.8428 0.263672H68.7635L84.0215 45.0841H72.2601L69.7171 35.5478H55.7306L53.1876 45.0841H42.2207ZM58.6937 26.6808H66.9293L63.2371 14.2006L63.0062 11.1597H62.6103L62.3677 14.2006L58.6937 26.6808Z" fill="#262626"/>
<path fill-rule="evenodd" clip-rule="evenodd" d="M147.316 15.5506C147.385 14.5996 147.316 13.109 147.316 13.109H157.375V43.1899C154.895 58.1451 144.972 59.0117 126.22 55.8864L130.127 46.6082C130.339 46.654 130.549 46.6994 130.757 46.7441C139.164 48.5591 142.94 49.3745 146.241 44.3619C146.241 44.3619 146.411 42.1492 146.241 40.7482C144.625 44.3619 126.904 51.9797 123.583 29.7121C123.583 7.73744 143.8 11.2534 147.316 15.5506ZM134.645 28.3419C134.645 28.3419 134.85 21.8065 140.671 21.6023C146.491 21.398 146.491 27.6271 146.491 27.6271C146.491 27.6271 147.206 34.4688 141.283 34.8772C135.36 35.2857 134.645 28.3419 134.645 28.3419Z" fill="#262626"/>
<path fill-rule="evenodd" clip-rule="evenodd" d="M173.59 30.9822H193.904C193.904 30.9822 195.955 11.9375 178.668 11.9375C168.851 11.9375 161.288 21.2135 162.261 30.9822C163.637 44.8137 182.4 50.0218 193.904 40.7487L189.9 33.3262C180.137 37.6462 176.564 37.0222 173.59 30.9822ZM174.164 24.5639H183.354C183.354 24.5639 183.356 20.5534 178.761 20.6555C174.166 20.7576 174.164 24.5639 174.164 24.5639Z" fill="#262626"/>
<path d="M199.372 34.4983V0.217773H210.408V33.0333C210.408 33.0333 211.065 35.0792 212.166 35.5726C213.036 35.9626 214.607 35.5726 214.607 35.5726V45.3391C204.321 46.6792 200.633 44.7491 199.372 34.4983Z" fill="#262626"/>
<path d="M56.3903 59.9889C54.2742 71.1228 49.6813 94.0739 49.2903 94.6989H57.5924L64.0079 59.9889H78.0717L79.0484 52.8594H44.1819L42.9121 59.9889H56.3903Z" fill="#262626"/>
<path fill-rule="evenodd" clip-rule="evenodd" d="M77.1914 73.4661L75.3352 67.9968C86.0789 60.4766 100.338 62.5276 98.1891 75.8101L94.4779 94.7571H87.2506V91.4354C87.2506 91.4354 85.2154 93.8899 83.4428 94.7571C77.9878 97.4257 69.573 99.0544 69.5732 87.7252C69.5735 76.3961 83.4428 75.8101 90.5715 75.8101C90.5695 69.7555 85.6891 68.8758 77.1914 73.4661ZM89.4046 81.3395C89.4046 81.3395 88.2848 80.3184 81.0345 82.5649C73.7841 84.8114 78.989 90.3257 82.9712 89.2024C86.9534 88.0791 89.4046 81.3395 89.4046 81.3395Z" fill="#262626"/>
<path d="M103.758 82.3542L109.227 53.25H117.04L111.083 83.8192C110.591 86.5392 110.745 87.6166 112.645 87.9211H114.696L113.329 94.5624H106.688C102.29 91.8882 101.985 88.9928 103.758 82.3542Z" fill="#262626"/>
<path d="M134.131 53.3477H126.22L118.309 94.4647H126.22L128.662 81.7682H132.08L137.061 94.4647H146.339L138.819 78.4476L150.832 64.7745H142.335L132.861 75.8107H129.834L134.131 53.3477Z" fill="#262626"/>
<path d="M176.225 67.6066L172.612 72.9782C172.612 72.9782 164.603 67.9973 161.185 72.2945C159.371 74.5744 166.947 77.0801 166.947 77.0801C166.947 77.0801 175.443 81.4751 173.197 86.5537C170.951 91.6322 168.998 95.2459 160.403 95.3435C151.809 95.4411 148.683 90.5579 148.683 90.5579L153.078 85.9676C156.562 86.8792 157.961 91.1439 164.407 87.5303C170.854 83.9167 153.664 83.9167 153.078 74.0525C152.492 64.1883 169.291 60.77 176.225 67.6066Z" fill="#262626"/>
<path d="M98.0925 27.5638V44.8505H86.8608V20.8249V12.621H98.0925V17.2113C103.66 8.71439 116.649 10.7654 118.797 20.8249V44.8505H108.152V24.4385C105.711 19.3599 98.0925 24.4385 98.0925 27.5638Z" fill="#262626"/>
</svg>
