<svg width="486" height="99" viewBox="0 0 486 99" fill="none" xmlns="http://www.w3.org/2000/svg">
<path d="M390.515 4.11558H397.881L409.64 40.7373L410.915 46.9708L412.19 40.7373L423.949 4.11558H431.316L414.882 53.7001H406.948L390.515 4.11558ZM456.478 54.4085C451.991 54.4085 447.859 53.346 444.082 51.2209C440.351 49.0486 437.376 46.0263 435.156 42.154C432.937 38.2817 431.827 33.8663 431.827 28.9079C431.827 23.9494 432.937 19.534 435.156 15.6617C437.376 11.7894 440.351 8.79069 444.082 6.66564C447.859 4.49336 451.991 3.40723 456.478 3.40723C462.333 3.40723 467.221 4.9656 471.141 8.08234C475.058 11.1991 477.537 15.3311 478.576 20.4785H471.778C470.786 17.0784 468.945 14.4339 466.253 12.545C463.561 10.6088 460.279 9.64071 456.407 9.64071C452.865 9.64071 449.748 10.4671 447.057 12.1199C444.412 13.7728 442.358 16.0631 440.894 18.9909C439.477 21.9188 438.769 25.2244 438.769 28.9079C438.769 32.5913 439.477 35.8969 440.894 38.8248C442.358 41.7526 444.412 44.043 447.057 45.6958C449.748 47.3486 452.865 48.175 456.407 48.175C460.279 48.175 463.561 47.2305 466.253 45.3416C468.945 43.4054 470.786 40.7373 471.778 37.3372H478.576C477.868 40.7373 476.522 43.736 474.539 46.3333C472.555 48.8834 470.007 50.8667 466.89 52.2834C463.821 53.7001 460.35 54.4085 456.478 54.4085Z" fill="black"/>
<path d="M25.7844 54.4085C22.5732 54.4085 19.5745 53.7474 16.7884 52.4251C14.0494 51.1029 11.8063 49.2139 10.059 46.7583C8.31176 44.3027 7.34368 41.4693 7.15479 38.2581H13.7424C14.073 41.3748 15.348 43.8068 17.5675 45.5541C19.8343 47.3014 22.5732 48.175 25.7844 48.175C28.9012 48.175 31.4748 47.3958 33.5054 45.8374C35.5833 44.2318 36.6222 41.9415 36.6222 38.9664C36.6222 37.0775 36.1972 35.5191 35.3471 34.2913C34.5444 33.0163 33.2221 31.9538 31.3804 31.1037C29.5387 30.2537 26.9886 29.4745 23.7302 28.7662C19.0079 27.7273 15.348 26.2161 12.7508 24.2327C10.1535 22.2021 8.85483 19.3451 8.85483 15.6617C8.85483 13.2533 9.53957 11.1283 10.909 9.28654C12.2785 7.3976 14.1438 5.95729 16.505 4.9656C18.9134 3.92668 21.5579 3.40723 24.4385 3.40723C29.3498 3.40723 33.2929 4.65865 36.268 7.16149C39.2431 9.66433 40.8959 13.1352 41.2265 17.5742H34.7805C34.4027 14.9297 33.3402 12.9464 31.5929 11.6241C29.8456 10.3018 27.4608 9.64071 24.4385 9.64071C21.794 9.64071 19.6454 10.1838 17.9926 11.2699C16.3397 12.3088 15.5133 13.7019 15.5133 15.4492C15.5133 17.527 16.4814 19.1562 18.4176 20.3368C20.3537 21.5174 23.6357 22.6271 28.2636 23.6661C33.1749 24.7522 36.9291 26.5231 39.5264 28.9787C42.1237 31.4343 43.4224 34.6927 43.4224 38.7539C43.4224 41.8235 42.6432 44.5624 41.0848 46.9708C39.5264 49.332 37.4014 51.1737 34.7096 52.4959C32.0651 53.771 29.0901 54.4085 25.7844 54.4085Z" fill="black"/>
<path d="M58.0729 10.3487H45.4644V4.11523H77.4817V10.3487H64.8731V53.6998H58.0729V10.3487Z" fill="black"/>
<path d="M93.6561 4.11523H100.456L118.307 53.6998H111.082L107.752 44.0662H86.2893L83.0308 53.6998H75.8057L93.6561 4.11523ZM105.627 37.8327L97.977 15.5197L97.0562 10.2071L96.1353 15.5197L88.4143 37.8327H105.627Z" fill="black"/>
<path d="M124.657 4.11523H140.311C144.042 4.11523 147.277 4.77636 150.016 6.09862C152.755 7.42087 154.856 9.2862 156.32 11.6946C157.784 14.103 158.516 16.8892 158.516 20.0531C158.516 23.2171 157.76 25.9324 156.249 28.1992C154.785 30.4659 152.589 32.4257 149.662 34.0785L161.066 53.6998H153.274L143.003 35.7077H131.457V53.6998H124.657V4.11523ZM141.445 29.4742C144.656 29.4742 147.159 28.6242 148.953 26.9241C150.795 25.1769 151.716 22.8393 151.716 19.9115C151.716 16.9364 150.818 14.5988 149.024 12.8988C147.277 11.1987 144.75 10.3487 141.445 10.3487H131.457V29.4742H141.445Z" fill="black"/>
<path d="M176.5 10.3487H163.892V4.11523H195.909V10.3487H183.3V53.6998H176.5V10.3487Z" fill="black"/>
<path d="M203.447 4.11523H237.85V10.3487H210.247V25.7908H235.937V32.0243H210.247V47.4663H238.629V53.6998H203.447V4.11523Z" fill="black"/>
<path d="M269.034 54.4085C264.548 54.4085 260.416 53.346 256.638 51.2209C252.908 49.0486 249.933 46.0263 247.713 42.154C245.494 38.2817 244.384 33.8663 244.384 28.9079C244.384 23.9494 245.494 19.534 247.713 15.6617C249.933 11.7894 252.908 8.79069 256.638 6.66564C260.416 4.49336 264.548 3.40723 269.034 3.40723C274.89 3.40723 279.778 4.9656 283.697 8.08234C287.617 11.1991 290.096 15.3311 291.135 20.4785H284.335C283.343 17.0784 281.501 14.4339 278.81 12.545C276.118 10.6088 272.836 9.64071 268.964 9.64071C265.422 9.64071 262.305 10.4671 259.613 12.1199C256.969 13.7728 254.915 16.0631 253.451 18.9909C252.034 21.9188 251.326 25.2244 251.326 28.9079C251.326 32.5913 252.034 35.8969 253.451 38.8248C254.915 41.7526 256.969 44.043 259.613 45.6958C262.305 47.3486 265.422 48.175 268.964 48.175C272.836 48.175 276.118 47.2305 278.81 45.3416C281.501 43.4054 283.343 40.7373 284.335 37.3372H291.135C290.427 40.7373 289.081 43.736 287.097 46.3333C285.114 48.8834 282.564 50.8667 279.447 52.2834C276.378 53.7001 272.907 54.4085 269.034 54.4085Z" fill="black"/>
<path d="M299.619 4.11523H306.419V25.7908H329.299V4.11523H336.099V53.6998H329.299V32.0243H306.419V53.6998H299.619V4.11523Z" fill="black"/>
<path d="M404.493 60.7366L376.409 60.8641L393.631 53.8939V51.7547L375.45 59.2065L393.631 41.0397V39.5333H392.285L374.085 57.9079L381.547 39.5333H379.403L372.442 57.0106L372.461 28.6719H370.454L370.586 56.9587L363.545 39.5333H361.401L368.891 57.8465L350.573 39.5333H349.241V41.0444L367.531 59.1924L349.241 51.8019V53.9317L366.69 60.883L338.38 60.8735V62.8994L366.638 62.7861L349.241 69.7987V71.9568L367.564 64.4625L349.241 82.7568V83.9232H350.927L368.929 65.7517L361.567 83.9232H363.72L370.605 66.5828L370.567 94.7846H372.617L372.466 66.6395L379.45 83.9232H381.589L374.189 65.8178L392.304 83.9232H393.631V82.4074L375.497 64.4247L393.631 71.7727V69.6287L376.437 62.7672L404.493 62.7719V60.7366Z" fill="#6DB1B2"/>
<path d="M379.464 53.7002H363.408V69.7561H379.464V53.7002Z" fill="black"/>
</svg>
