<svg width="1028" height="306" viewBox="0 0 1028 306" fill="none" xmlns="http://www.w3.org/2000/svg">
<path d="M826.661 64.75H842.261L867.161 142.3L869.861 155.5L872.561 142.3L897.461 64.75H913.061L878.261 169.75H861.461L826.661 64.75ZM966.344 171.25C956.844 171.25 948.094 169 940.094 164.5C932.194 159.9 925.894 153.5 921.194 145.3C916.494 137.1 914.144 127.75 914.144 117.25C914.144 106.75 916.494 97.4 921.194 89.2C925.894 81 932.194 74.65 940.094 70.15C948.094 65.55 956.844 63.25 966.344 63.25C978.744 63.25 989.094 66.55 997.394 73.15C1005.69 79.75 1010.94 88.5 1013.14 99.4H998.744C996.644 92.2 992.744 86.6 987.044 82.6C981.344 78.5 974.394 76.45 966.194 76.45C958.694 76.45 952.094 78.2 946.394 81.7C940.794 85.2 936.444 90.05 933.344 96.25C930.344 102.45 928.844 109.45 928.844 117.25C928.844 125.05 930.344 132.05 933.344 138.25C936.444 144.45 940.794 149.3 946.394 152.8C952.094 156.3 958.694 158.05 966.194 158.05C974.394 158.05 981.344 156.05 987.044 152.05C992.744 147.95 996.644 142.3 998.744 135.1H1013.14C1011.64 142.3 1008.79 148.65 1004.59 154.15C1000.39 159.55 994.994 163.75 988.394 166.75C981.894 169.75 974.544 171.25 966.344 171.25Z" fill="black"/>
<path d="M54.3104 171.25C47.5104 171.25 41.1604 169.85 35.2604 167.05C29.4604 164.25 24.7104 160.25 21.0104 155.05C17.3104 149.85 15.2604 143.85 14.8604 137.05H28.8104C29.5104 143.65 32.2104 148.8 36.9104 152.5C41.7104 156.2 47.5104 158.05 54.3104 158.05C60.9104 158.05 66.3604 156.4 70.6604 153.1C75.0604 149.7 77.2604 144.85 77.2604 138.55C77.2604 134.55 76.3603 131.25 74.5603 128.65C72.8603 125.95 70.0604 123.7 66.1604 121.9C62.2604 120.1 56.8604 118.45 49.9604 116.95C39.9604 114.75 32.2104 111.55 26.7104 107.35C21.2104 103.05 18.4604 97 18.4604 89.2C18.4604 84.1 19.9104 79.6 22.8104 75.7C25.7104 71.7 29.6604 68.65 34.6604 66.55C39.7604 64.35 45.3603 63.25 51.4604 63.25C61.8604 63.25 70.2104 65.9 76.5104 71.2C82.8104 76.5 86.3104 83.85 87.0104 93.25H73.3604C72.5604 87.65 70.3104 83.45 66.6104 80.65C62.9104 77.85 57.8604 76.45 51.4604 76.45C45.8603 76.45 41.3104 77.6 37.8104 79.9C34.3104 82.1 32.5604 85.05 32.5604 88.75C32.5604 93.15 34.6103 96.6 38.7104 99.1C42.8104 101.6 49.7604 103.95 59.5604 106.15C69.9604 108.45 77.9104 112.2 83.4104 117.4C88.9104 122.6 91.6604 129.5 91.6604 138.1C91.6604 144.6 90.0104 150.4 86.7104 155.5C83.4103 160.5 78.9103 164.4 73.2104 167.2C67.6104 169.9 61.3104 171.25 54.3104 171.25Z" fill="black"/>
<path d="M122.684 77.949H95.9844V64.749H163.784V77.949H137.084V169.749H122.684V77.949Z" fill="black"/>
<path d="M198.034 64.749H212.434L250.234 169.749H234.934L227.884 149.349H182.434L175.534 169.749H160.234L198.034 64.749ZM223.384 136.149L207.184 88.899L205.234 77.649L203.284 88.899L186.934 136.149H223.384Z" fill="black"/>
<path d="M263.682 64.749H296.832C304.732 64.749 311.582 66.149 317.382 68.949C323.182 71.749 327.632 75.699 330.732 80.799C333.832 85.899 335.382 91.799 335.382 98.499C335.382 105.199 333.782 110.949 330.582 115.749C327.482 120.549 322.832 124.699 316.632 128.199L340.782 169.749H324.282L302.532 131.649H278.082V169.749H263.682V64.749ZM299.232 118.449C306.032 118.449 311.332 116.649 315.132 113.049C319.032 109.349 320.982 104.399 320.982 98.199C320.982 91.899 319.082 86.949 315.282 83.349C311.582 79.749 306.232 77.949 299.232 77.949H278.082V118.449H299.232Z" fill="black"/>
<path d="M373.466 77.949H346.766V64.749H414.566V77.949H387.866V169.749H373.466V77.949Z" fill="black"/>
<path d="M430.528 64.749H503.378V77.949H444.928V110.649H499.328V123.849H444.928V156.549H505.028V169.749H430.528V64.749Z" fill="black"/>
<path d="M569.415 171.25C559.915 171.25 551.165 169 543.165 164.5C535.265 159.9 528.965 153.5 524.265 145.3C519.565 137.1 517.215 127.75 517.215 117.25C517.215 106.75 519.565 97.4 524.265 89.2C528.965 81 535.265 74.65 543.165 70.15C551.165 65.55 559.915 63.25 569.415 63.25C581.815 63.25 592.165 66.55 600.465 73.15C608.765 79.75 614.015 88.5 616.215 99.4H601.815C599.715 92.2 595.815 86.6 590.115 82.6C584.415 78.5 577.465 76.45 569.265 76.45C561.765 76.45 555.165 78.2 549.465 81.7C543.865 85.2 539.515 90.05 536.415 96.25C533.415 102.45 531.915 109.45 531.915 117.25C531.915 125.05 533.415 132.05 536.415 138.25C539.515 144.45 543.865 149.3 549.465 152.8C555.165 156.3 561.765 158.05 569.265 158.05C577.465 158.05 584.415 156.05 590.115 152.05C595.815 147.95 599.715 142.3 601.815 135.1H616.215C614.715 142.3 611.865 148.65 607.665 154.15C603.465 159.55 598.065 163.75 591.465 166.75C584.965 169.75 577.615 171.25 569.415 171.25Z" fill="black"/>
<path d="M634.18 64.749H648.58V110.649H697.03V64.749H711.43V169.749H697.03V123.849H648.58V169.749H634.18V64.749Z" fill="black"/>
<path d="M856.261 184.65L796.791 184.92L833.261 170.16V165.63L794.761 181.41L833.261 142.94V139.75H830.411L791.871 178.66L807.671 139.75H803.131L788.391 176.76L788.431 116.75H784.181L784.461 176.65L769.551 139.75H765.011L780.871 178.53L742.081 139.75H739.261V142.95L777.991 181.38L739.261 165.73V170.24L776.211 184.96L716.261 184.94V189.23L776.101 188.99L739.261 203.84V208.41L778.061 192.54L739.261 231.28V233.75H742.831L780.951 195.27L765.361 233.75H769.921L784.501 197.03L784.421 256.75H788.761L788.441 197.15L803.231 233.75H807.761L792.091 195.41L830.451 233.75H833.261V230.54L794.861 192.46L833.261 208.02V203.48L796.851 188.95L856.261 188.96V184.65Z" fill="#6DB1B2"/>
<path d="M803.261 169.75H769.261V203.75H803.261V169.75Z" fill="black"/>
</svg>
