<?xml version="1.0" standalone="no"?>
<!DOCTYPE svg PUBLIC "-//W3C//DTD SVG 20010904//EN"
 "http://www.w3.org/TR/2001/REC-SVG-20010904/DTD/svg10.dtd">
<svg version="1.0" xmlns="http://www.w3.org/2000/svg"
 width="700.000000pt" height="700.000000pt" viewBox="0 0 700.000000 700.000000"
 preserveAspectRatio="xMidYMid meet">
<metadata>
Created by potrace 1.11, written by Peter Selinger 2001-2013
</metadata>
<g transform="translate(0.000000,700.000000) scale(0.100000,-0.100000)"
fill="#000000" stroke="none">
<path d="M439 5329 c-10 -6 -6 -2183 4 -2249 35 -232 47 -281 107 -450 124
-345 362 -613 689 -775 154 -76 347 -136 521 -160 19 -3 51 -8 70 -11 57 -10
500 -13 565 -4 33 5 82 11 109 15 155 20 345 76 493 145 304 143 532 372 676
680 35 76 92 242 102 301 3 18 7 35 9 38 2 3 7 22 10 41 3 19 10 62 16 95 19
112 24 239 24 610 l1 370 -504 0 -504 0 -3 -380 c-1 -209 -4 -391 -7 -405 -3
-14 -8 -46 -12 -72 -14 -113 -108 -358 -137 -358 -4 0 -8 -6 -8 -12 0 -23
-118 -123 -183 -156 -97 -48 -168 -63 -307 -67 -179 -6 -286 18 -400 89 -140
87 -225 216 -275 415 -37 148 -39 200 -39 1288 l-1 1013 -30 1 c-221 4 -979 3
-986 -2z"/>
<path d="M2879 5332 l-46 -3 0 -409 1 -410 890 -1 c900 -1 937 -1 1036 -20
375 -71 647 -317 735 -665 30 -115 37 -179 37 -309 1 -356 -120 -621 -365
-801 -124 -92 -250 -143 -437 -179 -61 -12 -196 -17 -460 -18 l-285 -2 -51
-101 c-144 -290 -375 -535 -639 -679 -27 -15 -53 -30 -57 -34 -9 -8 1329 -5
1487 3 123 6 143 9 255 27 36 6 79 13 95 16 81 13 318 81 357 103 10 6 22 10
28 10 19 0 202 90 289 142 132 79 226 153 336 263 100 101 205 239 258 338 15
28 34 61 41 72 7 11 26 54 43 95 103 251 143 476 138 775 -4 210 -8 250 -42
405 -35 160 -65 245 -139 395 -161 327 -404 569 -748 744 -213 110 -462 186
-701 216 -27 4 -61 9 -75 11 -73 12 -325 16 -1090 18 -465 0 -866 0 -891 -2z"/>
</g>
</svg>
