<svg width="157" height="48" viewBox="0 0 157 48" fill="none" xmlns="http://www.w3.org/2000/svg">
<circle cx="27.5718" cy="23.5971" r="15.6734" fill="#00D192"/>
<mask id="mask0_548_9008" style="mask-type:alpha" maskUnits="userSpaceOnUse" x="11" y="7" width="33" height="33">
<circle cx="27.5727" cy="23.597" r="15.6734" transform="rotate(-5.12243 27.5727 23.597)" fill="#00D192"/>
</mask>
<g mask="url(#mask0_548_9008)">
<path d="M16.8868 1.64894L27.4232 14.974C28.886 16.8239 31.3202 17.6085 33.5879 16.9611L50.3866 12.1649C44.0282 15.2833 40.3118 17.665 35.5888 21.8391C33.9421 23.2944 33.3379 25.5877 33.9623 27.6948L39.9699 47.9681L27.8093 30.9141C26.4948 29.0706 24.2227 28.144 22.01 28.6241C7.16763 31.8447 -0.470521 36.5993 -13.6882 44.0966C0.127464 37.6138 8.26366 33.6359 19.7407 24.0617C21.4702 22.6189 22.1593 20.2814 21.546 18.1142L16.8868 1.64894Z" fill="#3F3F91"/>
<path d="M19.8375 3.1768L25.6848 8.72428L29.0164 14.0726C30.3158 16.1586 32.7898 17.2163 35.1801 16.645C40.1279 15.4624 43.789 14.3131 49.3833 12.3539C44.3803 14.9635 41.2055 16.9668 37.0727 20.3761C35.1625 21.9519 34.5594 24.6028 35.4959 26.8951L38.7611 34.888L40.1558 44.0696L29.6981 29.4039C28.3486 27.5112 25.9971 26.5857 23.7459 27.1649C11.9943 30.1882 4.79947 34.546 -7.37643 40.6401C4.52678 34.3656 11.9788 31.3023 21.9307 23.1389C23.6607 21.7198 24.3441 19.3974 23.7452 17.2415L19.8375 3.1768Z" fill="#E5FF63"/>
<path d="M23.033 3.66966L27.2995 7.17623L31.2848 13.463C32.5309 15.4287 34.8339 16.4857 37.1164 16.0313C41.6833 15.1223 44.9157 14.0448 49.6845 12.0359C45.067 14.5712 42.1979 16.4338 39.0488 18.946C37.0788 20.5176 36.4709 23.2287 37.4508 25.5505L40.4493 32.6545L41.3972 40.5198L32.1326 28.1592C30.6641 26.2 28.1205 25.362 25.7897 26.112C15.5369 29.4112 9.33243 32.2704 -1.2916 37.4398C9.24639 31.8789 15.2198 28.7592 24.0469 22.0424C25.8598 20.6629 26.6495 18.3272 26.1038 16.1155L23.033 3.66966Z" fill="#FFD80B"/>
<path d="M26.0936 5.7758L32.2644 13.5799C33.7271 15.4297 36.1614 16.2144 38.4291 15.5669L48.3034 12.7477L40.2005 18.3659C38.135 19.798 37.2218 22.3941 37.9359 24.804L41.3973 36.4847L34.6089 26.9646C33.0286 24.7484 30.1237 23.9231 27.6143 24.9772L5.95447 34.0759L5.82285 33.9179L26.1157 21.3561C28.3253 19.9883 29.3607 17.3216 28.6532 14.8211L26.0936 5.7758Z" fill="white"/>
</g>
<path d="M50.5783 23.8636V10.1739H60.667V11.4244H53.8221V16.6615H59.8396V17.8462H53.8221V23.8636H50.5783ZM62.5098 20.1993V14.9671H65.3475V20.9152C65.3475 21.6992 65.4981 22.2389 65.7992 22.5343C66.106 22.8297 66.5207 22.9774 67.0433 22.9774C67.5092 22.9774 67.9211 22.8467 68.279 22.5854C68.6426 22.3241 68.9209 22.0031 69.1141 21.6225V14.9671H71.9433V23.8636H69.2419L69.1738 22.7132H69.1397C68.8215 23.1223 68.3926 23.4461 67.8529 23.6847C67.3189 23.9233 66.7138 24.0426 66.0378 24.0426C64.9982 24.0426 64.1488 23.7443 63.4898 23.1478C62.8365 22.5456 62.5098 21.5628 62.5098 20.1993ZM73.3916 16.0578V14.9671H79.7232V16.0578H73.3916ZM74.934 21.1879V15.4017L74.9511 15.342V12.794H77.7547V21.0856C77.7547 21.8355 77.8428 22.3638 78.0189 22.6706C78.195 22.9717 78.445 23.1223 78.7688 23.1223C78.9279 23.1223 79.0812 23.1109 79.229 23.0882C79.3767 23.0598 79.5215 23.02 79.6636 22.9689L79.6721 23.9318C79.5244 23.9773 79.3142 24.017 79.0415 24.0511C78.7745 24.0909 78.4734 24.1108 78.1382 24.1108C77.1724 24.1108 76.3969 23.875 75.8118 23.4035C75.2266 22.9319 74.934 22.1934 74.934 21.1879ZM81.4272 20.1993V14.9671H84.2649V20.9152C84.2649 21.6992 84.4155 22.2389 84.7165 22.5343C85.0233 22.8297 85.438 22.9774 85.9607 22.9774C86.4266 22.9774 86.8384 22.8467 87.1963 22.5854C87.5599 22.3241 87.8383 22.0031 88.0315 21.6225V14.9671H90.8607V23.8636H88.1593L88.0911 22.7132H88.057C87.7389 23.1223 87.31 23.4461 86.7703 23.6847C86.2362 23.9233 85.6312 24.0426 84.9552 24.0426C83.9155 24.0426 83.0662 23.7443 82.4072 23.1478C81.7539 22.5456 81.4272 21.5628 81.4272 20.1993ZM93.3827 23.8636V14.9671H96.1096L96.1608 16.1004H96.2034C96.4136 15.7141 96.7175 15.3903 97.1152 15.129C97.5186 14.862 97.9588 14.7284 98.4361 14.7284C98.5781 14.7284 98.7173 14.7427 98.8536 14.7711C98.99 14.7995 99.0894 14.8279 99.1519 14.8563V15.9811C99.0382 15.9527 98.9161 15.9272 98.7854 15.9044C98.6605 15.876 98.5184 15.8618 98.3594 15.8618C97.8821 15.8618 97.4532 16.0124 97.0726 16.3135C96.692 16.6146 96.4107 16.9867 96.2289 17.4298V23.8636H93.3827ZM100.174 19.5432V19.2705C100.174 17.8957 100.651 16.7907 101.606 15.9556C102.56 15.1204 103.787 14.7029 105.287 14.7029C106.804 14.7029 107.988 15.0949 108.841 15.8789C109.693 16.6629 110.119 17.7451 110.119 19.1256V19.5943H102.1V18.9041H107.298V18.8529C107.304 18.0008 107.162 17.2622 106.872 16.6373C106.582 16.0067 106.02 15.6914 105.185 15.6914C104.486 15.6914 103.941 16.001 103.549 16.6203C103.162 17.2395 102.969 18.0746 102.969 19.1256V19.6625C102.969 20.7135 103.177 21.5486 103.591 22.1678C104.006 22.7814 104.631 23.0882 105.466 23.0882C106.023 23.0882 106.509 22.9007 106.923 22.5257C107.338 22.1508 107.665 21.6651 107.903 21.0685L109.897 22.2104C109.585 22.7956 109.042 23.2615 108.27 23.608C107.497 23.9489 106.577 24.1193 105.509 24.1193C103.838 24.1193 102.532 23.7017 101.589 22.8666C100.646 22.0315 100.174 20.9237 100.174 19.5432Z" fill="black"/>
<path d="M114.651 21.1488C114.651 20.4504 114.913 19.8773 115.438 19.4294C115.968 18.9814 116.681 18.5456 117.577 18.1217L119.26 17.3632C119.64 17.1657 119.975 16.9442 120.264 16.6985C120.558 16.4529 120.705 16.0556 120.705 15.5065C120.705 14.9285 120.56 14.5264 120.271 14.3C119.982 14.0737 119.602 13.9605 119.13 13.9605C118.653 13.9605 118.294 14.0761 118.053 14.3072C117.813 14.5336 117.692 14.9213 117.692 15.4704C117.692 15.8846 117.868 16.2795 118.219 16.6552C118.576 17.026 118.971 17.4715 119.404 17.9917L124.909 23.894H122.171L117.461 18.8008C116.719 18.0543 116.221 17.4667 115.965 17.0381C115.715 16.6094 115.59 16.1784 115.59 15.7449C115.59 14.955 115.922 14.3265 116.587 13.8593C117.251 13.3922 118.101 13.1586 119.137 13.1586C120.168 13.1586 120.97 13.3801 121.543 13.8232C122.116 14.2615 122.402 14.8563 122.402 15.6076C122.402 16.1471 122.263 16.5998 121.983 16.9658C121.704 17.3319 121.263 17.6546 120.661 17.9339L118.949 18.6997C118.116 19.1139 117.577 19.5064 117.331 19.8773C117.085 20.2481 116.962 20.7779 116.962 21.4666C116.962 22.0012 117.133 22.4227 117.475 22.7309C117.817 23.0343 118.248 23.1861 118.769 23.1861C119.582 23.1861 120.31 22.808 120.95 22.0518C121.591 21.2908 121.918 20.2674 121.933 18.9814H124.259C124.259 20.3974 123.722 21.5943 122.648 22.572C121.579 23.5497 120.269 24.0385 118.718 24.0385C117.413 24.0385 116.409 23.7568 115.705 23.1933C115.002 22.6298 114.651 21.9483 114.651 21.1488Z" fill="black"/>
<path d="M125.226 12.7897H124.885V11.4632H124.448V11.1789H125.664V11.4632H125.226V12.7897ZM126.594 12.7897L126.206 11.526H126.196C126.197 11.5561 126.2 11.6016 126.203 11.6626C126.206 11.7228 126.21 11.7871 126.213 11.8554C126.215 11.9237 126.217 11.9854 126.217 12.0405V12.7897H125.912V11.1789H126.377L126.758 12.4107H126.765L127.169 11.1789H127.634V12.7897H127.315V12.0273C127.315 11.9766 127.316 11.9182 127.318 11.8521C127.32 11.786 127.322 11.7232 127.325 11.6637C127.328 11.6034 127.33 11.5583 127.332 11.5282H127.322L126.907 12.7897H126.594Z" fill="black"/>
<path d="M50.4633 37.9849V25.5774H53.3777V31.0227H58.9252V25.5774H61.8396V37.9849H58.9252V32.1561H53.3777V37.9849H50.4633ZM63.7485 35.6244C63.7485 34.7268 64.1746 34.0365 65.0267 33.5536C65.8846 33.0707 67.0094 32.8293 68.4013 32.8293H70.5402V31.8834C70.5402 31.213 70.4067 30.6875 70.1397 30.3069C69.8784 29.9205 69.4353 29.7274 68.8104 29.7274C68.1911 29.7274 67.7423 29.9092 67.4639 30.2728C67.1856 30.6307 67.0464 31.0767 67.0464 31.6107V31.73H64.2768V31.6107C64.2768 30.7415 64.7001 30.0626 65.5466 29.574C66.3987 29.0797 67.5264 28.8326 68.9297 28.8326C70.3272 28.8326 71.4151 29.0854 72.1934 29.591C72.9718 30.091 73.3609 30.8636 73.3609 31.9089V35.9823C73.3609 36.3459 73.395 36.6924 73.4632 37.0219C73.537 37.3457 73.6336 37.6213 73.7529 37.8485V37.9849H70.9749C70.8953 37.8258 70.8243 37.6184 70.7618 37.3628C70.705 37.1015 70.6681 36.8458 70.651 36.5958C70.4522 36.9367 70.0574 37.2804 69.4665 37.627C68.8814 37.9735 68.1542 38.1468 67.285 38.1468C66.251 38.1468 65.4017 37.9423 64.737 37.5332C64.078 37.1242 63.7485 36.4879 63.7485 35.6244ZM66.5777 35.488C66.5777 36.0675 66.7112 36.5106 66.9782 36.8174C67.2509 37.1185 67.6827 37.269 68.2735 37.269C68.9098 37.269 69.4466 37.0503 69.8841 36.6129C70.3272 36.1698 70.5488 35.6443 70.5488 35.0364V33.6303H68.8189C68.069 33.6303 67.5065 33.7979 67.1316 34.1331C66.7623 34.4626 66.5777 34.9142 66.5777 35.488ZM75.5936 41.5299V29.0883H78.2779L78.329 30.162H78.3631C78.5904 29.8154 78.9738 29.52 79.5135 29.2757C80.0589 29.0258 80.6696 28.9008 81.3457 28.9008C82.6694 28.9008 83.7317 29.307 84.5328 30.1194C85.3395 30.9318 85.7429 32.0226 85.7429 33.3917V33.6644C85.7429 35.0279 85.3452 36.1186 84.5498 36.9367C83.7545 37.7491 82.712 38.1553 81.4224 38.1553C80.7463 38.1553 80.1441 38.053 79.6158 37.8485C79.0875 37.6383 78.6898 37.3656 78.4228 37.0304V41.5299H75.5936ZM78.4142 35.7863C78.5733 36.1385 78.8488 36.4453 79.2408 36.7066C79.6328 36.9679 80.093 37.0986 80.6213 37.0986C81.3769 37.0986 81.9365 36.8004 82.3001 36.2038C82.6694 35.6073 82.854 34.8063 82.854 33.8007V33.2639C82.854 32.2583 82.6722 31.4601 82.3086 30.8693C81.945 30.2728 81.3798 29.9745 80.6128 29.9745C80.0674 29.9745 79.6073 30.1023 79.2323 30.358C78.8574 30.608 78.5847 30.9034 78.4142 31.2442V35.7863ZM87.4387 41.5299V29.0883H90.123L90.1741 30.162H90.2082C90.4354 29.8154 90.8189 29.52 91.3586 29.2757C91.904 29.0258 92.5147 28.9008 93.1908 28.9008C94.5145 28.9008 95.5768 29.307 96.3779 30.1194C97.1846 30.9318 97.5879 32.0226 97.5879 33.3917V33.6644C97.5879 35.0279 97.1903 36.1186 96.3949 36.9367C95.5996 37.7491 94.5571 38.1553 93.2675 38.1553C92.5914 38.1553 91.9892 38.053 91.4609 37.8485C90.9325 37.6383 90.5349 37.3656 90.2678 37.0304V41.5299H87.4387ZM90.2593 35.7863C90.4184 36.1385 90.6939 36.4453 91.0859 36.7066C91.4779 36.9679 91.9381 37.0986 92.4664 37.0986C93.222 37.0986 93.7816 36.8004 94.1452 36.2038C94.5145 35.6073 94.6991 34.8063 94.6991 33.8007V33.2639C94.6991 32.2583 94.5173 31.4601 94.1537 30.8693C93.7901 30.2728 93.2249 29.9745 92.4579 29.9745C91.9125 29.9745 91.4524 30.1023 91.0774 30.358C90.7025 30.608 90.4298 30.9034 90.2593 31.2442V35.7863ZM99.3178 37.9849V29.0883H102.156V37.9849H99.3178ZM99.1218 26.5914C99.1218 26.2108 99.261 25.8898 99.5394 25.6285C99.8178 25.3672 100.218 25.2365 100.741 25.2365C101.258 25.2365 101.656 25.3672 101.934 25.6285C102.212 25.8898 102.352 26.208 102.352 26.5829C102.352 26.9692 102.21 27.2959 101.925 27.5629C101.647 27.8242 101.249 27.9549 100.732 27.9549C100.215 27.9549 99.8178 27.8242 99.5394 27.5629C99.261 27.2959 99.1218 26.9721 99.1218 26.5914ZM104.363 37.9849V29.0883H107.081L107.132 30.2387H107.166C107.462 29.8467 107.876 29.5257 108.41 29.2757C108.95 29.0258 109.549 28.9008 110.208 28.9008C111.277 28.9008 112.14 29.1763 112.799 29.7274C113.464 30.2728 113.796 31.071 113.796 32.122V37.9849H110.967V32.0879C110.967 31.3948 110.819 30.8693 110.524 30.5114C110.234 30.1535 109.819 29.9745 109.28 29.9745C108.831 29.9745 108.422 30.0967 108.053 30.341C107.689 30.5852 107.405 30.9147 107.2 31.3295V37.9849H104.363ZM115.407 33.6644V33.3917C115.407 32.0169 115.884 30.9119 116.838 30.0768C117.793 29.2417 119.02 28.8241 120.52 28.8241C122.037 28.8241 123.221 29.2161 124.073 30.0001C124.925 30.7841 125.351 31.8663 125.351 33.2468V33.7155H117.333V33.0253H122.531V32.9741C122.536 32.122 122.394 31.3834 122.105 30.7585C121.815 30.1279 121.253 29.8126 120.417 29.8126C119.719 29.8126 119.173 30.1222 118.781 30.7415C118.395 31.3607 118.202 32.1958 118.202 33.2468V33.7837C118.202 34.8347 118.409 35.6698 118.824 36.2891C119.239 36.9026 119.864 37.2094 120.699 37.2094C121.255 37.2094 121.741 37.0219 122.156 36.647C122.571 36.272 122.897 35.7863 123.136 35.1898L125.13 36.3317C124.817 36.9168 124.275 37.3827 123.502 37.7292C122.73 38.0701 121.809 38.2405 120.741 38.2405C119.071 38.2405 117.764 37.823 116.821 36.9878C115.878 36.1527 115.407 35.0449 115.407 33.6644ZM126.374 35.1472L129.135 35.1557V35.8374C129.135 36.2919 129.317 36.6612 129.68 36.9452C130.044 37.2236 130.598 37.3628 131.342 37.3628C132.024 37.3628 132.538 37.2435 132.885 37.0049C133.231 36.7606 133.402 36.4112 133.396 35.9567C133.39 35.5363 133.194 35.2352 132.808 35.0534C132.427 34.8659 131.558 34.6529 130.2 34.4143C128.933 34.2041 128.03 33.8746 127.49 33.4258C126.951 32.9713 126.681 32.3748 126.681 31.6362C126.681 30.75 127.076 30.0597 127.865 29.5655C128.661 29.0712 129.737 28.8241 131.095 28.8241C132.447 28.8241 133.527 29.0883 134.333 29.6166C135.14 30.1393 135.543 30.838 135.543 31.7129V31.8493H132.791V31.1761C132.791 30.7045 132.623 30.341 132.288 30.0853C131.953 29.8297 131.493 29.7018 130.908 29.7018C130.334 29.7018 129.859 29.787 129.484 29.9575C129.115 30.1222 128.931 30.4574 128.931 30.963C128.931 31.3834 129.169 31.6874 129.646 31.8748C130.124 32.0566 130.956 32.247 132.143 32.4458C133.421 32.6503 134.336 32.977 134.887 33.4258C135.438 33.8689 135.714 34.4768 135.714 35.2494C135.714 36.2038 135.322 36.9424 134.538 37.465C133.754 37.982 132.601 38.2405 131.078 38.2405C129.578 38.2405 128.419 37.982 127.601 37.465C126.783 36.9481 126.374 36.218 126.374 35.275V35.1472ZM136.856 35.1472L139.617 35.1557V35.8374C139.617 36.2919 139.798 36.6612 140.162 36.9452C140.526 37.2236 141.08 37.3628 141.824 37.3628C142.506 37.3628 143.02 37.2435 143.366 37.0049C143.713 36.7606 143.883 36.4112 143.877 35.9567C143.872 35.5363 143.676 35.2352 143.29 35.0534C142.909 34.8659 142.04 34.6529 140.682 34.4143C139.415 34.2041 138.512 33.8746 137.972 33.4258C137.432 32.9713 137.162 32.3748 137.162 31.6362C137.162 30.75 137.557 30.0597 138.347 29.5655C139.142 29.0712 140.219 28.8241 141.577 28.8241C142.929 28.8241 144.008 29.0883 144.815 29.6166C145.622 30.1393 146.025 30.838 146.025 31.7129V31.8493H143.272V31.1761C143.272 30.7045 143.105 30.341 142.77 30.0853C142.434 29.8297 141.974 29.7018 141.389 29.7018C140.815 29.7018 140.341 29.787 139.966 29.9575C139.597 30.1222 139.412 30.4574 139.412 30.963C139.412 31.3834 139.651 31.6874 140.128 31.8748C140.605 32.0566 141.437 32.247 142.625 32.4458C143.903 32.6503 144.818 32.977 145.369 33.4258C145.92 33.8689 146.195 34.4768 146.195 35.2494C146.195 36.2038 145.803 36.9424 145.019 37.465C144.235 37.982 143.082 38.2405 141.56 38.2405C140.06 38.2405 138.901 37.982 138.083 37.465C137.265 36.9481 136.856 36.218 136.856 35.275V35.1472Z" fill="black"/>
</svg>
