<svg width="136" height="136" viewBox="0 0 136 136" fill="none" xmlns="http://www.w3.org/2000/svg">
<path d="M5.41118 0H0V5.41118H5.41118V0Z" fill="white"/>
<path d="M10.8224 0H5.41118V5.41118H10.8224V0Z" fill="white"/>
<path d="M16.2335 0H10.8224V5.41118H16.2335V0Z" fill="white"/>
<path d="M21.6447 0H16.2335V5.41118H21.6447V0Z" fill="white"/>
<path d="M27.0559 0H21.6447V5.41118H27.0559V0Z" fill="white"/>
<path d="M32.4671 0H27.0559V5.41118H32.4671V0Z" fill="white"/>
<path d="M37.8782 0H32.4671V5.41118H37.8782V0Z" fill="white"/>
<path d="M48.7006 0H43.2894V5.41118H48.7006V0Z" fill="white"/>
<path d="M54.1118 0H48.7006V5.41118H54.1118V0Z" fill="white"/>
<path d="M64.9341 0H59.5229V5.41118H64.9341V0Z" fill="white"/>
<path d="M70.3453 0H64.9341V5.41118H70.3453V0Z" fill="white"/>
<path d="M75.7565 0H70.3453V5.41118H75.7565V0Z" fill="white"/>
<path d="M81.1676 0H75.7565V5.41118H81.1676V0Z" fill="white"/>
<path d="M86.5788 0H81.1676V5.41118H86.5788V0Z" fill="white"/>
<path d="M91.99 0H86.5788V5.41118H91.99V0Z" fill="white"/>
<path d="M102.812 0H97.4012V5.41118H102.812V0Z" fill="white"/>
<path d="M108.224 0H102.812V5.41118H108.224V0Z" fill="white"/>
<path d="M113.635 0H108.224V5.41118H113.635V0Z" fill="white"/>
<path d="M119.046 0H113.635V5.41118H119.046V0Z" fill="white"/>
<path d="M124.457 0H119.046V5.41118H124.457V0Z" fill="white"/>
<path d="M129.868 0H124.457V5.41118H129.868V0Z" fill="white"/>
<path d="M135.279 0H129.868V5.41118H135.279V0Z" fill="white"/>
<path d="M5.41118 5.41118H0V10.8224H5.41118V5.41118Z" fill="white"/>
<path d="M37.8782 5.41118H32.4671L32.4671 10.8224H37.8782V5.41118Z" fill="white"/>
<path d="M54.1118 5.41118H48.7006V10.8224H54.1118V5.41118Z" fill="white"/>
<path d="M59.5229 5.41118H54.1118V10.8224H59.5229V5.41118Z" fill="white"/>
<path d="M64.9341 5.41118H59.5229V10.8224H64.9341V5.41118Z" fill="white"/>
<path d="M81.1676 5.41118H75.7565V10.8224H81.1676V5.41118Z" fill="white"/>
<path d="M102.812 5.41118H97.4012V10.8224H102.812V5.41118Z" fill="white"/>
<path d="M135.279 5.41118H129.868V10.8224H135.279V5.41118Z" fill="white"/>
<path d="M5.41118 10.8224H0V16.2335H5.41118V10.8224Z" fill="white"/>
<path d="M16.2335 10.8224H10.8224V16.2335H16.2335V10.8224Z" fill="white"/>
<path d="M21.6447 10.8224H16.2335V16.2335H21.6447V10.8224Z" fill="white"/>
<path d="M27.0559 10.8224H21.6447V16.2335H27.0559V10.8224Z" fill="white"/>
<path d="M37.8782 10.8224H32.4671V16.2335H37.8782V10.8224Z" fill="white"/>
<path d="M64.9341 10.8224H59.5229V16.2335H64.9341V10.8224Z" fill="white"/>
<path d="M70.3453 10.8224H64.9341V16.2335H70.3453V10.8224Z" fill="white"/>
<path d="M75.7565 10.8224H70.3453V16.2335H75.7565V10.8224Z" fill="white"/>
<path d="M81.1676 10.8224H75.7565V16.2335H81.1676V10.8224Z" fill="white"/>
<path d="M91.99 10.8224H86.5788V16.2335H91.99V10.8224Z" fill="white"/>
<path d="M102.812 10.8224H97.4012V16.2335H102.812V10.8224Z" fill="white"/>
<path d="M113.635 10.8224H108.224V16.2335H113.635V10.8224Z" fill="white"/>
<path d="M119.046 10.8224H113.635V16.2335H119.046V10.8224Z" fill="white"/>
<path d="M124.457 10.8224H119.046V16.2335H124.457V10.8224Z" fill="white"/>
<path d="M135.279 10.8224H129.868V16.2335H135.279V10.8224Z" fill="white"/>
<path d="M5.41118 16.2335H0V21.6447H5.41118V16.2335Z" fill="white"/>
<path d="M16.2335 16.2335H10.8224V21.6447H16.2335V16.2335Z" fill="white"/>
<path d="M21.6447 16.2335H16.2335V21.6447H21.6447V16.2335Z" fill="white"/>
<path d="M27.0559 16.2335H21.6447V21.6447H27.0559V16.2335Z" fill="white"/>
<path d="M37.8782 16.2335H32.4671V21.6447H37.8782V16.2335Z" fill="white"/>
<path d="M48.7006 16.2335H43.2894V21.6447H48.7006V16.2335Z" fill="white"/>
<path d="M59.5229 16.2335H54.1118V21.6447H59.5229V16.2335Z" fill="white"/>
<path d="M64.9341 16.2335H59.5229V21.6447H64.9341V16.2335Z" fill="white"/>
<path d="M75.7565 16.2335H70.3453V21.6447H75.7565V16.2335Z" fill="white"/>
<path d="M81.1676 16.2335H75.7565V21.6447H81.1676V16.2335Z" fill="white"/>
<path d="M102.812 16.2335H97.4012V21.6447H102.812V16.2335Z" fill="white"/>
<path d="M113.635 16.2335H108.224V21.6447H113.635V16.2335Z" fill="white"/>
<path d="M119.046 16.2335H113.635V21.6447H119.046V16.2335Z" fill="white"/>
<path d="M124.457 16.2335H119.046V21.6447H124.457V16.2335Z" fill="white"/>
<path d="M135.279 16.2335H129.868V21.6447H135.279V16.2335Z" fill="white"/>
<path d="M5.41118 21.6447H0V27.0559H5.41118V21.6447Z" fill="white"/>
<path d="M16.2335 21.6447H10.8224V27.0559H16.2335V21.6447Z" fill="white"/>
<path d="M21.6447 21.6447H16.2335V27.0559H21.6447V21.6447Z" fill="white"/>
<path d="M27.0559 21.6447H21.6447V27.0559H27.0559V21.6447Z" fill="white"/>
<path d="M37.8782 21.6447H32.4671V27.0559H37.8782V21.6447Z" fill="white"/>
<path d="M48.7006 21.6447H43.2894V27.0559H48.7006V21.6447Z" fill="white"/>
<path d="M54.1118 21.6447H48.7006V27.0559H54.1118V21.6447Z" fill="white"/>
<path d="M64.9341 21.6447H59.5229V27.0559H64.9341V21.6447Z" fill="white"/>
<path d="M70.3453 21.6447H64.9341V27.0559H70.3453V21.6447Z" fill="white"/>
<path d="M75.7565 21.6447H70.3453V27.0559H75.7565V21.6447Z" fill="white"/>
<path d="M81.1676 21.6447H75.7565V27.0559H81.1676V21.6447Z" fill="white"/>
<path d="M86.5788 21.6447H81.1676V27.0559H86.5788V21.6447Z" fill="white"/>
<path d="M91.99 21.6447H86.5788V27.0559H91.99V21.6447Z" fill="white"/>
<path d="M102.812 21.6447H97.4012V27.0559H102.812V21.6447Z" fill="white"/>
<path d="M113.635 21.6447H108.224V27.0559H113.635V21.6447Z" fill="white"/>
<path d="M119.046 21.6447H113.635V27.0559H119.046V21.6447Z" fill="white"/>
<path d="M124.457 21.6447H119.046V27.0559H124.457V21.6447Z" fill="white"/>
<path d="M135.279 21.6447H129.868V27.0559H135.279V21.6447Z" fill="white"/>
<path d="M5.41118 27.0559H0V32.4671H5.41118V27.0559Z" fill="white"/>
<path d="M37.8782 27.0559H32.4671V32.4671H37.8782V27.0559Z" fill="white"/>
<path d="M48.7006 27.0559H43.2894V32.4671H48.7006V27.0559Z" fill="white"/>
<path d="M59.5229 27.0559H54.1118V32.4671H59.5229V27.0559Z" fill="white"/>
<path d="M75.7565 27.0559H70.3453V32.4671H75.7565V27.0559Z" fill="white"/>
<path d="M81.1676 27.0559H75.7565V32.4671H81.1676V27.0559Z" fill="white"/>
<path d="M102.812 27.0559H97.4012V32.4671H102.812V27.0559Z" fill="white"/>
<path d="M135.279 27.0559H129.868V32.4671H135.279V27.0559Z" fill="white"/>
<path d="M5.41118 32.4671H0V37.8782H5.41118V32.4671Z" fill="white"/>
<path d="M10.8224 32.4671L5.41118 32.4671V37.8782H10.8224V32.4671Z" fill="white"/>
<path d="M16.2335 32.4671H10.8224V37.8782H16.2335V32.4671Z" fill="white"/>
<path d="M21.6447 32.4671H16.2335V37.8782H21.6447V32.4671Z" fill="white"/>
<path d="M27.0559 32.4671H21.6447V37.8782H27.0559V32.4671Z" fill="white"/>
<path d="M32.4671 32.4671L27.0559 32.4671V37.8782H32.4671L32.4671 32.4671Z" fill="white"/>
<path d="M37.8782 32.4671H32.4671L32.4671 37.8782H37.8782V32.4671Z" fill="white"/>
<path d="M48.7006 32.4671H43.2894V37.8782H48.7006V32.4671Z" fill="white"/>
<path d="M59.5229 32.4671H54.1118V37.8782H59.5229V32.4671Z" fill="white"/>
<path d="M70.3453 32.4671L64.9341 32.4671V37.8782H70.3453V32.4671Z" fill="white"/>
<path d="M81.1676 32.4671H75.7565V37.8782H81.1676V32.4671Z" fill="white"/>
<path d="M91.99 32.4671H86.5788V37.8782H91.99V32.4671Z" fill="white"/>
<path d="M102.812 32.4671H97.4012V37.8782H102.812V32.4671Z" fill="white"/>
<path d="M108.224 32.4671L102.812 32.4671V37.8782H108.224V32.4671Z" fill="white"/>
<path d="M113.635 32.4671H108.224V37.8782H113.635V32.4671Z" fill="white"/>
<path d="M119.046 32.4671H113.635V37.8782H119.046V32.4671Z" fill="white"/>
<path d="M124.457 32.4671H119.046V37.8782H124.457V32.4671Z" fill="white"/>
<path d="M129.868 32.4671L124.457 32.4671V37.8782H129.868V32.4671Z" fill="white"/>
<path d="M135.279 32.4671H129.868V37.8782H135.279V32.4671Z" fill="white"/>
<path d="M48.7006 37.8782H43.2894V43.2894H48.7006V37.8782Z" fill="white"/>
<path d="M59.5229 37.8782H54.1118V43.2894H59.5229V37.8782Z" fill="white"/>
<path d="M64.9341 37.8782H59.5229V43.2894H64.9341V37.8782Z" fill="white"/>
<path d="M70.3453 37.8782H64.9341V43.2894H70.3453V37.8782Z" fill="white"/>
<path d="M75.7565 37.8782H70.3453V43.2894H75.7565V37.8782Z" fill="white"/>
<path d="M81.1676 37.8782H75.7565V43.2894H81.1676V37.8782Z" fill="white"/>
<path d="M86.5788 37.8782H81.1676V43.2894H86.5788V37.8782Z" fill="white"/>
<path d="M5.41118 43.2894H0V48.7006H5.41118V43.2894Z" fill="white"/>
<path d="M10.8224 43.2894H5.41118V48.7006H10.8224V43.2894Z" fill="white"/>
<path d="M16.2335 43.2894H10.8224V48.7006H16.2335V43.2894Z" fill="white"/>
<path d="M27.0559 43.2894H21.6447V48.7006H27.0559V43.2894Z" fill="white"/>
<path d="M37.8782 43.2894H32.4671V48.7006H37.8782V43.2894Z" fill="white"/>
<path d="M48.7006 43.2894H43.2894V48.7006H48.7006V43.2894Z" fill="white"/>
<path d="M59.5229 43.2894H54.1118V48.7006H59.5229V43.2894Z" fill="white"/>
<path d="M70.3453 43.2894H64.9341V48.7006H70.3453V43.2894Z" fill="white"/>
<path d="M75.7565 43.2894H70.3453V48.7006H75.7565V43.2894Z" fill="white"/>
<path d="M86.5788 43.2894H81.1676L81.1677 48.7006H86.5788V43.2894Z" fill="white"/>
<path d="M91.99 43.2894H86.5788V48.7006H91.99V43.2894Z" fill="white"/>
<path d="M97.4012 43.2894H91.99V48.7006H97.4012V43.2894Z" fill="white"/>
<path d="M102.812 43.2894H97.4012V48.7006H102.812V43.2894Z" fill="white"/>
<path d="M108.224 43.2894H102.812V48.7006H108.224V43.2894Z" fill="white"/>
<path d="M113.635 43.2894H108.224V48.7006H113.635V43.2894Z" fill="white"/>
<path d="M119.046 43.2894H113.635V48.7006H119.046V43.2894Z" fill="white"/>
<path d="M135.279 43.2894H129.868V48.7006H135.279V43.2894Z" fill="white"/>
<path d="M5.41118 48.7006H0V54.1118H5.41118V48.7006Z" fill="white"/>
<path d="M16.2335 48.7006H10.8224V54.1118H16.2335V48.7006Z" fill="white"/>
<path d="M43.2894 48.7006H37.8782V54.1118H43.2894V48.7006Z" fill="white"/>
<path d="M48.7006 48.7006H43.2894V54.1118H48.7006V48.7006Z" fill="white"/>
<path d="M64.9341 48.7006H59.5229V54.1118H64.9341V48.7006Z" fill="white"/>
<path d="M75.7565 48.7006H70.3453V54.1118H75.7565V48.7006Z" fill="white"/>
<path d="M97.4012 48.7006H91.99V54.1118H97.4012V48.7006Z" fill="white"/>
<path d="M108.224 48.7006H102.812V54.1118H108.224V48.7006Z" fill="white"/>
<path d="M124.457 48.7006H119.046V54.1118H124.457V48.7006Z" fill="white"/>
<path d="M135.279 48.7006H129.868V54.1118H135.279V48.7006Z" fill="white"/>
<path d="M5.41118 54.1118H0V59.5229H5.41118V54.1118Z" fill="white"/>
<path d="M10.8224 54.1118H5.41118V59.5229H10.8224V54.1118Z" fill="white"/>
<path d="M37.8782 54.1118H32.4671V59.5229H37.8782V54.1118Z" fill="white"/>
<path d="M48.7006 54.1118H43.2894V59.5229H48.7006V54.1118Z" fill="white"/>
<path d="M54.1118 54.1118H48.7006V59.5229H54.1118V54.1118Z" fill="white"/>
<path d="M59.5229 54.1118H54.1118V59.5229H59.5229V54.1118Z" fill="white"/>
<path d="M64.9341 54.1118H59.5229V59.5229H64.9341V54.1118Z" fill="white"/>
<path d="M70.3453 54.1118H64.9341V59.5229H70.3453V54.1118Z" fill="white"/>
<path d="M91.99 54.1118H86.5788V59.5229H91.99V54.1118Z" fill="white"/>
<path d="M97.4012 54.1118H91.99V59.5229H97.4012V54.1118Z" fill="white"/>
<path d="M108.224 54.1118H102.812V59.5229H108.224V54.1118Z" fill="white"/>
<path d="M113.635 54.1118H108.224V59.5229H113.635V54.1118Z" fill="white"/>
<path d="M119.046 54.1118H113.635V59.5229H119.046V54.1118Z" fill="white"/>
<path d="M124.457 54.1118H119.046V59.5229H124.457V54.1118Z" fill="white"/>
<path d="M5.41118 59.5229H0V64.9341H5.41118V59.5229Z" fill="white"/>
<path d="M10.8224 59.5229H5.41118V64.9341H10.8224V59.5229Z" fill="white"/>
<path d="M16.2335 59.5229H10.8224V64.9341H16.2335V59.5229Z" fill="white"/>
<path d="M21.6447 59.5229H16.2335V64.9341H21.6447V59.5229Z" fill="white"/>
<path d="M27.0559 59.5229H21.6447V64.9341H27.0559V59.5229Z" fill="white"/>
<path d="M43.2894 59.5229H37.8782V64.9341H43.2894V59.5229Z" fill="white"/>
<path d="M81.1676 59.5229H75.7565V64.9341H81.1676V59.5229Z" fill="white"/>
<path d="M86.5788 59.5229H81.1676V64.9341H86.5788V59.5229Z" fill="white"/>
<path d="M97.4012 59.5229H91.99V64.9341H97.4012V59.5229Z" fill="white"/>
<path d="M102.812 59.5229H97.4012V64.9341H102.812V59.5229Z" fill="white"/>
<path d="M10.8224 64.9341H5.41118V70.3453H10.8224V64.9341Z" fill="white"/>
<path d="M32.4671 64.9341H27.0559V70.3453H32.4671V64.9341Z" fill="white"/>
<path d="M37.8782 64.9341H32.4671V70.3453H37.8782V64.9341Z" fill="white"/>
<path d="M43.2894 64.9341H37.8782V70.3453H43.2894V64.9341Z" fill="white"/>
<path d="M64.9341 64.9341H59.5229V70.3453H64.9341V64.9341Z" fill="white"/>
<path d="M70.3453 64.9341H64.9341V70.3453H70.3453V64.9341Z" fill="white"/>
<path d="M81.1676 64.9341H75.7565V70.3453H81.1676V64.9341Z" fill="white"/>
<path d="M97.4012 64.9341H91.99V70.3453H97.4012V64.9341Z" fill="white"/>
<path d="M108.224 64.9341H102.812V70.3453H108.224V64.9341Z" fill="white"/>
<path d="M113.635 64.9341H108.224V70.3453H113.635V64.9341Z" fill="white"/>
<path d="M124.457 64.9341H119.046V70.3453H124.457V64.9341Z" fill="white"/>
<path d="M5.41118 70.3453H0V75.7565H5.41118V70.3453Z" fill="white"/>
<path d="M16.2335 70.3453H10.8224V75.7565H16.2335V70.3453Z" fill="white"/>
<path d="M21.6447 70.3453H16.2335V75.7565H21.6447V70.3453Z" fill="white"/>
<path d="M32.4671 70.3453H27.0559V75.7565H32.4671V70.3453Z" fill="white"/>
<path d="M43.2894 70.3453H37.8782V75.7565H43.2894V70.3453Z" fill="white"/>
<path d="M54.1118 70.3453H48.7006V75.7565H54.1118V70.3453Z" fill="white"/>
<path d="M81.1676 70.3453H75.7565V75.7565H81.1676V70.3453Z" fill="white"/>
<path d="M97.4012 70.3453H91.99V75.7565H97.4012V70.3453Z" fill="white"/>
<path d="M113.635 70.3453H108.224V75.7565H113.635V70.3453Z" fill="white"/>
<path d="M135.279 70.3453H129.868V75.7565H135.279V70.3453Z" fill="white"/>
<path d="M10.8224 75.7565H5.41118V81.1676H10.8224V75.7565Z" fill="white"/>
<path d="M16.2335 75.7565H10.8224V81.1676H16.2335V75.7565Z" fill="white"/>
<path d="M21.6447 75.7565H16.2335V81.1676H21.6447V75.7565Z" fill="white"/>
<path d="M32.4671 75.7565H27.0559V81.1676H32.4671V75.7565Z" fill="white"/>
<path d="M37.8782 75.7565H32.4671V81.1676H37.8782V75.7565Z" fill="white"/>
<path d="M59.5229 75.7565H54.1118V81.1676H59.5229V75.7565Z" fill="white"/>
<path d="M70.3453 75.7565H64.9341V81.1676H70.3453V75.7565Z" fill="white"/>
<path d="M91.99 75.7565H86.5788V81.1676H91.99V75.7565Z" fill="white"/>
<path d="M108.224 75.7565H102.812V81.1676H108.224V75.7565Z" fill="white"/>
<path d="M113.635 75.7565H108.224V81.1676H113.635V75.7565Z" fill="white"/>
<path d="M119.046 75.7565H113.635V81.1676H119.046V75.7565Z" fill="white"/>
<path d="M124.457 75.7565H119.046V81.1676H124.457V75.7565Z" fill="white"/>
<path d="M129.868 75.7565H124.457V81.1676H129.868V75.7565Z" fill="white"/>
<path d="M135.279 75.7565H129.868V81.1676H135.279V75.7565Z" fill="white"/>
<path d="M16.2335 81.1676H10.8224V86.5788H16.2335V81.1676Z" fill="white"/>
<path d="M21.6447 81.1676H16.2335V86.5788H21.6447V81.1676Z" fill="white"/>
<path d="M48.7006 81.1677H43.2894V86.5788H48.7006V81.1677Z" fill="white"/>
<path d="M54.1118 81.1676L48.7006 81.1677V86.5788H54.1118V81.1676Z" fill="white"/>
<path d="M59.5229 81.1676H54.1118V86.5788H59.5229V81.1676Z" fill="white"/>
<path d="M64.9341 81.1676H59.5229V86.5788H64.9341V81.1676Z" fill="white"/>
<path d="M75.7565 81.1677L70.3453 81.1676V86.5788H75.7565V81.1677Z" fill="white"/>
<path d="M81.1676 81.1677H75.7565V86.5788H81.1676V81.1677Z" fill="white"/>
<path d="M86.5788 81.1676L81.1676 81.1677V86.5788H86.5788V81.1676Z" fill="white"/>
<path d="M91.99 81.1676H86.5788V86.5788H91.99V81.1676Z" fill="white"/>
<path d="M97.4012 81.1677L91.99 81.1676V86.5788H97.4012V81.1677Z" fill="white"/>
<path d="M108.224 81.1676H102.812V86.5788H108.224V81.1676Z" fill="white"/>
<path d="M113.635 81.1676H108.224V86.5788H113.635V81.1676Z" fill="white"/>
<path d="M119.046 81.1676H113.635V86.5788H119.046V81.1676Z" fill="white"/>
<path d="M135.279 81.1676H129.868V86.5788H135.279V81.1676Z" fill="white"/>
<path d="M5.41118 86.5788H0V91.99H5.41118V86.5788Z" fill="white"/>
<path d="M21.6447 86.5788H16.2335V91.99H21.6447V86.5788Z" fill="white"/>
<path d="M27.0559 86.5788H21.6447V91.99H27.0559V86.5788Z" fill="white"/>
<path d="M37.8782 86.5788H32.4671V91.99H37.8782V86.5788Z" fill="white"/>
<path d="M43.2894 86.5788H37.8782V91.99H43.2894V86.5788Z" fill="white"/>
<path d="M59.5229 86.5788H54.1118V91.99H59.5229V86.5788Z" fill="white"/>
<path d="M70.3453 86.5788H64.9341V91.99H70.3453V86.5788Z" fill="white"/>
<path d="M75.7565 86.5788H70.3453V91.99H75.7565V86.5788Z" fill="white"/>
<path d="M86.5788 86.5788H81.1676L81.1677 91.99H86.5788V86.5788Z" fill="white"/>
<path d="M91.99 86.5788H86.5788V91.99H91.99V86.5788Z" fill="white"/>
<path d="M97.4012 86.5788H91.99V91.99H97.4012V86.5788Z" fill="white"/>
<path d="M102.812 86.5788H97.4012V91.99H102.812V86.5788Z" fill="white"/>
<path d="M108.224 86.5788H102.812V91.99H108.224V86.5788Z" fill="white"/>
<path d="M113.635 86.5788H108.224V91.99H113.635V86.5788Z" fill="white"/>
<path d="M124.457 86.5788H119.046V91.99H124.457V86.5788Z" fill="white"/>
<path d="M135.279 86.5788H129.868V91.99H135.279V86.5788Z" fill="white"/>
<path d="M48.7006 91.99H43.2894V97.4012H48.7006V91.99Z" fill="white"/>
<path d="M64.9341 91.99H59.5229V97.4012H64.9341V91.99Z" fill="white"/>
<path d="M81.1677 91.99H75.7565V97.4012H81.1676L81.1677 91.99Z" fill="white"/>
<path d="M86.5788 91.99H81.1677L81.1676 97.4012H86.5788V91.99Z" fill="white"/>
<path d="M91.99 91.99H86.5788V97.4012H91.99V91.99Z" fill="white"/>
<path d="M113.635 91.99H108.224V97.4012H113.635V91.99Z" fill="white"/>
<path d="M119.046 91.99H113.635V97.4012H119.046V91.99Z" fill="white"/>
<path d="M124.457 91.99H119.046V97.4012H124.457V91.99Z" fill="white"/>
<path d="M5.41118 97.4012H0V102.812H5.41118V97.4012Z" fill="white"/>
<path d="M10.8224 97.4012H5.41118V102.812H10.8224V97.4012Z" fill="white"/>
<path d="M16.2335 97.4012H10.8224V102.812H16.2335V97.4012Z" fill="white"/>
<path d="M21.6447 97.4012H16.2335V102.812H21.6447V97.4012Z" fill="white"/>
<path d="M27.0559 97.4012H21.6447V102.812H27.0559V97.4012Z" fill="white"/>
<path d="M32.4671 97.4012H27.0559V102.812H32.4671V97.4012Z" fill="white"/>
<path d="M37.8782 97.4012H32.4671V102.812H37.8782V97.4012Z" fill="white"/>
<path d="M70.3453 97.4012H64.9341V102.812H70.3453V97.4012Z" fill="white"/>
<path d="M86.5788 97.4012H81.1676L81.1677 102.812H86.5788V97.4012Z" fill="white"/>
<path d="M91.99 97.4012H86.5788V102.812H91.99V97.4012Z" fill="white"/>
<path d="M102.812 97.4012H97.4012V102.812H102.812V97.4012Z" fill="white"/>
<path d="M113.635 97.4012H108.224V102.812H113.635V97.4012Z" fill="white"/>
<path d="M119.046 97.4012H113.635V102.812H119.046V97.4012Z" fill="white"/>
<path d="M129.868 97.4012H124.457V102.812H129.868V97.4012Z" fill="white"/>
<path d="M135.279 97.4012H129.868V102.812H135.279V97.4012Z" fill="white"/>
<path d="M5.41118 102.812H0V108.224H5.41118V102.812Z" fill="white"/>
<path d="M37.8782 102.812H32.4671L32.4671 108.224H37.8782V102.812Z" fill="white"/>
<path d="M64.9341 102.812H59.5229V108.224H64.9341V102.812Z" fill="white"/>
<path d="M86.5788 102.812H81.1677V108.224H86.5788V102.812Z" fill="white"/>
<path d="M91.99 102.812H86.5788V108.224H91.99V102.812Z" fill="white"/>
<path d="M113.635 102.812H108.224V108.224H113.635V102.812Z" fill="white"/>
<path d="M129.868 102.812H124.457V108.224H129.868V102.812Z" fill="white"/>
<path d="M5.41118 108.224H0V113.635H5.41118V108.224Z" fill="white"/>
<path d="M16.2335 108.224H10.8224V113.635H16.2335V108.224Z" fill="white"/>
<path d="M21.6447 108.224H16.2335V113.635H21.6447V108.224Z" fill="white"/>
<path d="M27.0559 108.224H21.6447V113.635H27.0559V108.224Z" fill="white"/>
<path d="M37.8782 108.224H32.4671V113.635H37.8782V108.224Z" fill="white"/>
<path d="M48.7006 108.224H43.2894V113.635H48.7006V108.224Z" fill="white"/>
<path d="M54.1118 108.224H48.7006V113.635H54.1118V108.224Z" fill="white"/>
<path d="M59.5229 108.224H54.1118V113.635H59.5229V108.224Z" fill="white"/>
<path d="M75.7565 108.224H70.3453V113.635H75.7565V108.224Z" fill="white"/>
<path d="M81.1677 108.224H75.7565V113.635H81.1676L81.1677 108.224Z" fill="white"/>
<path d="M91.99 108.224H86.5788V113.635H91.99V108.224Z" fill="white"/>
<path d="M97.4012 108.224H91.99V113.635H97.4012V108.224Z" fill="white"/>
<path d="M102.812 108.224H97.4012V113.635H102.812V108.224Z" fill="white"/>
<path d="M108.224 108.224H102.812V113.635H108.224V108.224Z" fill="white"/>
<path d="M113.635 108.224H108.224V113.635H113.635V108.224Z" fill="white"/>
<path d="M124.457 108.224H119.046V113.635H124.457V108.224Z" fill="white"/>
<path d="M129.868 108.224H124.457V113.635H129.868V108.224Z" fill="white"/>
<path d="M5.41118 113.635H0V119.046H5.41118V113.635Z" fill="white"/>
<path d="M16.2335 113.635H10.8224V119.046H16.2335V113.635Z" fill="white"/>
<path d="M21.6447 113.635H16.2335V119.046H21.6447V113.635Z" fill="white"/>
<path d="M27.0559 113.635H21.6447V119.046H27.0559V113.635Z" fill="white"/>
<path d="M37.8782 113.635H32.4671V119.046H37.8782V113.635Z" fill="white"/>
<path d="M54.1118 113.635H48.7006V119.046H54.1118V113.635Z" fill="white"/>
<path d="M59.5229 113.635H54.1118V119.046H59.5229V113.635Z" fill="white"/>
<path d="M64.9341 113.635H59.5229V119.046H64.9341V113.635Z" fill="white"/>
<path d="M81.1676 113.635H75.7565V119.046H81.1676V113.635Z" fill="white"/>
<path d="M86.5788 113.635H81.1676V119.046H86.5788V113.635Z" fill="white"/>
<path d="M124.457 113.635H119.046V119.046H124.457V113.635Z" fill="white"/>
<path d="M135.279 113.635H129.868V119.046H135.279V113.635Z" fill="white"/>
<path d="M5.41118 119.046H0V124.457H5.41118V119.046Z" fill="white"/>
<path d="M16.2335 119.046H10.8224V124.457H16.2335V119.046Z" fill="white"/>
<path d="M21.6447 119.046H16.2335V124.457H21.6447V119.046Z" fill="white"/>
<path d="M27.0559 119.046H21.6447V124.457H27.0559V119.046Z" fill="white"/>
<path d="M37.8782 119.046H32.4671V124.457H37.8782V119.046Z" fill="white"/>
<path d="M48.7006 119.046H43.2894V124.457H48.7006V119.046Z" fill="white"/>
<path d="M54.1118 119.046H48.7006V124.457H54.1118V119.046Z" fill="white"/>
<path d="M64.9341 119.046H59.5229V124.457H64.9341V119.046Z" fill="white"/>
<path d="M81.1676 119.046H75.7565V124.457H81.1676V119.046Z" fill="white"/>
<path d="M86.5788 119.046H81.1676V124.457H86.5788V119.046Z" fill="white"/>
<path d="M91.99 119.046H86.5788V124.457H91.99V119.046Z" fill="white"/>
<path d="M97.4012 119.046H91.99V124.457H97.4012V119.046Z" fill="white"/>
<path d="M124.457 119.046H119.046V124.457H124.457V119.046Z" fill="white"/>
<path d="M129.868 119.046H124.457V124.457H129.868V119.046Z" fill="white"/>
<path d="M5.41118 124.457H0V129.868H5.41118V124.457Z" fill="white"/>
<path d="M37.8782 124.457H32.4671V129.868H37.8782V124.457Z" fill="white"/>
<path d="M48.7006 124.457H43.2894V129.868H48.7006V124.457Z" fill="white"/>
<path d="M54.1118 124.457H48.7006V129.868H54.1118V124.457Z" fill="white"/>
<path d="M64.9341 124.457H59.5229V129.868H64.9341V124.457Z" fill="white"/>
<path d="M75.7565 124.457H70.3453V129.868H75.7565V124.457Z" fill="white"/>
<path d="M81.1676 124.457H75.7565V129.868H81.1676V124.457Z" fill="white"/>
<path d="M91.99 124.457H86.5788V129.868H91.99V124.457Z" fill="white"/>
<path d="M97.4012 124.457H91.99V129.868H97.4012V124.457Z" fill="white"/>
<path d="M108.224 124.457H102.812V129.868H108.224V124.457Z" fill="white"/>
<path d="M113.635 124.457H108.224V129.868H113.635V124.457Z" fill="white"/>
<path d="M119.046 124.457H113.635V129.868H119.046V124.457Z" fill="white"/>
<path d="M124.457 124.457H119.046V129.868H124.457V124.457Z" fill="white"/>
<path d="M129.868 124.457H124.457V129.868H129.868V124.457Z" fill="white"/>
<path d="M5.41118 129.868H0V135.279H5.41118V129.868Z" fill="white"/>
<path d="M10.8224 129.868H5.41118V135.279H10.8224V129.868Z" fill="white"/>
<path d="M16.2335 129.868H10.8224V135.279H16.2335V129.868Z" fill="white"/>
<path d="M21.6447 129.868H16.2335V135.279H21.6447V129.868Z" fill="white"/>
<path d="M27.0559 129.868H21.6447V135.279H27.0559V129.868Z" fill="white"/>
<path d="M32.4671 129.868H27.0559V135.279H32.4671L32.4671 129.868Z" fill="white"/>
<path d="M37.8782 129.868H32.4671L32.4671 135.279H37.8782V129.868Z" fill="white"/>
<path d="M48.7006 129.868H43.2894V135.279H48.7006V129.868Z" fill="white"/>
<path d="M59.5229 129.868H54.1118V135.279H59.5229V129.868Z" fill="white"/>
<path d="M64.9341 129.868H59.5229V135.279H64.9341V129.868Z" fill="white"/>
<path d="M70.3453 129.868H64.9341V135.279H70.3453V129.868Z" fill="white"/>
<path d="M81.1676 129.868H75.7565V135.279H81.1676V129.868Z" fill="white"/>
<path d="M86.5788 129.868H81.1676V135.279H86.5788V129.868Z" fill="white"/>
<path d="M102.812 129.868H97.4012V135.279H102.812V129.868Z" fill="white"/>
<path d="M108.224 129.868H102.812V135.279H108.224V129.868Z" fill="white"/>
<path d="M113.635 129.868H108.224V135.279H113.635V129.868Z" fill="white"/>
<path d="M119.046 129.868H113.635V135.279H119.046V129.868Z" fill="white"/>
<path d="M124.457 129.868H119.046V135.279H124.457V129.868Z" fill="white"/>
<path d="M129.868 129.868H124.457V135.279H129.868V129.868Z" fill="white"/>
<path d="M135.279 129.868H129.868V135.279H135.279V129.868Z" fill="white"/>
</svg>
