<svg width="61" height="61" viewBox="0 0 61 61" fill="none" xmlns="http://www.w3.org/2000/svg">
<path fill-rule="evenodd" clip-rule="evenodd" d="M19.25 8.13489H41.75C47.9632 8.13489 53 13.1717 53 19.3849V41.8849C53 48.0981 47.9632 53.1349 41.75 53.1349H19.25C13.0368 53.1349 8 48.0981 8 41.8849V19.3849C8 13.1717 13.0368 8.13489 19.25 8.13489ZM39.5005 18.26C39.5005 16.396 40.9966 14.885 42.8421 14.885H42.9089C44.7544 14.885 46.2505 16.396 46.2505 18.26C46.2505 20.124 44.7544 21.635 42.9089 21.635H42.8421C40.9966 21.635 39.5005 20.124 39.5005 18.26ZM39.4998 29.2176C39.7775 31.0902 39.4577 33.0026 38.5858 34.6829C37.7139 36.3632 36.3344 37.7258 34.6435 38.5769C32.9526 39.428 31.0363 39.7242 29.1673 39.4235C27.2984 39.1227 25.5718 38.2403 24.2332 36.9018C22.8946 35.5632 22.0122 33.8366 21.7115 31.9676C21.4107 30.0986 21.707 28.1824 22.5581 26.4915C23.4092 24.8006 24.7717 23.4211 26.452 22.5492C28.1323 21.6773 30.0448 21.3575 31.9173 21.6351C33.8274 21.9184 35.5957 22.8084 36.9611 24.1738C38.3265 25.5392 39.2166 27.3076 39.4998 29.2176Z" fill="black"/>
</svg>
