<svg width="64" height="64" viewBox="0 0 64 64" fill="none" xmlns="http://www.w3.org/2000/svg">
<g clip-path="url(#clip0_56_1830)">
<path d="M17.5257 24.105C13.8907 24.105 10.9465 21.1608 10.9465 17.5258C10.9465 13.8907 13.8907 10.9465 17.5257 10.9465C21.1608 10.9465 24.105 13.8907 24.105 17.5258C24.105 21.1608 21.1608 24.105 17.5257 24.105ZM47.7902 24.105C44.1552 24.105 41.211 21.1608 41.211 17.5258C41.211 13.8907 44.1552 10.9465 47.7902 10.9465C51.4253 10.9465 54.3695 13.8907 54.3695 17.5258C54.3695 21.1608 51.4253 24.105 47.7902 24.105ZM5.68311 35.5118C5.68311 30.6678 9.6142 26.7367 14.4582 26.7367H17.9698C19.2775 26.7367 20.5193 27.0245 21.6378 27.5344C21.5308 28.1266 21.4815 28.7434 21.4815 29.3684C21.4815 32.51 22.8631 35.3308 25.0425 37.2635H7.43483C6.47261 37.2635 5.68311 36.474 5.68311 35.5118ZM39.0152 37.2635H38.9576C41.1452 35.3308 42.5186 32.51 42.5186 29.3684C42.5186 28.7434 42.4611 28.1348 42.3624 27.5344C43.4808 27.0163 44.7227 26.7367 46.0303 26.7367H49.542C54.3859 26.7367 58.317 30.6678 58.317 35.5118C58.317 36.4822 57.5275 37.2635 56.5653 37.2635H39.0152ZM39.8951 29.3684C39.8951 33.7271 36.3588 37.2635 32.0001 37.2635C27.6413 37.2635 24.105 33.7271 24.105 29.3684C24.105 25.0097 27.6413 21.4733 32.0001 21.4733C36.3588 21.4733 39.8951 25.0097 39.8951 29.3684ZM16.2099 50.8578C16.2099 44.8049 21.1196 39.8952 27.1725 39.8952H36.8276C42.8805 39.8952 47.7902 44.8049 47.7902 50.8578C47.7902 52.0668 46.8116 53.0537 45.5944 53.0537H18.4057C17.1968 53.0537 16.2099 52.075 16.2099 50.8578V50.8578Z" fill="black"/>
</g>
<defs>
<clipPath id="clip0_56_1830">
<rect width="52.6339" height="42.1071" fill="white" transform="translate(5.68311 10.9465)"/>
</clipPath>
</defs>
</svg>
