<svg width="60" height="61" viewBox="0 0 60 61" fill="none" xmlns="http://www.w3.org/2000/svg">
<path d="M51.6196 7.32037L32.8813 21.2375L36.3465 13.0266L51.6196 7.32037Z" fill="#E2761B" stroke="#E2761B" stroke-width="0.408351" stroke-linecap="round" stroke-linejoin="round"/>
<path d="M8.36157 7.32037L26.9491 21.3693L23.6535 13.0266L8.36157 7.32037Z" fill="#E4761B" stroke="#E4761B" stroke-width="0.408351" stroke-linecap="round" stroke-linejoin="round"/>
<path d="M44.8775 39.5803L39.887 47.2262L50.5649 50.1641L53.6346 39.7498L44.8775 39.5803Z" fill="#E4761B" stroke="#E4761B" stroke-width="0.408351" stroke-linecap="round" stroke-linejoin="round"/>
<path d="M6.38416 39.7498L9.435 50.1641L20.113 47.2262L15.1224 39.5803L6.38416 39.7498Z" fill="#E4761B" stroke="#E4761B" stroke-width="0.408351" stroke-linecap="round" stroke-linejoin="round"/>
<path d="M19.5103 26.6612L16.5348 31.1622L27.1374 31.633L26.7608 20.2394L19.5103 26.6612Z" fill="#E4761B" stroke="#E4761B" stroke-width="0.408351" stroke-linecap="round" stroke-linejoin="round"/>
<path d="M40.4708 26.6612L33.1262 20.1075L32.8813 31.633L43.4652 31.1622L40.4708 26.6612Z" fill="#E4761B" stroke="#E4761B" stroke-width="0.408351" stroke-linecap="round" stroke-linejoin="round"/>
<path d="M20.1129 47.2262L26.4783 44.1189L20.9792 39.8251L20.1129 47.2262Z" fill="#E4761B" stroke="#E4761B" stroke-width="0.408351" stroke-linecap="round" stroke-linejoin="round"/>
<path d="M33.5028 44.1189L39.887 47.2262L39.0019 39.8251L33.5028 44.1189Z" fill="#E4761B" stroke="#E4761B" stroke-width="0.408351" stroke-linecap="round" stroke-linejoin="round"/>
<path d="M39.8871 47.2262L33.5029 44.1189L34.0114 48.2809L33.9549 50.0323L39.8871 47.2262Z" fill="#D7C1B3" stroke="#D7C1B3" stroke-width="0.408351" stroke-linecap="round" stroke-linejoin="round"/>
<path d="M20.113 47.2262L26.0452 50.0323L26.0076 48.2809L26.4784 44.1189L20.113 47.2262Z" fill="#D7C1B3" stroke="#D7C1B3" stroke-width="0.408351" stroke-linecap="round" stroke-linejoin="round"/>
<path d="M26.1393 37.0755L20.8286 35.5125L24.5763 33.7987L26.1393 37.0755Z" fill="#233447" stroke="#233447" stroke-width="0.408351" stroke-linecap="round" stroke-linejoin="round"/>
<path d="M33.8418 37.0755L35.4049 33.7987L39.1714 35.5125L33.8418 37.0755Z" fill="#233447" stroke="#233447" stroke-width="0.408351" stroke-linecap="round" stroke-linejoin="round"/>
<path d="M20.113 47.2262L21.017 39.5803L15.1224 39.7498L20.113 47.2262Z" fill="#CD6116" stroke="#CD6116" stroke-width="0.408351" stroke-linecap="round" stroke-linejoin="round"/>
<path d="M38.983 39.5803L39.887 47.2262L44.8776 39.7498L38.983 39.5803Z" fill="#CD6116" stroke="#CD6116" stroke-width="0.408351" stroke-linecap="round" stroke-linejoin="round"/>
<path d="M43.4652 31.1622L32.8813 31.633L33.8606 37.0755L35.4237 33.7987L39.1902 35.5125L43.4652 31.1622Z" fill="#CD6116" stroke="#CD6116" stroke-width="0.408351" stroke-linecap="round" stroke-linejoin="round"/>
<path d="M20.8287 35.5125L24.5952 33.7987L26.1394 37.0755L27.1375 31.633L16.5349 31.1622L20.8287 35.5125Z" fill="#CD6116" stroke="#CD6116" stroke-width="0.408351" stroke-linecap="round" stroke-linejoin="round"/>
<path d="M16.5348 31.1622L20.9792 39.8251L20.8286 35.5125L16.5348 31.1622Z" fill="#E4751F" stroke="#E4751F" stroke-width="0.408351" stroke-linecap="round" stroke-linejoin="round"/>
<path d="M39.1902 35.5125L39.0018 39.8251L43.4651 31.1622L39.1902 35.5125Z" fill="#E4751F" stroke="#E4751F" stroke-width="0.408351" stroke-linecap="round" stroke-linejoin="round"/>
<path d="M27.1374 31.633L26.1393 37.0756L27.3822 43.4974L27.6647 35.0417L27.1374 31.633Z" fill="#E4751F" stroke="#E4751F" stroke-width="0.408351" stroke-linecap="round" stroke-linejoin="round"/>
<path d="M32.8813 31.633L32.3728 35.0228L32.5988 43.4974L33.8606 37.0756L32.8813 31.633Z" fill="#E4751F" stroke="#E4751F" stroke-width="0.408351" stroke-linecap="round" stroke-linejoin="round"/>
<path d="M33.8606 37.0755L32.5989 43.4974L33.5028 44.1189L39.0019 39.8251L39.1902 35.5125L33.8606 37.0755Z" fill="#F6851B" stroke="#F6851B" stroke-width="0.408351" stroke-linecap="round" stroke-linejoin="round"/>
<path d="M20.8286 35.5125L20.9793 39.8251L26.4783 44.1189L27.3823 43.4974L26.1393 37.0755L20.8286 35.5125Z" fill="#F6851B" stroke="#F6851B" stroke-width="0.408351" stroke-linecap="round" stroke-linejoin="round"/>
<path d="M33.9548 50.0322L34.0113 48.2808L33.5405 47.8665H26.4407L26.0076 48.2808L26.0452 50.0322L20.113 47.2262L22.1846 48.9211L26.3842 51.8401H33.597L37.8155 48.9211L39.887 47.2262L33.9548 50.0322Z" fill="#C0AD9E" stroke="#C0AD9E" stroke-width="0.408351" stroke-linecap="round" stroke-linejoin="round"/>
<path d="M33.5029 44.1188L32.5989 43.4974H27.3823L26.4784 44.1188L26.0076 48.2808L26.4407 47.8665H33.5405L34.0113 48.2808L33.5029 44.1188Z" fill="#161616" stroke="#161616" stroke-width="0.408351" stroke-linecap="round" stroke-linejoin="round"/>
<path d="M52.4105 22.1415L54.0113 14.4578L51.6196 7.32037L33.5028 20.7667L40.4708 26.6612L50.3201 29.5426L52.5047 27.0002L51.5631 26.3223L53.0697 24.9475L51.9021 24.0435L53.4086 22.8948L52.4105 22.1415Z" fill="#763D16" stroke="#763D16" stroke-width="0.408351" stroke-linecap="round" stroke-linejoin="round"/>
<path d="M5.98865 14.4578L7.5894 22.1415L6.57245 22.8948L8.07904 24.0435L6.93027 24.9475L8.43686 26.3223L7.49524 27.0002L9.66096 29.5426L19.5103 26.6612L26.4783 20.7667L8.36153 7.32037L5.98865 14.4578Z" fill="#763D16" stroke="#763D16" stroke-width="0.408351" stroke-linecap="round" stroke-linejoin="round"/>
<path d="M50.3201 29.5426L40.4708 26.6613L43.4651 31.1622L39.0018 39.8251L44.8775 39.7498H53.6346L50.3201 29.5426Z" fill="#F6851B" stroke="#F6851B" stroke-width="0.408351" stroke-linecap="round" stroke-linejoin="round"/>
<path d="M19.5103 26.6613L9.66099 29.5426L6.38416 39.7498H15.1224L20.9793 39.8251L16.5348 31.1622L19.5103 26.6613Z" fill="#F6851B" stroke="#F6851B" stroke-width="0.408351" stroke-linecap="round" stroke-linejoin="round"/>
<path d="M32.8813 31.633L33.5028 20.7667L36.3653 13.0266H23.6534L26.4783 20.7667L27.1374 31.633L27.3634 35.0605L27.3823 43.4974H32.5988L32.6365 35.0605L32.8813 31.633Z" fill="#F6851B" stroke="#F6851B" stroke-width="0.408351" stroke-linecap="round" stroke-linejoin="round"/>
</svg>
