<svg width="61" height="61" viewBox="0 0 61 61" fill="none" xmlns="http://www.w3.org/2000/svg">
<path d="M53.8466 9.81946C53.0098 9.10992 51.6956 9.0084 50.3368 9.55394H50.3346C48.9055 10.1274 9.8809 26.8662 8.29225 27.5501C8.0033 27.6505 5.47976 28.5921 5.7397 30.6895C5.97175 32.5804 7.99996 33.3636 8.24762 33.454L18.1689 36.851C18.8271 39.0421 21.2536 47.126 21.7902 48.8529C22.1249 49.9295 22.6704 51.3441 23.6265 51.6353C24.4655 51.9588 25.3 51.6632 25.8399 51.2393L31.9056 45.6132L41.6974 53.2496L41.9306 53.3891C42.5955 53.6836 43.2325 53.8309 43.8405 53.8309C44.3102 53.8309 44.7609 53.7427 45.1915 53.5665C46.6586 52.964 47.2454 51.5661 47.3068 51.4077L54.6208 13.3906C55.0671 11.3601 54.4468 10.3271 53.8466 9.81946ZM26.9187 38.2099L23.5718 47.1349L20.225 35.9786L45.8843 17.013L26.9187 38.2099Z" fill="black"/>
</svg>
