<svg width="69" height="20" viewBox="0 0 69 20" fill="none" xmlns="http://www.w3.org/2000/svg">
<path fill-rule="evenodd" clip-rule="evenodd" d="M6.13421 18.6163C7.31026 19.0699 8.65432 19.2967 10.1664 19.2967C11.4096 19.2967 12.5521 19.1035 13.5937 18.7171C14.6354 18.3306 15.5342 17.793 16.2902 17.1042C17.0631 16.4154 17.6595 15.5921 18.0795 14.6345C18.4995 13.6768 18.7095 12.6352 18.7095 11.5096C18.7095 11.3583 18.7011 11.0811 18.6843 10.6779C18.6843 10.2579 18.6675 9.83788 18.6339 9.41786C18.6171 8.99784 18.6003 8.69543 18.5835 8.51062L8.83072 10.2778V11.5096L13.6724 12.2325C13.64 12.4991 13.5717 12.7537 13.4677 12.9964C13.3165 13.3324 13.1065 13.6264 12.8377 13.8785C12.5857 14.1137 12.2749 14.3069 11.9053 14.4581C11.5524 14.5925 11.1576 14.6597 10.7208 14.6597C10.0824 14.6597 9.49435 14.5505 8.95673 14.3321C8.41911 14.0969 7.95709 13.7776 7.57067 13.3744C7.18425 12.9712 6.88184 12.4924 6.66343 11.938C6.44502 11.3667 6.33582 10.7535 6.33582 10.0983C6.33582 9.44306 6.43662 8.83824 6.63823 8.28382C6.85664 7.71259 7.15065 7.22537 7.52027 6.82215C7.88988 6.41894 8.3267 6.10812 8.83072 5.88971C9.33474 5.6545 9.88917 5.5369 10.494 5.5369C11.082 5.5369 11.6112 5.6125 12.0817 5.76371C12.5521 5.89811 12.9805 6.09132 13.3669 6.34333C13.7533 6.57854 14.1145 6.85575 14.4506 7.17497L17.6763 3.74762C17.1555 3.21 16.5339 2.73118 15.8114 2.31116C15.1058 1.87434 14.3078 1.52993 13.4173 1.27792C12.5437 1.02591 11.5944 0.899902 10.5696 0.899902C9.09113 0.899902 7.74708 1.12671 6.53743 1.58033C5.34458 2.03395 4.31133 2.67238 3.43769 3.49561C2.56406 4.31885 1.89203 5.29329 1.42161 6.41894C0.96799 7.52778 0.74118 8.75423 0.74118 10.0983C0.74118 11.4255 0.942789 12.652 1.34601 13.7776C1.76602 14.9033 2.37925 15.8777 3.18568 16.701C3.99212 17.5242 4.97496 18.1626 6.13421 18.6163ZM23.52 18.3138C24.7128 18.9019 26.0737 19.1959 27.6025 19.1959C29.1314 19.1959 30.4839 18.9019 31.6599 18.3138C32.8528 17.709 33.7852 16.8858 34.4572 15.8441C35.1293 14.8025 35.4653 13.6096 35.4653 12.2656V1.40392H30.0974V12.0388C30.0974 12.526 29.9882 12.9628 29.7698 13.3492C29.5514 13.7188 29.2574 14.0129 28.8878 14.2313C28.5182 14.4497 28.0898 14.5589 27.6025 14.5589C27.1489 14.5589 26.7373 14.4497 26.3677 14.2313C26.0149 14.0129 25.7377 13.7188 25.536 13.3492C25.3344 12.9628 25.2336 12.526 25.2336 12.0388V1.40392H19.7398V12.2656C19.7398 13.6096 20.0758 14.8025 20.7478 15.8441C21.4199 16.8858 22.3439 17.709 23.52 18.3138ZM36.9439 19.0447V1.40392H45.2098C46.4363 1.40392 47.5283 1.64753 48.4859 2.13476C49.4436 2.62198 50.1912 3.2856 50.7288 4.12564C51.2665 4.96567 51.5353 5.93172 51.5353 7.02376C51.5353 8.25021 51.2665 9.32546 50.7288 10.2495C50.1912 11.1735 49.4436 11.896 48.4859 12.4168L48.4335 12.4441L52.2661 19.0447H46.8478L44.1685 13.1728H43.0952L41.619 19.0447H36.9439ZM56.4711 18.3138C57.6639 18.9019 59.0248 19.1959 60.5536 19.1959C62.0825 19.1959 63.4349 18.9019 64.611 18.3138C65.8038 17.709 66.7363 16.8858 67.4083 15.8441C68.0803 14.8025 68.4164 13.6096 68.4164 12.2656V1.40392H63.0485V12.0388C63.0485 12.526 62.9393 12.9628 62.7209 13.3492C62.5025 13.7188 62.2085 14.0129 61.8389 14.2313C61.4693 14.4497 61.0408 14.5589 60.5536 14.5589C60.1 14.5589 59.6884 14.4497 59.3188 14.2313C58.966 14.0129 58.6887 13.7188 58.4871 13.3492C58.2855 12.9628 58.1847 12.526 58.1847 12.0388V1.40392H52.6909V12.2656C52.6909 13.6096 53.0269 14.8025 53.6989 15.8441C54.371 16.8858 55.295 17.709 56.4711 18.3138ZM43.6366 3.49431L43.7252 2.43156L43.8138 3.49431C43.9814 5.50606 45.5153 7.13594 47.5131 7.42532C45.5153 7.71471 43.9814 9.34459 43.8138 11.3563L43.7252 12.4191L43.6366 11.3563C43.469 9.34459 41.9351 7.71471 39.9373 7.42532C41.9351 7.13594 43.469 5.50606 43.6366 3.49431Z" fill="url(#paint0_linear_309_4795)"/>
<defs>
<linearGradient id="paint0_linear_309_4795" x1="68.4163" y1="-1.70466" x2="5.24837" y2="3.8982" gradientUnits="userSpaceOnUse">
<stop stop-color="#FFAA04"/>
<stop offset="0.802143" stop-color="#FF00D6"/>
<stop offset="1" stop-color="#416BFF"/>
</linearGradient>
</defs>
</svg>
