<svg width="229" height="46" viewBox="0 0 229 46" fill="none" xmlns="http://www.w3.org/2000/svg">
<g clip-path="url(#clip0_238_24256)">
<path d="M14.9167 19.4572L23.7674 10.6101L32.6218 19.4644L37.7688 14.3138L23.7674 0.308838L9.76611 14.3102L14.9167 19.4572Z" fill="#D2D2D2"/>
<path d="M0.978516 23.0951L6.12725 17.9464L11.276 23.0951L6.12725 28.2438L0.978516 23.0951Z" fill="#D2D2D2"/>
<path d="M14.9171 26.7314L23.7678 35.5821L32.6221 26.7278L37.7727 31.8712L37.7691 31.8748L23.7678 45.8797L9.76648 31.882L9.75928 31.8748L14.9171 26.7314Z" fill="#D2D2D2"/>
<path d="M36.2505 23.0963L41.3992 17.9476L46.548 23.0963L41.3992 28.245L36.2505 23.0963Z" fill="#D2D2D2"/>
<path d="M28.99 23.0925L23.7674 17.8663L19.9053 21.7284L19.459 22.1711L18.5448 23.0853L18.5376 23.0925L18.5448 23.1033L23.7674 28.3223L28.99 23.0961L28.9936 23.0925H28.99Z" fill="#D2D2D2"/>
<path d="M54.5815 11.3516H65.7826C68.5613 11.3516 70.6633 12.0714 72.0886 13.5112C72.6256 14.043 73.0489 14.6784 73.3329 15.3788C73.6169 16.0791 73.7557 16.8299 73.7407 17.5856V17.654C73.7504 18.273 73.6641 18.8898 73.4851 19.4824C73.3257 19.9926 73.0942 20.4774 72.7977 20.9221C72.5212 21.3415 72.1868 21.7196 71.8043 22.0451C71.4305 22.3668 71.0211 22.6446 70.5841 22.873C71.8444 23.312 72.9777 24.0535 73.8847 25.0326C74.6861 25.9444 75.0868 27.2041 75.0868 28.8118V28.8802C75.1096 29.8843 74.8911 30.8791 74.4498 31.7813C74.0221 32.6125 73.3951 33.3248 72.6249 33.8545C71.7541 34.4382 70.7846 34.859 69.7635 35.0962C68.5502 35.3839 67.3065 35.5229 66.0598 35.5102H54.5815V11.3516ZM64.6596 21.1201C65.6287 21.1669 66.5931 20.9584 67.4563 20.5154C67.7929 20.3188 68.0677 20.0318 68.2497 19.6871C68.4316 19.3423 68.5134 18.9534 68.4857 18.5646V18.4962C68.5035 18.1379 68.4307 17.7809 68.2741 17.4582C68.1174 17.1355 67.882 16.8574 67.5895 16.6498C66.992 16.225 66.1293 16.0127 65.0016 16.0127H59.761V21.1201H64.6596ZM66.0742 30.8562C67.0396 30.9103 68.0007 30.6894 68.8456 30.2192C69.1748 30.0077 69.4412 29.7118 69.6172 29.3624C69.7932 29.0129 69.8723 28.6227 69.8462 28.2323V28.164C69.8592 27.7929 69.781 27.4243 69.6185 27.0905C69.456 26.7567 69.2141 26.4678 68.914 26.2491C68.2949 25.7692 67.2943 25.5293 65.9122 25.5293H59.761V30.8562H66.0742Z" fill="#D2D2D2"/>
<path d="M81.7598 11.3516H87.0759V35.5174H81.7598V11.3516Z" fill="#D2D2D2"/>
<path d="M95.1206 11.3516H100.023L111.354 26.2239V11.3516H116.601V35.5174H112.077L100.376 20.1555V35.5174H95.1206V11.3516Z" fill="#D2D2D2"/>
<path d="M132.698 11.1787H137.593L147.948 35.5173H142.398L140.188 30.0967H129.969L127.759 35.5173H122.339L132.698 11.1787ZM138.291 25.4032L135.073 17.5639L131.87 25.4032H138.291Z" fill="#D2D2D2"/>
<path d="M153.696 11.3516H158.598L169.922 26.2239V11.3516H175.169V35.5174H170.645L158.944 20.1555V35.5174H153.696V11.3516Z" fill="#D2D2D2"/>
<path d="M194.303 35.942C192.609 35.9565 190.929 35.6284 189.365 34.9774C187.892 34.3694 186.556 33.4727 185.436 32.3402C184.315 31.2077 183.432 29.8624 182.839 28.3835C182.214 26.8365 181.897 25.1822 181.907 23.5136V23.4452C181.879 20.1563 183.145 16.988 185.431 14.6233C186.556 13.4682 187.902 12.5524 189.39 11.931C191.008 11.2607 192.746 10.9264 194.498 10.9484C195.534 10.9407 196.568 11.0335 197.586 11.2256C198.457 11.3903 199.308 11.6448 200.127 11.985C200.87 12.2977 201.576 12.6912 202.233 13.1584C202.873 13.6141 203.475 14.1221 204.032 14.6773L200.652 18.579C199.789 17.7822 198.82 17.1076 197.773 16.5741C196.744 16.0823 195.616 15.8359 194.476 15.8543C193.527 15.8442 192.587 16.036 191.719 16.417C190.85 16.798 190.072 17.3595 189.437 18.0643C188.807 18.7672 188.314 19.5813 187.983 20.465C187.636 21.3989 187.462 22.3879 187.468 23.384V23.4524C187.465 24.4471 187.639 25.4344 187.983 26.3679C188.31 27.2547 188.798 28.0735 189.423 28.783C190.053 29.4965 190.829 30.0662 191.698 30.4537C192.567 30.8412 193.51 31.0374 194.462 31.029C195.674 31.0672 196.876 30.8063 197.964 30.2695C198.999 29.7054 199.956 29.0084 200.811 28.1963L204.194 31.6157C203.597 32.2641 202.951 32.8657 202.261 33.4153C201.584 33.9508 200.849 34.4083 200.069 34.7795C199.239 35.1705 198.364 35.4593 197.463 35.6397C196.423 35.8483 195.364 35.9496 194.303 35.942Z" fill="#D2D2D2"/>
<path d="M210.468 11.3516H228.655V16.0811H215.698V20.9833H227.107V25.7128H215.716V30.7879H228.835V35.5174H210.479L210.468 11.3516Z" fill="#D2D2D2"/>
</g>
<defs>
<clipPath id="clip0_238_24256">
<rect width="227.851" height="45.5709" fill="white" transform="translate(0.980469 0.308838)"/>
</clipPath>
</defs>
</svg>
