<svg width="87" height="45" viewBox="0 0 87 45" fill="none" xmlns="http://www.w3.org/2000/svg">
<path fill-rule="evenodd" clip-rule="evenodd" d="M12.3418 26.0348C13.63 26.5316 15.1021 26.78 16.7583 26.78C18.1201 26.78 19.3714 26.5684 20.5123 26.1452C21.6532 25.7219 22.6377 25.1331 23.4658 24.3786C24.3123 23.6241 24.9656 22.7224 25.4256 21.6735C25.8857 20.6246 26.1157 19.4837 26.1157 18.2507C26.1157 18.0851 26.1065 17.7815 26.0881 17.3398C26.0881 16.8798 26.0697 16.4197 26.0329 15.9597C26.0145 15.4996 25.9961 15.1684 25.9777 14.966L15.2954 16.9016V18.2507L20.5985 19.0426C20.563 19.3346 20.4882 19.6135 20.3743 19.8793C20.2087 20.2473 19.9787 20.5694 19.6842 20.8454C19.4082 21.103 19.0678 21.3147 18.6629 21.4803C18.2765 21.6275 17.844 21.7011 17.3656 21.7011C16.6663 21.7011 16.0222 21.5815 15.4334 21.3423C14.8445 21.0846 14.3385 20.735 13.9152 20.2933C13.492 19.8517 13.1607 19.3272 12.9215 18.72C12.6823 18.0943 12.5627 17.4226 12.5627 16.705C12.5627 15.9873 12.6731 15.3248 12.8939 14.7175C13.1331 14.0919 13.4552 13.5582 13.86 13.1166C14.2649 12.6749 14.7433 12.3345 15.2954 12.0953C15.8474 11.8376 16.4547 11.7088 17.1172 11.7088C17.7612 11.7088 18.3409 11.7916 18.8561 11.9573C19.3714 12.1045 19.8406 12.3161 20.2639 12.5921C20.6871 12.8497 21.0828 13.1534 21.4508 13.503L24.984 9.74902C24.4135 9.16015 23.7327 8.6357 22.9414 8.17565C22.1685 7.6972 21.2944 7.31996 20.3191 7.04393C19.3622 6.7679 18.3225 6.62988 17.2 6.62988C15.5806 6.62988 14.1084 6.87831 12.7835 7.37516C11.477 7.87202 10.3452 8.57129 9.38833 9.47299C8.43143 10.3747 7.69535 11.442 7.18009 12.6749C6.68324 13.8895 6.43481 15.2328 6.43481 16.705C6.43481 18.1587 6.65564 19.5021 7.09729 20.735C7.55733 21.9679 8.22901 23.0352 9.1123 23.9369C9.9956 24.8386 11.0721 25.5379 12.3418 26.0348ZM31.3846 25.7035C32.6912 26.3476 34.1817 26.6696 35.8563 26.6696C37.5309 26.6696 39.0122 26.3476 40.3004 25.7035C41.6069 25.041 42.6282 24.1394 43.3643 22.9984C44.1004 21.8575 44.4684 20.551 44.4684 19.0788V7.18194H38.589V18.8304C38.589 19.364 38.4694 19.8425 38.2302 20.2657C37.9909 20.6706 37.6689 20.9926 37.264 21.2318C36.8592 21.4711 36.3899 21.5907 35.8563 21.5907C35.3594 21.5907 34.9086 21.4711 34.5037 21.2318C34.1173 20.9926 33.8137 20.6706 33.5928 20.2657C33.372 19.8425 33.2616 19.364 33.2616 18.8304V7.18194H27.2442V19.0788C27.2442 20.551 27.6122 21.8575 28.3483 22.9984C29.0844 24.1394 30.0965 25.041 31.3846 25.7035ZM46.0879 26.504V7.18194H55.1417C56.485 7.18194 57.6812 7.44877 58.7301 7.98243C59.779 8.51608 60.5979 9.24296 61.1867 10.1631C61.7756 11.0832 62.07 12.1413 62.07 13.3374C62.07 14.6807 61.7756 15.8585 61.1867 16.8706C60.5979 17.8827 59.779 18.674 58.7301 19.2444C58.711 19.2545 58.6918 19.2644 58.6726 19.2743L62.8705 26.504H56.9358L54.0011 20.0725H52.8255L51.2086 26.504H46.0879ZM67.4762 25.7035C68.7828 26.3476 70.2733 26.6696 71.9479 26.6696C73.6225 26.6696 75.1039 26.3476 76.392 25.7035C77.6985 25.041 78.7198 24.1394 79.4559 22.9984C80.192 21.8575 80.56 20.551 80.56 19.0788V7.18194H74.6806V18.8304C74.6806 19.364 74.561 19.8425 74.3218 20.2657C74.0825 20.6706 73.7605 20.9926 73.3557 21.2318C72.9508 21.4711 72.4816 21.5907 71.9479 21.5907C71.4511 21.5907 71.0002 21.4711 70.5954 21.2318C70.2089 20.9926 69.9053 20.6706 69.6845 20.2657C69.4636 19.8425 69.3532 19.364 69.3532 18.8304V7.18194H63.3358V19.0788C63.3358 20.551 63.7038 21.8575 64.4399 22.9984C65.176 24.1394 66.1881 25.041 67.4762 25.7035ZM53.4188 9.4716L53.5159 8.30756L53.6129 9.47161C53.7965 11.6751 55.4765 13.4603 57.6648 13.7773C55.4765 14.0942 53.7965 15.8795 53.6129 18.083L53.5159 19.247L53.4188 18.083C53.2352 15.8795 51.5552 14.0942 49.3669 13.7773C51.5552 13.4603 53.2352 11.6751 53.4188 9.4716Z" fill="black"/>
<path d="M10.8945 37.941C9.72689 37.941 8.75873 37.5567 7.99001 36.7879C7.22128 36.0192 6.83691 35.0728 6.83691 33.9487C6.83691 32.8246 7.22128 31.8782 7.99001 31.1095C8.75873 30.3408 9.72689 29.9564 10.8945 29.9564C11.7575 29.9564 12.5444 30.2139 13.2551 30.7288C13.973 31.2364 14.4372 31.9072 14.6475 32.7412H12.7655C12.5987 32.3859 12.3449 32.1139 12.0041 31.9254C11.6632 31.7296 11.2934 31.6317 10.8945 31.6317C10.1983 31.6317 9.63624 31.8529 9.20837 32.2952C8.78774 32.7376 8.57743 33.2888 8.57743 33.9487C8.57743 34.6087 8.78774 35.1598 9.20837 35.6022C9.63624 36.0446 10.1983 36.2658 10.8945 36.2658C11.2934 36.2658 11.6632 36.1715 12.0041 35.983C12.3449 35.7871 12.5987 35.5116 12.7655 35.1562H14.6475C14.4372 35.9902 13.973 36.6647 13.2551 37.1796C12.5444 37.6872 11.7575 37.941 10.8945 37.941Z" fill="black"/>
<path d="M18.4475 35.5805C18.8898 36.0373 19.4229 36.2658 20.0466 36.2658C20.6702 36.2658 21.1996 36.0373 21.6348 35.5805C22.0699 35.1236 22.2875 34.5797 22.2875 33.9487C22.2875 33.3178 22.0699 32.7739 21.6348 32.317C21.1996 31.8601 20.6702 31.6317 20.0466 31.6317C19.4229 31.6317 18.8898 31.8601 18.4475 32.317C18.0123 32.7739 17.7948 33.3178 17.7948 33.9487C17.7948 34.5797 18.0123 35.1236 18.4475 35.5805ZM22.864 36.7662C22.088 37.5494 21.1489 37.941 20.0466 37.941C18.9442 37.941 18.0014 37.553 17.2182 36.7771C16.4422 35.9938 16.0542 35.0511 16.0542 33.9487C16.0542 32.8464 16.4422 31.9072 17.2182 31.1313C18.0014 30.348 18.9442 29.9564 20.0466 29.9564C21.1489 29.9564 22.088 30.348 22.864 31.1313C23.6472 31.9145 24.0389 32.8537 24.0389 33.9487C24.0389 35.0438 23.6472 35.983 22.864 36.7662Z" fill="black"/>
<path d="M25.9938 37.8105V30.087H27.7234V36.157H30.9216V37.8105H25.9938Z" fill="black"/>
<path d="M32.7574 37.8105V30.087H34.4871V36.157H37.6852V37.8105H32.7574Z" fill="black"/>
<path d="M39.521 37.8105V30.087H44.4162V31.7404H41.2507V33.122H43.7635V34.7755H41.2507V36.157H44.4162V37.8105H39.521Z" fill="black"/>
<path d="M49.9392 37.941C48.7716 37.941 47.8035 37.5567 47.0347 36.7879C46.266 36.0192 45.8816 35.0728 45.8816 33.9487C45.8816 32.8246 46.266 31.8782 47.0347 31.1095C47.8035 30.3408 48.7716 29.9564 49.9392 29.9564C50.8022 29.9564 51.5891 30.2139 52.2998 30.7288C53.0178 31.2364 53.4819 31.9072 53.6922 32.7412H51.8103C51.6435 32.3859 51.3896 32.1139 51.0488 31.9254C50.7079 31.7296 50.3381 31.6317 49.9392 31.6317C49.243 31.6317 48.681 31.8529 48.2531 32.2952C47.8325 32.7376 47.6222 33.2888 47.6222 33.9487C47.6222 34.6087 47.8325 35.1598 48.2531 35.6022C48.681 36.0446 49.243 36.2658 49.9392 36.2658C50.3381 36.2658 50.7079 36.1715 51.0488 35.983C51.3896 35.7871 51.6435 35.5116 51.8103 35.1562H53.6922C53.4819 35.9902 53.0178 36.6647 52.2998 37.1796C51.5891 37.6872 50.8022 37.941 49.9392 37.941Z" fill="black"/>
<path d="M56.8203 37.8105V31.7404H54.8513V30.087H60.5515V31.7404H58.5608V37.8105H56.8203Z" fill="black"/>
<path d="M62.3721 37.8105V30.087H64.1017V37.8105H62.3721Z" fill="black"/>
<path d="M68.8511 37.8105L65.6855 30.087H67.5675L69.6234 35.2324L71.6685 30.087H73.5722L70.4067 37.8105H68.8511Z" fill="black"/>
<path d="M75.1557 37.8105V30.087H80.0509V31.7404H76.8853V33.122H79.3982V34.7755H76.8853V36.157H80.0509V37.8105H75.1557Z" fill="black"/>
</svg>
