<svg width="679" height="203" viewBox="0 0 679 203" fill="none" xmlns="http://www.w3.org/2000/svg">
<g clip-path="url(#clip0_442_27425)">
<path d="M236.13 114.546L162.54 198.375C159.98 200.935 156.78 202.854 152.941 202.854H118.385C114.546 202.854 110.706 200.935 108.786 197.735L0 35.1956H21.7573C34.5557 35.1956 46.0742 41.5948 53.1133 51.8335L124.144 156.78C126.704 160.62 131.183 163.179 135.663 163.179C140.782 163.179 145.262 161.26 147.821 158.06L181.737 117.745L185.577 113.266C186.217 112.626 186.217 111.986 185.577 111.346C185.577 110.706 184.297 110.066 183.657 110.066H153.581C149.741 110.066 145.902 108.146 143.982 104.947L133.743 89.5887C131.183 85.1093 131.183 79.35 134.383 75.5105L170.219 33.2758C170.859 32.6359 170.859 31.996 170.219 31.3561C170.219 30.7161 169.579 30.0762 168.299 30.0762H100.467C96.6278 30.0762 92.7883 28.1565 90.8686 24.9569L72.9508 0H174.058C187.496 0 199.655 6.3992 206.694 17.9177L212.453 26.8766C215.013 31.3561 215.013 36.4754 211.813 40.3149L181.097 76.7903C180.457 77.4303 180.457 78.0702 181.097 79.35C181.737 79.9899 182.377 79.9899 183.017 79.9899L224.612 63.352C229.731 61.4323 235.49 63.352 238.69 67.8315C248.929 81.9097 247.649 101.107 236.13 114.546ZM358.355 69.7512C359.635 71.0311 359.635 73.5907 359.635 75.5105V116.465V121.585V131.184C359.635 138.223 358.355 143.342 355.155 147.821C351.956 152.301 347.476 155.5 342.357 157.42C337.238 159.34 330.838 159.98 323.799 159.98C318.68 159.98 314.2 159.34 310.361 158.7C306.521 158.06 303.322 156.78 301.402 155.5C298.202 153.581 296.283 150.381 296.283 146.542C296.283 144.622 296.923 142.702 297.563 140.782C298.202 139.502 299.482 138.223 300.762 136.943C303.322 138.223 306.521 140.142 310.361 140.782C314.2 141.422 318.04 142.702 321.879 142.702C326.999 142.702 331.478 141.422 334.678 139.502C337.877 137.583 339.157 134.383 339.157 129.904V124.784C337.877 125.424 336.598 126.064 334.678 126.704C331.478 127.344 328.279 127.984 323.799 127.984C318.04 127.984 312.921 126.704 307.801 124.784C302.682 122.865 298.842 119.025 296.283 113.906C293.083 108.786 291.803 102.387 291.803 94.0682C291.803 86.3891 293.083 79.9899 296.283 74.8706C299.482 69.7512 303.322 65.9117 309.081 63.352C314.84 60.7924 321.24 59.5125 328.279 59.5125C333.398 59.5125 338.517 60.1524 342.997 61.4323C347.476 62.7121 351.316 64.6319 353.236 65.9117C355.795 67.1916 357.075 68.4714 358.355 69.7512ZM335.958 110.706C337.238 110.066 337.877 109.426 338.517 108.786V78.7101C337.238 78.0702 335.958 77.4303 334.678 77.4303C333.398 76.7903 331.478 76.7903 328.919 76.7903C324.439 76.7903 320.6 78.0702 317.4 81.2698C314.84 83.1895 313.561 88.3089 313.561 94.0682C313.561 101.107 314.84 105.587 317.4 108.146C319.96 110.706 323.799 111.986 327.639 111.986C331.478 111.986 334.038 111.346 335.958 110.706ZM429.386 85.1093V118.385C429.386 120.945 428.746 122.865 427.466 124.144C426.186 125.424 424.907 126.704 422.347 127.984C419.147 129.904 415.948 131.184 411.468 131.823C406.989 133.103 402.509 133.103 396.75 133.103C387.151 133.103 378.832 131.183 373.073 127.344C367.314 123.504 364.754 117.745 364.754 110.066C364.754 103.667 366.674 98.5476 371.153 94.7081C374.993 90.8686 381.392 88.9488 389.071 88.3089L408.269 86.3891V84.4694C408.269 81.2698 406.989 78.7101 404.429 77.4303C401.869 76.1504 398.03 75.5105 393.55 75.5105C389.711 75.5105 386.511 76.1504 382.672 76.7903C378.832 77.4303 376.273 78.7101 373.073 79.9899C371.793 79.35 371.153 78.0702 369.873 76.1504C369.234 74.8706 368.594 72.9508 368.594 71.0311C368.594 67.1916 370.513 63.992 374.993 62.0722C377.552 60.7924 380.752 60.1524 384.592 59.5125C388.431 58.8726 391.631 58.8726 395.47 58.8726C405.709 58.8726 413.388 60.7924 419.787 65.2718C426.186 69.7512 429.386 76.1504 429.386 85.1093ZM408.269 101.107L396.11 102.387C392.911 102.387 390.351 103.027 388.431 104.307C386.511 105.587 385.232 107.506 385.232 109.426C385.232 111.986 385.871 113.906 387.791 115.186C389.711 116.465 392.911 117.105 396.75 117.105C398.67 117.105 401.23 117.105 403.149 116.465C405.069 115.825 406.989 115.825 407.629 115.186V101.107H408.269ZM528.573 62.0722C524.094 60.1524 519.615 59.5125 514.495 59.5125C508.736 59.5125 503.617 60.1524 499.777 62.0722C497.217 63.352 494.018 64.6319 492.098 66.5516C488.898 63.9919 486.339 62.7121 483.139 61.4323C479.3 60.1524 474.82 59.5125 470.341 59.5125C465.221 59.5125 460.742 60.1524 455.623 61.4323C450.503 62.7121 447.304 64.6319 444.104 66.5516C442.184 67.8315 440.904 69.1113 439.625 71.0311C438.345 72.3109 438.345 74.8706 438.345 76.7903V92.7883V99.1875V121.585C438.345 125.424 438.985 127.984 440.905 129.264C442.824 130.544 446.024 131.184 449.863 131.184C451.783 131.184 453.703 131.183 455.623 130.544C457.542 130.544 458.822 129.904 459.462 129.904V98.5476V92.1484V78.0702C460.742 77.4303 462.022 76.7903 463.942 76.1504C465.861 75.5105 467.781 75.5105 469.701 75.5105C472.9 75.5105 474.82 76.1504 476.74 78.0702C478.66 79.35 479.94 81.9097 479.94 85.1093V92.1484V98.5476V120.945C479.94 124.784 480.58 127.344 482.499 128.624C484.419 129.904 487.619 130.544 491.458 130.544C493.378 130.544 495.298 130.544 497.217 129.904C499.137 129.904 500.417 129.264 501.057 129.264V97.9077V91.5085V83.1895C501.057 81.9097 501.057 81.2698 501.057 79.9899C502.337 79.35 503.617 78.0702 504.896 77.4303C506.816 76.7903 508.736 76.1504 511.296 76.1504C514.495 76.1504 516.415 76.7903 518.335 78.7101C520.255 80.6299 520.894 82.5496 520.894 85.7492V92.7883V99.1875V121.585C520.894 125.424 521.534 127.984 523.454 129.264C525.374 130.544 528.573 131.184 532.413 131.184C534.333 131.184 536.253 131.183 538.172 130.544C540.092 130.544 541.372 129.904 542.012 129.904V98.5476V92.1484V84.4694C542.012 78.0702 540.732 72.9508 538.172 69.1113C536.253 66.5516 532.413 63.352 528.573 62.0722ZM613.043 74.2307C615.603 78.7101 617.522 83.8295 617.522 90.2287C617.522 93.4283 616.882 95.348 614.963 97.2678C613.043 98.5476 611.123 99.8274 607.923 100.467L569.528 104.947C570.808 108.786 572.728 111.346 575.928 113.266C579.767 115.825 584.246 116.465 588.726 116.465C592.565 116.465 596.405 115.825 600.244 114.546C604.084 113.266 606.644 111.986 609.203 110.706C610.483 111.346 611.763 112.626 613.043 114.546C613.683 115.825 614.323 117.745 614.323 119.665C614.323 122.865 613.043 124.784 611.123 126.704C609.203 128.624 606.004 129.904 601.524 131.184C597.685 132.463 593.205 132.463 588.086 132.463C580.407 132.463 574.008 131.184 568.249 127.984C562.489 125.424 557.37 120.945 554.17 115.186C550.971 109.426 549.051 102.387 549.051 94.0682C549.051 87.669 550.331 82.5496 552.251 78.0702C554.17 73.5907 556.73 69.7512 559.93 66.5516C563.129 63.352 566.969 61.4323 571.448 60.1524C575.928 58.8726 579.767 58.2327 584.886 58.2327C591.286 58.2327 597.685 59.5125 602.164 62.0722C606.004 65.9117 609.843 69.7512 613.043 74.2307ZM597.045 86.3891C597.045 83.8295 595.765 81.2698 593.845 78.7101C591.926 76.1504 588.726 75.5105 584.246 75.5105C579.767 75.5105 576.567 76.7903 573.368 79.9899C570.808 82.5496 569.528 86.3891 568.888 90.8686L597.045 86.3891ZM673.195 96.6278C669.356 92.7883 662.957 90.2287 654.638 88.3089L648.878 87.0291C646.319 86.3891 644.399 85.7492 643.119 84.4694C641.839 83.8295 641.199 82.5496 641.199 81.2698C641.199 79.35 642.479 78.0702 644.399 76.7903C646.319 76.1504 648.878 75.5105 652.718 75.5105C654.638 75.5105 657.197 75.5105 659.757 76.1504C662.317 76.7903 664.876 77.4303 666.796 78.0702C668.716 78.7101 670.636 79.35 671.915 79.9899C673.195 78.7101 674.475 78.0702 675.115 76.1504C675.755 74.2307 676.395 72.9508 676.395 71.0311C676.395 68.4714 675.115 65.9117 673.195 63.992C671.276 62.0722 668.076 60.7924 664.236 59.5125C660.397 58.8726 655.917 58.2327 651.438 58.2327C641.839 58.2327 634.8 60.1524 629.041 63.992C623.282 67.8315 620.722 73.5907 620.722 79.9899C620.722 85.7492 622.642 90.8686 626.481 94.0682C630.321 97.2678 636.08 99.8274 643.759 101.747L650.158 103.027C653.358 103.667 655.278 104.307 656.557 105.587C657.837 106.867 658.477 108.146 658.477 109.426C658.477 113.266 654.638 115.825 647.598 115.825C643.119 115.825 638.64 115.186 635.44 113.906C632.24 112.626 628.401 111.346 625.841 109.426C624.561 110.066 623.282 111.346 622.642 113.266C622.002 114.546 621.362 116.465 621.362 118.385C621.362 122.865 623.922 126.064 629.041 128.624C634.16 131.184 640.559 131.823 648.878 131.823C659.117 131.823 666.796 129.904 671.915 126.064C677.035 122.225 679.594 116.465 679.594 109.426C678.955 104.947 677.035 100.467 673.195 96.6278Z" fill="url(#paint0_linear_442_27425)"/>
</g>
<defs>
<linearGradient id="paint0_linear_442_27425" x1="335.284" y1="9.35818" x2="350.882" y2="252.928" gradientUnits="userSpaceOnUse">
<stop stop-color="#57D2FE"/>
<stop offset="1" stop-color="#747EF5"/>
</linearGradient>
<clipPath id="clip0_442_27425">
<rect width="678.955" height="202.854" fill="white"/>
</clipPath>
</defs>
</svg>
