<svg width="123" height="101" viewBox="0 0 123 101" fill="none" xmlns="http://www.w3.org/2000/svg">
<g clip-path="url(#clip0_390_25049)">
<path d="M46.1482 63.0718L55.1442 53.9157C55.7122 53.9342 56.2726 53.7798 56.7537 53.4724C57.2347 53.1651 57.6144 52.7188 57.8441 52.1908C58.0738 51.6627 58.143 51.077 58.0427 50.5087C57.9426 49.9404 57.6775 49.4154 57.2818 49.0013C56.8858 48.587 56.3772 48.3023 55.8211 48.1839C55.265 48.0653 54.6866 48.1181 54.1602 48.3358C53.6338 48.5534 53.1836 48.9258 52.8669 49.4052C52.5502 49.8847 52.3818 50.4492 52.3832 51.0265C52.3831 51.3116 52.4222 51.595 52.4993 51.8689L44.6559 59.8457H31.2574L22.8669 51.2625H14.7997C14.5468 50.8601 14.1989 50.5283 13.7876 50.2973C13.3764 50.0664 12.9149 49.9436 12.445 49.94C11.7162 49.9799 11.0303 50.3022 10.5283 50.8405C10.0263 51.3786 9.74658 52.0919 9.74658 52.8333C9.74658 53.5747 10.0263 54.2881 10.5283 54.8264C11.0303 55.3645 11.7162 55.6867 12.445 55.7268C12.8761 55.7279 13.3019 55.629 13.6898 55.4378C14.0777 55.2466 14.4176 54.968 14.6836 54.6233H21.4823L29.7734 63.0465L46.1482 63.0718Z" fill="url(#paint0_linear_390_25049)"/>
<path d="M80.9209 81.215C80.3207 81.2195 79.7375 81.4163 79.2539 81.7774C78.7702 82.1383 78.4109 82.6452 78.2273 83.2255C78.0436 83.8059 78.0448 84.4304 78.2307 85.01C78.4165 85.5899 78.7778 86.0951 79.2627 86.4542V92.022L57.1255 67.0894H33.7943C33.4434 66.5924 32.9463 66.2216 32.3746 66.03C31.8028 65.8386 31.186 65.8363 30.613 66.0236C30.0401 66.2108 29.5402 66.578 29.1856 67.0723C28.8312 67.5665 28.6401 68.1623 28.6401 68.774C28.6401 69.3854 28.8312 69.9812 29.1856 70.4755C29.5402 70.9697 30.0401 71.3369 30.613 71.5242C31.186 71.7115 31.8028 71.7093 32.3746 71.5177C32.9463 71.3263 33.4434 70.9553 33.7943 70.4586H55.6994L82.5792 100.782V86.4626C83.0693 86.1064 83.4356 85.6012 83.6249 85.0199C83.8141 84.4385 83.8167 83.8111 83.6323 83.2282C83.4477 82.6452 83.0857 82.1369 82.5985 81.7765C82.111 81.4163 81.5237 81.2226 80.9209 81.2235V81.215Z" fill="url(#paint1_linear_390_25049)"/>
<path d="M97.9765 74.0139C97.5108 74.012 97.052 74.1261 96.6399 74.3464C96.2279 74.5668 95.8755 74.8865 95.6134 75.2774H74.5789L62.2417 61.1938H75.2671C75.5466 61.7594 76.0006 62.2165 76.5599 62.4951C77.119 62.7738 77.7526 62.8588 78.3639 62.7373C78.9751 62.6158 79.5305 62.2943 79.9449 61.822C80.3594 61.3496 80.6103 60.7524 80.6594 60.1215C80.7083 59.4907 80.5526 58.8609 80.2161 58.3284C79.8797 57.7958 79.3809 57.39 78.7959 57.1725C78.2111 56.9551 77.5721 56.9382 76.9769 57.1244C76.3814 57.3106 75.8626 57.6896 75.4993 58.2036H55.1943L73.0866 78.6467H95.7047C95.9979 79.0372 96.3841 79.3453 96.827 79.5421C97.2698 79.7387 97.7547 79.8174 98.2359 79.7709C98.717 79.7241 99.1786 79.5538 99.5768 79.2757C99.9751 78.9975 100.297 78.6208 100.512 78.1812C100.727 77.7415 100.829 77.2534 100.807 76.7627C100.785 76.2723 100.64 75.7956 100.386 75.3776C100.132 74.9597 99.778 74.6144 99.3563 74.3743C98.9347 74.1344 98.4598 74.0073 97.9765 74.0055V74.0139Z" fill="url(#paint2_linear_390_25049)"/>
<path d="M105.231 58.3389C104.476 58.3389 103.752 58.643 103.217 59.1845C102.682 59.7262 102.381 60.4609 102.379 61.228C102.378 61.5431 102.428 61.8562 102.528 62.1545L98.5565 66.5683H81.4187C81.0671 66.0662 80.5675 65.6907 79.9922 65.4959C79.4168 65.3012 78.7953 65.2973 78.2175 65.4847C77.6399 65.6722 77.1357 66.0414 76.778 66.539C76.4204 67.0365 76.2275 67.6368 76.2275 68.2529C76.2275 68.8691 76.4204 69.4694 76.778 69.9669C77.1357 70.4645 77.6399 70.8337 78.2175 71.0211C78.7953 71.2086 79.4168 71.2046 79.9922 71.01C80.5675 70.8152 81.0671 70.4397 81.4187 69.9376H100.256L105.38 64.1508C106.111 64.0963 106.794 63.7577 107.286 63.2056C107.778 62.6533 108.041 61.9297 108.022 61.1852C108.003 60.4406 107.702 59.7321 107.182 59.2068C106.663 58.6814 105.964 58.3797 105.231 58.364V58.3389Z" fill="url(#paint3_linear_390_25049)"/>
<path d="M96.4419 15.859L100.488 19.978H83.8229C83.4773 19.4695 82.9809 19.0869 82.4059 18.8854C81.8309 18.6839 81.2078 18.6746 80.6273 18.8584C80.0466 19.0423 79.5392 19.4098 79.1789 19.9075C78.8183 20.4052 78.624 21.0069 78.624 21.6246C78.624 22.2426 78.8183 22.8441 79.1789 23.3418C79.5392 23.8395 80.0466 24.207 80.6273 24.3909C81.2078 24.5747 81.8309 24.5654 82.4059 24.3639C82.9809 24.1626 83.4773 23.7798 83.8229 23.2713H108.431L99.0537 13.7448C99.1199 13.492 99.1533 13.2315 99.1531 12.9698C99.1542 12.3904 98.984 11.8241 98.665 11.3438C98.346 10.8636 97.8925 10.4916 97.3632 10.2758C96.8339 10.06 96.2532 10.0104 95.6958 10.1334C95.1385 10.2563 94.6302 10.5462 94.2366 10.9656C93.8432 11.3849 93.5824 11.9145 93.4882 12.4859C93.3939 13.0574 93.4704 13.6444 93.7078 14.1712C93.9451 14.698 94.3326 15.1404 94.82 15.4413C95.3074 15.7421 95.8723 15.8876 96.4419 15.859Z" fill="url(#paint4_linear_390_25049)"/>
<path d="M91.5174 64.2087C91.904 64.2227 92.2893 64.1566 92.65 64.0144C93.0108 63.8723 93.3393 63.657 93.6155 63.3818C93.8918 63.1066 94.11 62.7772 94.257 62.4136C94.4038 62.0498 94.4765 61.6596 94.4703 61.2667C94.4641 60.8737 94.3792 60.486 94.2209 60.1274C94.0625 59.7687 93.8341 59.4464 93.5494 59.1804C93.2645 58.9142 92.9295 58.7099 92.5645 58.5794C92.1995 58.4491 91.8121 58.3955 91.4261 58.4221L83.4915 49.3334H67.1663C66.8153 48.8366 66.3182 48.4658 65.7465 48.2742C65.1749 48.0826 64.5581 48.0805 63.9851 48.2678C63.4119 48.455 62.9123 48.8222 62.5577 49.3165C62.2033 49.8107 62.0122 50.4066 62.0122 51.0182C62.0122 51.6296 62.2033 52.2254 62.5577 52.7197C62.9123 53.2139 63.4119 53.5811 63.9851 53.7684C64.5581 53.9557 65.1749 53.9535 65.7465 53.7619C66.3182 53.5703 66.8153 53.1996 67.1663 52.7028H81.9825L88.7896 60.4858C88.7066 60.7585 88.6674 61.0428 88.6735 61.328C88.6778 62.0922 88.9791 62.8236 89.5118 63.3631C90.0443 63.9026 90.7652 64.2066 91.5174 64.2087Z" fill="url(#paint5_linear_390_25049)"/>
<path d="M119.4 51.2871C118.932 51.2872 118.471 51.405 118.059 51.6298C117.647 51.8547 117.295 52.1796 117.037 52.5759H96.9724L87.3547 42.0216H50.6997L42.1185 50.5881H33.6615L25.3704 42.1144H7.42026C7.06896 41.6149 6.5706 41.2416 5.99707 41.0486C5.42351 40.8554 4.80441 40.8523 4.22903 41.0396C3.65364 41.2271 3.15169 41.5953 2.79557 42.0912C2.43946 42.5871 2.24756 43.185 2.24756 43.799C2.24756 44.4128 2.43946 45.0107 2.79557 45.5068C3.15169 46.0027 3.65364 46.3707 4.22903 46.5582C4.80441 46.7457 5.42351 46.7424 5.99707 46.5494C6.5706 46.3562 7.06896 45.9831 7.42026 45.4836H23.8366L32.3434 53.9742H43.4782L52.0596 45.3657H85.9453L95.4967 55.962H117.112C117.408 56.3492 117.795 56.6538 118.239 56.8472C118.682 57.0406 119.167 57.1164 119.647 57.0677C120.127 57.019 120.588 56.8474 120.985 56.5688C121.382 56.2902 121.703 55.9137 121.918 55.4748C122.133 55.0357 122.234 54.5484 122.213 54.0587C122.192 53.5689 122.049 53.0925 121.798 52.674C121.546 52.2556 121.194 51.9089 120.775 51.6663C120.355 51.4238 119.882 51.2934 119.4 51.2871Z" fill="url(#paint6_linear_390_25049)"/>
<path d="M5.70427 35.4428C5.70405 34.9836 5.59643 34.5311 5.3903 34.1225C5.18416 33.714 4.8854 33.361 4.51864 33.0927V28.401L12.76 16.9791H38.8438L50.6752 29.9257L37.7909 42.6699L33.9105 38.8794C33.9105 38.7867 33.9105 38.6857 33.9105 38.5931C33.9201 37.9982 33.7491 37.4148 33.4209 36.9222C33.0928 36.4294 32.6233 36.0514 32.0762 35.8391C31.5291 35.6269 30.9312 35.5909 30.3632 35.736C29.7953 35.881 29.2852 36.2002 28.902 36.6501C28.5188 37.0999 28.2812 37.6587 28.2215 38.2506C28.1619 38.8424 28.2828 39.4384 28.5682 39.958C28.8535 40.4774 29.2893 40.8951 29.8165 41.1543C30.3436 41.4135 30.9364 41.5015 31.5144 41.4064L37.824 47.4626L55.3514 30.0182L40.3776 13.7783H10.9857L1.43435 26.9607H1.19391V33.0927C0.795837 33.3817 0.477632 33.7699 0.269886 34.2199C0.0621384 34.67 -0.0281655 35.1666 0.00765508 35.6625C0.0434756 36.1582 0.204216 36.6361 0.474424 37.0505C0.744632 37.4648 1.11522 37.8016 1.55057 38.0284C1.98591 38.2552 2.47138 38.3645 2.96028 38.3456C3.4492 38.327 3.9251 38.1807 4.34227 37.9209C4.75946 37.6612 5.10386 37.2967 5.34238 36.8629C5.5809 36.4288 5.70552 35.9398 5.70427 35.4428Z" fill="url(#paint7_linear_390_25049)"/>
<path d="M24.8817 11.2854C25.3468 11.2866 25.8051 11.1711 26.2158 10.9492C26.6267 10.7273 26.9772 10.4059 27.2363 10.0135H43.6775L61.3625 28.9488C61.3295 29.1295 61.3128 29.3126 61.3128 29.4963C61.3128 30.0694 61.4801 30.6297 61.7934 31.1061C62.1068 31.5826 62.5522 31.9541 63.0734 32.1734C63.5946 32.3926 64.1679 32.45 64.7213 32.3382C65.2745 32.2264 65.7828 31.9505 66.1816 31.5452C66.5805 31.1399 66.8522 30.6237 66.9622 30.0615C67.0722 29.4995 67.0158 28.917 66.7999 28.3875C66.5841 27.858 66.2185 27.4055 65.7494 27.087C65.2805 26.7687 64.7289 26.5987 64.1649 26.5987C63.9668 26.5999 63.7695 26.6224 63.5763 26.6661L45.1534 6.77055H27.2446C26.9698 6.35538 26.5936 6.01959 26.1531 5.7959C25.7126 5.57221 25.2225 5.46823 24.7305 5.49411C24.2388 5.51998 23.7618 5.67481 23.3464 5.94353C22.9309 6.21222 22.591 6.58567 22.3597 7.02746C22.1286 7.46927 22.0139 7.96437 22.0269 8.46456C22.04 8.96475 22.1804 9.45299 22.4341 9.88173C22.6881 10.3105 23.047 10.6651 23.4758 10.9111C23.9049 11.1571 24.3891 11.286 24.8817 11.2854Z" fill="url(#paint8_linear_390_25049)"/>
<path d="M51.2139 6.24144H51.4794L78.84 35.2594H58.8003C58.4583 34.7425 57.962 34.3511 57.3844 34.1426C56.8067 33.9341 56.1786 33.9195 55.5923 34.1012C55.006 34.2828 54.4925 34.651 54.1279 35.1514C53.763 35.6518 53.5662 36.258 53.5662 36.8808C53.5662 37.5035 53.763 38.1098 54.1279 38.6103C54.4925 39.1107 55.006 39.4788 55.5923 39.6605C56.1786 39.842 56.8067 39.8276 57.3844 39.6191C57.962 39.4105 58.4583 39.019 58.8003 38.5023H86.3849L53.9915 4.00931C54.0412 3.79111 54.0664 3.56785 54.066 3.34387C54.066 2.77079 53.8989 2.21057 53.5854 1.73406C53.272 1.25756 52.8266 0.886167 52.3054 0.666855C51.7844 0.447545 51.2109 0.390162 50.6576 0.501967C50.1043 0.61377 49.5962 0.889738 49.1972 1.29497C48.7983 1.7002 48.5268 2.2165 48.4166 2.77859C48.3066 3.34066 48.363 3.92327 48.5789 4.45272C48.7947 4.98218 49.1603 5.43473 49.6294 5.75312C50.0985 6.07151 50.6499 6.24144 51.2139 6.24144Z" fill="url(#paint9_linear_390_25049)"/>
<path d="M42.4418 33.1436C42.8153 33.1337 43.1832 33.049 43.5245 32.8946C43.8656 32.7402 44.1737 32.5192 44.4309 32.2438C44.688 31.9685 44.8892 31.6444 45.0231 31.29C45.157 30.9358 45.2208 30.5581 45.2111 30.1787C45.2012 29.7993 45.118 29.4255 44.9659 29.0788C44.814 28.7321 44.5964 28.4192 44.3253 28.1578C44.0543 27.8967 43.7353 27.6922 43.3864 27.5563C43.0378 27.4202 42.6659 27.3554 42.2926 27.3652L36.2152 20.7783H15.1972L8.896 29.4796V38.3744H17.726L22.2529 32.0402H28.4879C28.7491 32.3799 29.0823 32.6554 29.4626 32.8463C29.8429 33.0373 30.2608 33.1389 30.6849 33.1436C31.1862 33.1423 31.6781 33.0068 32.1113 32.7507C32.5444 32.4947 32.9035 32.1274 33.1524 31.6854C33.4014 31.2436 33.5315 30.7429 33.5293 30.2337C33.5272 29.7247 33.3931 29.2251 33.1404 28.7855C32.8879 28.3457 32.5257 27.9814 32.0904 27.7292C31.6551 27.4769 31.1621 27.3456 30.6609 27.3485C30.1598 27.3514 29.6682 27.4884 29.2358 27.7457C28.8033 28.0029 28.4453 28.3715 28.1977 28.814H20.404L15.9932 35.1483H12.1793V30.7093L16.9549 24.0129H34.6647L39.7306 29.3448C39.6375 29.6388 39.59 29.9456 39.5896 30.2544C39.5918 31.0215 39.8932 31.7564 40.4279 32.2979C40.9626 32.8395 41.6867 33.1436 42.4418 33.1436Z" fill="url(#paint10_linear_390_25049)"/>
<path d="M98.117 45.5089C98.0811 45.7007 98.0617 45.8951 98.059 46.0901C98.0581 46.6811 98.2351 47.258 98.5664 47.7438C98.8974 48.2296 99.3669 48.601 99.9116 48.8082C100.456 49.0152 101.05 49.0481 101.614 48.9025C102.178 48.7568 102.684 48.4396 103.065 47.9933C103.447 47.5468 103.684 46.9929 103.747 46.4054C103.809 45.8178 103.693 45.2251 103.415 44.7062C103.136 44.1875 102.708 43.7678 102.188 43.5033C101.668 43.2387 101.081 43.142 100.505 43.2263L89.5524 31.0715H109.368L111.731 33.5985H98.7222L109.501 45.4837C109.46 45.6775 109.441 45.8752 109.443 46.0732C109.442 46.6622 109.619 47.2373 109.948 47.7219C110.278 48.2065 110.745 48.5776 111.287 48.7855C111.83 48.9937 112.422 49.0287 112.984 48.8864C113.547 48.744 114.053 48.4309 114.436 47.9886C114.819 47.5465 115.06 46.9961 115.128 46.4113C115.195 45.8263 115.085 45.2343 114.813 44.7143C114.541 44.1942 114.119 43.7709 113.604 43.5004C113.089 43.2301 112.505 43.1257 111.93 43.201L105.927 36.6899H119.268L110.545 27.9297H82.0903L98.117 45.5089Z" fill="url(#paint11_linear_390_25049)"/>
<path d="M70.035 12.9707C70.0346 13.5597 70.2109 14.1348 70.5405 14.6194C70.8702 15.1039 71.3371 15.475 71.8795 15.683C72.4219 15.891 73.0138 15.9262 73.5764 15.7839C74.1389 15.6415 74.6454 15.3284 75.0284 14.8861C75.4114 14.4439 75.6526 13.8937 75.7198 13.3087C75.7872 12.7237 75.6774 12.1317 75.4053 11.6117C75.133 11.0917 74.7112 10.6683 74.1962 10.3979C73.6811 10.1276 73.0972 10.0231 72.5222 10.0984L66.08 3.50306H75.4572L83.9142 12.6843C83.9142 12.777 83.9142 12.8697 83.9142 12.9623C83.9142 13.5358 84.0817 14.0963 84.3954 14.573C84.7092 15.0497 85.1551 15.4211 85.6768 15.6401C86.1984 15.8592 86.7723 15.9161 87.3259 15.8036C87.8793 15.6911 88.3875 15.4143 88.786 15.0082C89.1846 14.6021 89.4555 14.0851 89.5646 13.5224C89.6737 12.9598 89.6162 12.3769 89.3989 11.8476C89.1818 11.3183 88.8149 10.8663 88.3448 10.549C87.8748 10.2316 87.3225 10.0631 86.7581 10.0647C86.5343 10.0636 86.3113 10.092 86.0947 10.149L76.7507 0.133789H58.0459L70.0432 12.7686C70.0371 12.8358 70.0344 12.9033 70.035 12.9707Z" fill="url(#paint12_linear_390_25049)"/>
</g>
<defs>
<linearGradient id="paint0_linear_390_25049" x1="6.57827e-05" y1="50.458" x2="122.216" y2="50.458" gradientUnits="userSpaceOnUse">
<stop stop-color="#64CD78"/>
<stop offset="1" stop-color="#46C8F5"/>
</linearGradient>
<linearGradient id="paint1_linear_390_25049" x1="-0.000175031" y1="50.4577" x2="122.216" y2="50.4577" gradientUnits="userSpaceOnUse">
<stop stop-color="#64CD78"/>
<stop offset="1" stop-color="#46C8F5"/>
</linearGradient>
<linearGradient id="paint2_linear_390_25049" x1="0.000552496" y1="50.4585" x2="122.217" y2="50.4585" gradientUnits="userSpaceOnUse">
<stop stop-color="#64CD78"/>
<stop offset="1" stop-color="#46C8F5"/>
</linearGradient>
<linearGradient id="paint3_linear_390_25049" x1="0.000135496" y1="50.459" x2="122.216" y2="50.459" gradientUnits="userSpaceOnUse">
<stop stop-color="#64CD78"/>
<stop offset="1" stop-color="#46C8F5"/>
</linearGradient>
<linearGradient id="paint4_linear_390_25049" x1="-6.95287e-05" y1="50.4573" x2="122.216" y2="50.4573" gradientUnits="userSpaceOnUse">
<stop stop-color="#64CD78"/>
<stop offset="1" stop-color="#46C8F5"/>
</linearGradient>
<linearGradient id="paint5_linear_390_25049" x1="0.00018458" y1="50.458" x2="122.217" y2="50.458" gradientUnits="userSpaceOnUse">
<stop stop-color="#64CD78"/>
<stop offset="1" stop-color="#46C8F5"/>
</linearGradient>
<linearGradient id="paint6_linear_390_25049" x1="-0.000268741" y1="50.4574" x2="122.216" y2="50.4574" gradientUnits="userSpaceOnUse">
<stop stop-color="#64CD78"/>
<stop offset="1" stop-color="#46C8F5"/>
</linearGradient>
<linearGradient id="paint7_linear_390_25049" x1="3.56883e-09" y1="50.4571" x2="122.216" y2="50.4571" gradientUnits="userSpaceOnUse">
<stop stop-color="#64CD78"/>
<stop offset="1" stop-color="#46C8F5"/>
</linearGradient>
<linearGradient id="paint8_linear_390_25049" x1="7.07599e-05" y1="50.4575" x2="122.216" y2="50.4575" gradientUnits="userSpaceOnUse">
<stop stop-color="#64CD78"/>
<stop offset="1" stop-color="#46C8F5"/>
</linearGradient>
<linearGradient id="paint9_linear_390_25049" x1="-0.000113681" y1="50.459" x2="122.216" y2="50.459" gradientUnits="userSpaceOnUse">
<stop stop-color="#64CD78"/>
<stop offset="1" stop-color="#46C8F5"/>
</linearGradient>
<linearGradient id="paint10_linear_390_25049" x1="-0.000343634" y1="50.4575" x2="122.216" y2="50.4575" gradientUnits="userSpaceOnUse">
<stop stop-color="#64CD78"/>
<stop offset="1" stop-color="#46C8F5"/>
</linearGradient>
<linearGradient id="paint11_linear_390_25049" x1="0.000144754" y1="50.4576" x2="122.216" y2="50.4576" gradientUnits="userSpaceOnUse">
<stop stop-color="#64CD78"/>
<stop offset="1" stop-color="#46C8F5"/>
</linearGradient>
<linearGradient id="paint12_linear_390_25049" x1="-1.91528e-05" y1="50.4582" x2="122.216" y2="50.4582" gradientUnits="userSpaceOnUse">
<stop stop-color="#64CD78"/>
<stop offset="1" stop-color="#46C8F5"/>
</linearGradient>
<clipPath id="clip0_390_25049">
<rect width="122.216" height="100.649" fill="white" transform="translate(0 0.133789)"/>
</clipPath>
</defs>
</svg>
