<svg width="66" height="758" viewBox="0 0 66 758" fill="none" xmlns="http://www.w3.org/2000/svg">
<rect x="34.0273" width="664.992" height="2.79198" transform="rotate(90 34.0273 0)" fill="#FFBF83"/>
<path d="M32.0303 690.992C44.6299 690.992 32.1752 712.137 34.0581 724.447C32.1754 724.559 31.8435 724.597 30.4375 724.447C32.7547 717.64 18.8851 690.992 32.0303 690.992Z" fill="#FFBF83"/>
<path d="M32.0303 758C44.6299 758 32.1752 736.856 34.0581 724.546C32.1754 724.434 31.8435 724.396 30.4375 724.546C32.7547 731.352 18.8851 758 32.0303 758Z" fill="#FFBF83"/>
<path d="M61.0604 743.291C68.0273 732.793 43.5227 731.478 34.307 723.103C33.1727 724.609 32.9574 724.865 32.3049 726.119C39.2577 727.952 53.7918 754.244 61.0604 743.291Z" fill="#FFBF83"/>
<path d="M62.1458 706.608C55.6374 695.82 43.9662 717.406 32.453 722.153C33.3298 723.823 33.4686 724.127 34.3233 725.253C38.9546 719.753 68.9361 717.863 62.1458 706.608Z" fill="#FFBF83"/>
<path d="M4.09195 704.89C-2.87494 715.388 21.6296 716.703 30.8454 725.078C31.9797 723.572 32.1949 723.316 32.8474 722.062C25.8947 720.229 11.3606 693.937 4.09195 704.89Z" fill="#FFBF83"/>
<path d="M3.1198 741.573C9.62821 752.361 21.2995 730.775 32.8126 726.028C31.9358 724.358 31.797 724.054 30.9423 722.928C26.311 728.428 -3.6705 730.318 3.1198 741.573Z" fill="#FFBF83"/>
</svg>
