<svg width="129" height="51" viewBox="0 0 129 51" fill="none" xmlns="http://www.w3.org/2000/svg">
<path d="M126.233 17.4888V15.6584H127.16C127.235 15.6584 127.316 15.6799 127.404 15.7229C127.491 15.7642 127.566 15.8287 127.627 15.9163C127.69 16.0023 127.721 16.1114 127.721 16.2437C127.721 16.3777 127.689 16.4918 127.624 16.586C127.56 16.6786 127.481 16.7489 127.389 16.7968C127.298 16.8448 127.212 16.8688 127.131 16.8688H126.461V16.5711H127.007C127.061 16.5711 127.12 16.5438 127.183 16.4893C127.247 16.4347 127.28 16.3529 127.28 16.2437C127.28 16.1313 127.247 16.0552 127.183 16.0155C127.12 15.9759 127.065 15.956 127.017 15.956H126.635V17.4888H126.233ZM127.339 16.6257L127.795 17.4888H127.354L126.907 16.6257H127.339ZM126.927 18.5801C126.653 18.5801 126.396 18.5289 126.156 18.4264C125.916 18.3238 125.705 18.1816 125.523 17.9998C125.342 17.8179 125.199 17.607 125.097 17.3673C124.994 17.1275 124.943 16.8704 124.943 16.5959C124.943 16.3214 124.994 16.0643 125.097 15.8246C125.199 15.5848 125.342 15.374 125.523 15.1921C125.705 15.0102 125.916 14.868 126.156 14.7655C126.396 14.663 126.653 14.6117 126.927 14.6117C127.202 14.6117 127.459 14.663 127.699 14.7655C127.938 14.868 128.149 15.0102 128.331 15.1921C128.513 15.374 128.655 15.5848 128.758 15.8246C128.86 16.0643 128.912 16.3214 128.912 16.5959C128.912 16.8704 128.86 17.1275 128.758 17.3673C128.655 17.607 128.513 17.8179 128.331 17.9998C128.149 18.1816 127.938 18.3238 127.699 18.4264C127.459 18.5289 127.202 18.5801 126.927 18.5801ZM126.927 18.1039C127.205 18.1039 127.458 18.0361 127.686 17.9005C127.914 17.765 128.096 17.5831 128.232 17.3549C128.368 17.1267 128.435 16.8737 128.435 16.5959C128.435 16.3181 128.368 16.0652 128.232 15.837C128.096 15.6088 127.914 15.4269 127.686 15.2913C127.458 15.1557 127.205 15.0879 126.927 15.0879C126.65 15.0879 126.397 15.1557 126.168 15.2913C125.94 15.4269 125.758 15.6088 125.623 15.837C125.487 16.0652 125.419 16.3181 125.419 16.5959C125.419 16.8737 125.487 17.1267 125.623 17.3549C125.758 17.5831 125.94 17.765 126.168 17.9005C126.397 18.0361 126.65 18.1039 126.927 18.1039Z" fill="#FFFEFB"/>
<path d="M42.3617 20.5703H44.7713V29.3008H42.3617V20.5703ZM54.4876 27.6129L53.7426 27.7642V20.5703H56.0824V29.3008H53.0442L48.0037 22.1185L48.7371 21.9671V29.3008H46.3973V20.5703H49.517L54.4876 27.6129ZM60.4439 21.6296H62.8652V29.3008H60.4439V21.6296ZM57.1147 20.5703H66.1944V22.7121H57.1147V20.5703ZM74.6963 24.0625V25.8086H68.3056V24.0625H74.6963ZM69.9469 24.9355L69.3765 28.4394L68.3987 27.3451H75.0804V29.3008H66.9669L67.6304 24.9355L66.9669 20.5703H75.0222V22.5259H68.3987L69.3765 21.4317L69.9469 24.9355ZM85.2803 25.5176C85.2571 26.0453 85.1484 26.5497 84.9544 27.0308C84.7681 27.5042 84.4926 27.9272 84.1279 28.2997C83.7709 28.6722 83.3208 28.9632 82.7776 29.1727C82.2421 29.3823 81.6174 29.487 80.9034 29.487C80.2205 29.487 79.5803 29.39 78.9827 29.196C78.3852 28.9942 77.8574 28.6993 77.3996 28.3113C76.9495 27.9233 76.5964 27.446 76.3403 26.8795C76.0919 26.313 75.9678 25.665 75.9678 24.9355C75.9678 24.206 76.0958 23.558 76.3519 22.9915C76.608 22.425 76.965 21.9477 77.4229 21.5597C77.8885 21.1717 78.424 20.8807 79.0293 20.6867C79.6424 20.4849 80.3098 20.384 81.0315 20.384C81.9938 20.384 82.8241 20.5315 83.5226 20.8264C84.221 21.1213 84.7837 21.5248 85.2105 22.037C85.6373 22.5492 85.9128 23.1429 86.037 23.818H83.6041C83.5265 23.5231 83.3674 23.2709 83.1268 23.0614C82.894 22.8441 82.5991 22.6811 82.2421 22.5725C81.8929 22.4561 81.4932 22.3978 81.0431 22.3978C80.4999 22.3978 80.0304 22.4949 79.6346 22.6889C79.2388 22.8751 78.9323 23.1584 78.715 23.5386C78.4977 23.9111 78.389 24.3768 78.389 24.9355C78.389 25.502 78.5054 25.9793 78.7383 26.3673C78.9711 26.7553 79.3009 27.0464 79.7277 27.2404C80.1623 27.4344 80.6706 27.5314 81.2527 27.5314C81.8192 27.5314 82.3197 27.4538 82.7543 27.2986C83.1889 27.1356 83.5342 26.8989 83.7903 26.5885C84.0542 26.2781 84.2055 25.9056 84.2443 25.471L85.2803 25.5176ZM81.4855 26.4837V24.7842H86.1185V29.3008H84.4073L84.0697 25.8435L84.5237 26.4837H81.4855ZM89.225 24.3884H92.4029C92.7909 24.3884 93.0936 24.2992 93.3109 24.1207C93.5282 23.9422 93.6368 23.6938 93.6368 23.3757C93.6368 23.0497 93.5282 22.8014 93.3109 22.6307C93.0936 22.4522 92.7909 22.3629 92.4029 22.3629H88.8874L89.97 21.2105V29.3008H87.5604V20.5703H92.7405C93.4079 20.5703 93.9899 20.6905 94.4866 20.9311C94.9833 21.1639 95.3713 21.4899 95.6507 21.9089C95.93 22.3202 96.0697 22.8092 96.0697 23.3757C96.0697 23.9267 95.93 24.4117 95.6507 24.8308C95.3713 25.2498 94.9833 25.5758 94.4866 25.8086C93.9899 26.0414 93.4079 26.1578 92.7405 26.1578H89.225V24.3884ZM90.5287 25.2149H93.241L96.3724 29.3008H93.5786L90.5287 25.2149ZM97.4504 20.5703H99.86V29.3008H97.4504V20.5703ZM103.779 25.4011C103.779 25.7969 103.853 26.1423 104 26.4372C104.156 26.7243 104.381 26.9455 104.676 27.1007C104.978 27.2559 105.347 27.3335 105.781 27.3335C106.224 27.3335 106.592 27.2559 106.887 27.1007C107.182 26.9455 107.403 26.7243 107.551 26.4372C107.698 26.1423 107.772 25.7969 107.772 25.4011V20.5703H110.193V25.5176C110.193 26.3169 110.007 27.0153 109.634 27.6129C109.27 28.2027 108.758 28.6644 108.098 28.9981C107.438 29.3241 106.666 29.487 105.781 29.487C104.904 29.487 104.132 29.3241 103.465 28.9981C102.805 28.6644 102.289 28.2027 101.917 27.6129C101.552 27.0153 101.37 26.3169 101.37 25.5176V20.5703H103.779V25.4011ZM124.464 20.5703V29.3008H122.171V21.4317L122.683 21.4899L119.307 29.3008H116.863L113.475 21.5132L113.999 21.455V29.3008H111.706V20.5703H115.431L118.562 28.0669H117.631L120.739 20.5703H124.464Z" fill="#FFFEFB"/>
<path d="M45.6693 31.1076V34.3379H45.1051V31.3531L45.3635 31.6115H42.8008L43.0592 31.3531V34.3379H42.4907V31.1076H45.6693ZM46.9367 31.1076H49.8568V34.3379H49.2883V31.3531L49.5467 31.6115H47.2554L47.4966 31.4177C47.5195 31.6532 47.5368 31.8757 47.5483 32.0853C47.5597 32.2949 47.5655 32.4916 47.5655 32.6754C47.5655 33.0774 47.531 33.4047 47.4621 33.6574C47.3932 33.9101 47.2855 34.0967 47.1391 34.2173C46.9955 34.335 46.8074 34.3939 46.5749 34.3939C46.4859 34.3939 46.3983 34.3838 46.3121 34.3637C46.226 34.3465 46.1485 34.3192 46.0796 34.2819V33.7995C46.2002 33.8483 46.3136 33.8727 46.4198 33.8727C46.6323 33.8727 46.7859 33.7722 46.8807 33.5712C46.9783 33.3702 47.0271 33.0443 47.0271 32.5935C47.0271 32.3983 47.0199 32.1757 47.0056 31.9259C46.9912 31.6733 46.9682 31.4005 46.9367 31.1076ZM51.0098 33.5971V33.1276H53.2667V33.5971H51.0098ZM52.5086 31.1076L54.0592 34.3379H53.4519L52.0434 31.323H52.2631L50.8547 34.3379H50.2474L51.7979 31.1076H52.5086ZM54.9316 31.3703H55.5001V34.3379H54.9316V31.3703ZM53.5964 31.1076H56.8353V31.6072H53.5964V31.1076ZM59.3913 33.778V33.3171H60.5197C60.6805 33.3171 60.8184 33.2898 60.9332 33.2353C61.0509 33.1779 61.1414 33.0989 61.2046 32.9984C61.2677 32.895 61.2993 32.7744 61.2993 32.6366C61.2993 32.4988 61.2677 32.3796 61.2046 32.2791C61.1414 32.1786 61.0509 32.1011 60.9332 32.0465C60.8184 31.9891 60.6805 31.9604 60.5197 31.9604H59.3956V31.4995H60.5456C60.8155 31.4995 61.0495 31.5484 61.2476 31.646C61.4458 31.7407 61.5994 31.8728 61.7085 32.0422C61.8205 32.2116 61.8765 32.4098 61.8765 32.6366C61.8765 32.8634 61.8205 33.063 61.7085 33.2353C61.5994 33.4047 61.4458 33.5382 61.2476 33.6358C61.0495 33.7306 60.8155 33.778 60.5456 33.778H59.3913ZM58.1422 33.778C57.8752 33.778 57.6412 33.7306 57.4402 33.6358C57.2421 33.5382 57.087 33.4047 56.975 33.2353C56.8659 33.063 56.8114 32.8634 56.8114 32.6366C56.8114 32.4098 56.8659 32.2116 56.975 32.0422C57.087 31.8728 57.2421 31.7407 57.4402 31.646C57.6412 31.5484 57.8752 31.4995 58.1422 31.4995H59.2879V31.9604H58.1638C58.0059 31.9604 57.868 31.9891 57.7503 32.0465C57.6354 32.1011 57.5464 32.1786 57.4833 32.2791C57.4201 32.3796 57.3885 32.4988 57.3885 32.6366C57.3885 32.7744 57.4201 32.895 57.4833 32.9984C57.5464 33.0989 57.6354 33.1779 57.7503 33.2353C57.868 33.2898 58.0059 33.3171 58.1638 33.3171H59.2922V33.778H58.1422ZM59.0596 34.4154V31.0301H59.6282V34.4154H59.0596ZM64.0527 34.3982C63.6852 34.3982 63.3622 34.3278 63.0837 34.1871C62.8051 34.0464 62.5883 33.8512 62.4333 33.6014C62.2782 33.3487 62.2007 33.0558 62.2007 32.7227C62.2007 32.3897 62.2782 32.0982 62.4333 31.8484C62.5883 31.5957 62.8051 31.399 63.0837 31.2583C63.3622 31.1176 63.6852 31.0473 64.0527 31.0473C64.4203 31.0473 64.7433 31.1176 65.0218 31.2583C65.3004 31.399 65.5171 31.5957 65.6722 31.8484C65.8272 32.0982 65.9048 32.3897 65.9048 32.7227C65.9048 33.0558 65.8272 33.3487 65.6722 33.6014C65.5171 33.8512 65.3004 34.0464 65.0218 34.1871C64.7433 34.3278 64.4203 34.3982 64.0527 34.3982ZM64.0527 33.89C64.314 33.89 64.5394 33.8426 64.7289 33.7478C64.9185 33.6531 65.0649 33.5181 65.1683 33.343C65.2745 33.1678 65.3276 32.9611 65.3276 32.7227C65.3276 32.4844 65.2745 32.2777 65.1683 32.1025C65.0649 31.9274 64.9185 31.7924 64.7289 31.6977C64.5394 31.6029 64.314 31.5555 64.0527 31.5555C63.7943 31.5555 63.5689 31.6029 63.3765 31.6977C63.187 31.7924 63.0391 31.9274 62.9329 32.1025C62.8295 32.2777 62.7779 32.4844 62.7779 32.7227C62.7779 32.9611 62.8295 33.1678 62.9329 33.343C63.0391 33.5181 63.187 33.6531 63.3765 33.7478C63.5689 33.8426 63.7943 33.89 64.0527 33.89ZM68.167 31.1076C68.4082 31.1076 68.6164 31.1507 68.7915 31.2368C68.9696 31.323 69.106 31.4435 69.2007 31.5986C69.2983 31.7508 69.3472 31.9274 69.3472 32.1284C69.3472 32.3294 69.2983 32.5074 69.2007 32.6624C69.106 32.8146 68.9696 32.9338 68.7915 33.0199C68.6164 33.1061 68.4082 33.1491 68.167 33.1491H66.7155V32.6581H68.1455C68.3407 32.6581 68.4929 32.6108 68.602 32.516C68.714 32.4212 68.77 32.292 68.77 32.1284C68.77 31.9647 68.714 31.8355 68.602 31.7407C68.4929 31.646 68.3407 31.5986 68.1455 31.5986H66.7715L67.0257 31.3143V34.3379H66.4571V31.1076H68.167ZM74.1594 31.1076V34.3379H73.6167V31.2799L73.7933 31.2885L72.2902 34.3379H71.6829L70.1797 31.2928L70.3563 31.2842V34.3379H69.8136V31.1076H70.6836L72.1308 34.0924H71.8465L73.2894 31.1076H74.1594ZM75.3127 33.5971V33.1276H77.5696V33.5971H75.3127ZM76.8115 31.1076L78.3621 34.3379H77.7548L76.3464 31.323H76.566L75.1576 34.3379H74.5503L76.1009 31.1076H76.8115ZM83.1343 33.0587C83.1056 33.3229 83.0123 33.5569 82.8543 33.7607C82.6993 33.9617 82.4954 34.1182 82.2427 34.2302C81.99 34.3422 81.7015 34.3982 81.377 34.3982C81.0152 34.3982 80.6979 34.3278 80.4251 34.1871C80.1524 34.0464 79.9399 33.8512 79.7877 33.6014C79.6355 33.3487 79.5594 33.0558 79.5594 32.7227C79.5594 32.3897 79.6355 32.0982 79.7877 31.8484C79.9399 31.5957 80.1524 31.399 80.4251 31.2583C80.6979 31.1176 81.0152 31.0473 81.377 31.0473C81.7015 31.0473 81.99 31.1033 82.2427 31.2153C82.4954 31.3273 82.6993 31.4837 82.8543 31.6847C83.0123 31.8857 83.1056 32.1198 83.1343 32.3868H82.5614C82.5299 32.2145 82.4609 32.0666 82.3547 31.9432C82.2513 31.8197 82.1164 31.7249 81.9498 31.6589C81.7833 31.59 81.5909 31.5555 81.3727 31.5555C81.12 31.5555 80.9004 31.6029 80.7137 31.6977C80.5299 31.7924 80.3878 31.9274 80.2873 32.1025C80.1868 32.2777 80.1366 32.4844 80.1366 32.7227C80.1366 32.9611 80.1868 33.1678 80.2873 33.343C80.3878 33.5181 80.5299 33.6531 80.7137 33.7478C80.9004 33.8426 81.12 33.89 81.3727 33.89C81.5909 33.89 81.7833 33.8569 81.9498 33.7909C82.1164 33.7249 82.2513 33.6301 82.3547 33.5066C82.4609 33.3803 82.5299 33.231 82.5614 33.0587H83.1343ZM83.9394 33.5971V33.1276H86.1963V33.5971H83.9394ZM85.4383 31.1076L86.9888 34.3379H86.3815L84.9731 31.323H85.1928L83.7843 34.3379H83.177L84.7276 31.1076H85.4383ZM91.7283 31.1076V34.3379H91.1857V31.2799L91.3622 31.2885L89.8591 34.3379H89.2518L87.7486 31.2928L87.9252 31.2842V34.3379H87.3825V31.1076H88.2525L89.6997 34.0924H89.4155L90.8583 31.1076H91.7283ZM94.1306 34.3982C93.7631 34.3982 93.4401 34.3278 93.1616 34.1871C92.883 34.0464 92.6662 33.8512 92.5112 33.6014C92.3561 33.3487 92.2786 33.0558 92.2786 32.7227C92.2786 32.3897 92.3561 32.0982 92.5112 31.8484C92.6662 31.5957 92.883 31.399 93.1616 31.2583C93.4401 31.1176 93.7631 31.0473 94.1306 31.0473C94.4982 31.0473 94.8212 31.1176 95.0997 31.2583C95.3783 31.399 95.595 31.5957 95.7501 31.8484C95.9051 32.0982 95.9827 32.3897 95.9827 32.7227C95.9827 33.0558 95.9051 33.3487 95.7501 33.6014C95.595 33.8512 95.3783 34.0464 95.0997 34.1871C94.8212 34.3278 94.4982 34.3982 94.1306 34.3982ZM94.1306 33.89C94.3919 33.89 94.6173 33.8426 94.8068 33.7478C94.9964 33.6531 95.1428 33.5181 95.2462 33.343C95.3524 33.1678 95.4055 32.9611 95.4055 32.7227C95.4055 32.4844 95.3524 32.2777 95.2462 32.1025C95.1428 31.9274 94.9964 31.7924 94.8068 31.6977C94.6173 31.6029 94.3919 31.5555 94.1306 31.5555C93.8722 31.5555 93.6468 31.6029 93.4544 31.6977C93.2649 31.7924 93.117 31.9274 93.0108 32.1025C92.9074 32.2777 92.8558 32.4844 92.8558 32.7227C92.8558 32.9611 92.9074 33.1678 93.0108 33.343C93.117 33.5181 93.2649 33.6531 93.4544 33.7478C93.6468 33.8426 93.8722 33.89 94.1306 33.89ZM98.2449 31.1076C98.4861 31.1076 98.6943 31.1507 98.8694 31.2368C99.0475 31.323 99.1839 31.4435 99.2786 31.5986C99.3762 31.7508 99.4251 31.9274 99.4251 32.1284C99.4251 32.3294 99.3762 32.5074 99.2786 32.6624C99.1839 32.8146 99.0475 32.9338 98.8694 33.0199C98.6943 33.1061 98.4861 33.1491 98.2449 33.1491H96.7934V32.6581H98.2234C98.4186 32.6581 98.5708 32.6108 98.6799 32.516C98.7919 32.4212 98.8479 32.292 98.8479 32.1284C98.8479 31.9647 98.7919 31.8355 98.6799 31.7407C98.5708 31.646 98.4186 31.5986 98.2234 31.5986H96.8494L97.1036 31.3143V34.3379H96.535V31.1076H98.2449ZM99.9184 33.5971V33.1276H102.175V33.5971H99.9184ZM101.417 31.1076L102.968 34.3379H102.361L100.952 31.323H101.172L99.7634 34.3379H99.1561L100.707 31.1076H101.417ZM104.61 34.3982C104.291 34.3982 104.012 34.3522 103.774 34.2604C103.536 34.1685 103.349 34.0378 103.214 33.8684C103.079 33.699 103.005 33.5009 102.99 33.274H103.559C103.587 33.4894 103.691 33.6559 103.869 33.7737C104.05 33.8885 104.297 33.9459 104.61 33.9459C104.911 33.9459 105.145 33.9 105.312 33.8081C105.481 33.7134 105.566 33.5727 105.566 33.386C105.566 33.2281 105.497 33.1104 105.359 33.0329C105.221 32.9553 105 32.9166 104.696 32.9166H104.05V32.516H104.683C104.864 32.516 105.013 32.4945 105.131 32.4514C105.248 32.4083 105.336 32.3495 105.393 32.2748C105.451 32.1973 105.48 32.1126 105.48 32.0207C105.48 31.9087 105.444 31.814 105.372 31.7364C105.303 31.6589 105.204 31.6 105.075 31.5598C104.946 31.5196 104.795 31.4995 104.623 31.4995C104.335 31.4995 104.106 31.5555 103.933 31.6675C103.761 31.7795 103.659 31.9346 103.628 32.1327H103.063C103.083 31.9288 103.157 31.745 103.283 31.5814C103.412 31.4177 103.592 31.2885 103.821 31.1937C104.054 31.0961 104.33 31.0473 104.648 31.0473C104.936 31.0473 105.184 31.0861 105.393 31.1636C105.606 31.2382 105.77 31.343 105.884 31.478C106.002 31.6101 106.061 31.7637 106.061 31.9389C106.061 32.0882 106.017 32.2246 105.928 32.348C105.839 32.4715 105.705 32.5691 105.527 32.6409C105.349 32.7127 105.125 32.7486 104.855 32.7486V32.6668C105.122 32.6553 105.352 32.6782 105.544 32.7357C105.737 32.7902 105.884 32.8749 105.988 32.9898C106.094 33.1046 106.147 33.2482 106.147 33.4205C106.147 33.6157 106.087 33.7866 105.966 33.933C105.849 34.0795 105.675 34.1943 105.445 34.2776C105.215 34.358 104.937 34.3982 104.61 34.3982ZM108.669 32.7357L108.725 32.6108C108.981 32.6136 109.189 32.6524 109.35 32.7271C109.513 32.8017 109.633 32.9022 109.707 33.0285C109.785 33.1549 109.824 33.297 109.824 33.4549C109.824 33.6272 109.782 33.7794 109.699 33.9115C109.618 34.0436 109.499 34.1484 109.341 34.2259C109.183 34.3006 108.987 34.3379 108.751 34.3379H106.598L106.852 32.6797L106.598 31.1076H108.674C108.972 31.1076 109.202 31.1779 109.363 31.3186C109.526 31.4565 109.608 31.6474 109.608 31.8915C109.608 32.0207 109.577 32.147 109.513 32.2705C109.453 32.3911 109.354 32.4945 109.216 32.5806C109.081 32.6639 108.899 32.7156 108.669 32.7357ZM107.17 34.1785L106.951 33.8813H108.687C108.865 33.8813 109.002 33.8411 109.1 33.7607C109.201 33.6775 109.251 33.5597 109.251 33.4076C109.251 33.2468 109.192 33.1219 109.074 33.0329C108.959 32.9438 108.788 32.8993 108.562 32.8993H107.162V32.46H108.506C108.658 32.46 108.784 32.4184 108.885 32.3351C108.985 32.249 109.035 32.1269 109.035 31.969C109.035 31.8513 108.994 31.7551 108.911 31.6804C108.827 31.6029 108.707 31.5641 108.549 31.5641H106.951L107.17 31.267L107.399 32.6797L107.17 34.1785ZM110.356 34.3379V31.1076H110.908V34.0709L110.714 34.0364L112.966 31.1076H113.707V34.3379H113.156V31.3488L113.35 31.3832L111.08 34.3379H110.356ZM115.474 31.3703H116.043V34.3379H115.474V31.3703ZM114.139 31.1076H117.378V31.6072H114.139V31.1076ZM117.81 34.3379V31.1076H118.361V34.0709L118.167 34.0364L120.42 31.1076H121.16V34.3379H120.609V31.3488L120.803 31.3832L118.533 34.3379H117.81ZM124.31 32.6237V33.0458H122.889L122.884 33.0372C122.658 33.0372 122.458 32.997 122.286 32.9166C122.116 32.8362 121.983 32.7242 121.885 32.5806C121.79 32.437 121.743 32.2691 121.743 32.0767C121.743 31.8843 121.79 31.7163 121.885 31.5728C121.983 31.4263 122.116 31.3129 122.286 31.2325C122.458 31.1492 122.658 31.1076 122.884 31.1076H124.702V34.3379H124.134V31.2799L124.388 31.534H122.949C122.751 31.534 122.594 31.5828 122.48 31.6804C122.368 31.7781 122.312 31.9101 122.312 32.0767C122.312 32.2432 122.368 32.3767 122.48 32.4772C122.594 32.5749 122.751 32.6237 122.949 32.6237H124.31ZM123.595 32.8261L122.35 34.3379H121.674L122.936 32.8261H123.595Z" fill="#FFFEFB"/>
<mask id="path-4-outside-1_705_4285" maskUnits="userSpaceOnUse" x="0" y="12.8867" width="36" height="31" fill="black">
<rect fill="white" y="12.8867" width="36" height="31"/>
<path fill-rule="evenodd" clip-rule="evenodd" d="M8.96295 14.589C9.17044 14.2266 9.55616 14.0031 9.97376 14.0033L14.1844 14.0055C14.5989 14.0057 14.9821 14.2264 15.1903 14.5848L17.3155 18.243C17.5243 18.6023 17.5256 19.0455 17.3192 19.4061L15.232 23.0516C15.0245 23.414 14.6388 23.6375 14.2212 23.6373L10.0105 23.6351C9.596 23.6349 9.21285 23.4143 9.00461 23.0558L6.8794 19.3976C6.67068 19.0384 6.66929 18.5951 6.87574 18.2345L8.96295 14.589ZM14.2511 13.889C14.6657 13.8892 15.0488 14.1098 15.2571 14.4683L17.4498 18.2427C17.6585 18.602 17.6599 19.0453 17.4535 19.4059L15.2994 23.1682C15.0919 23.5306 14.7061 23.7541 14.2885 23.7539L11.4315 23.7524C10.5337 23.752 9.97336 24.725 10.4243 25.5013L11.8622 27.9763C12.0709 28.3356 12.0723 28.7789 11.8659 29.1395L10.4501 31.6122C10.0059 32.388 10.5658 33.3542 11.4597 33.3547L14.3675 33.3561C14.782 33.3564 15.1652 33.577 15.3734 33.9355L16.8437 36.4663C17.2941 37.2416 18.415 37.238 18.8604 36.46L20.3035 33.9396C20.511 33.5772 20.8967 33.3537 21.3143 33.3539L24.1939 33.3554C25.0917 33.3559 25.6521 32.3828 25.2011 31.6066L23.7406 29.0926C23.5319 28.7333 23.5305 28.2901 23.7369 27.9295L25.8911 24.1671C26.0986 23.8047 26.4843 23.5812 26.9019 23.5814L31.2466 23.5837C31.6611 23.5839 32.0443 23.8045 32.2525 24.163L34.4453 27.9374C34.654 28.2967 34.6554 28.74 34.449 29.1006L32.2948 32.8629C32.0873 33.2254 31.7016 33.4488 31.284 33.4486L28.4044 33.4471C27.5066 33.4467 26.9463 34.4197 27.3972 35.196L28.8577 37.7099C29.0664 38.0692 29.0678 38.5125 28.8614 38.8731L26.7072 42.6354C26.4998 42.9978 26.114 43.2213 25.6964 43.2211L21.3517 43.2189C20.9372 43.2187 20.554 42.998 20.3458 42.6395L18.8755 40.1087C18.4251 39.3335 17.3042 39.337 16.8587 40.1151L15.4157 42.6354C15.2082 42.9978 14.8225 43.2213 14.4049 43.2211L10.0602 43.2189C9.64563 43.2187 9.26247 42.998 9.05423 42.6395L6.86147 38.8651C6.65275 38.5058 6.65136 38.0625 6.8578 37.702L8.27355 35.2292C8.71774 34.4534 8.15791 33.4872 7.26394 33.4868L4.35623 33.4853C3.94168 33.4851 3.55853 33.2644 3.35029 32.906L1.15753 29.1315C0.948808 28.7722 0.947411 28.3289 1.15386 27.9684L3.30799 24.206C3.51548 23.8436 3.9012 23.6201 4.31879 23.6203L7.17586 23.6218C8.07362 23.6222 8.63398 22.6492 8.183 21.873L6.74512 19.3979C6.5364 19.0386 6.53501 18.5953 6.74146 18.2348L8.89558 14.4724C9.10307 14.11 9.48879 13.8865 9.90639 13.8867L14.2511 13.889ZM9.60273 24.3184C9.39449 23.96 9.01134 23.7393 8.59679 23.7391L4.38616 23.7369C3.96857 23.7367 3.58285 23.9602 3.37536 24.3226L1.28814 27.9681C1.08169 28.3287 1.08309 28.772 1.29181 29.1312L3.41701 32.7894C3.62525 33.1479 4.00841 33.3685 4.42295 33.3687L8.63358 33.3709C9.05118 33.3711 9.4369 33.1476 9.64439 32.7852L11.7316 29.1397C11.9381 28.7791 11.9367 28.3359 11.7279 27.9766L9.60273 24.3184ZM15.3067 34.052C15.0984 33.6936 14.7153 33.4729 14.3007 33.4727L10.0901 33.4705C9.67251 33.4703 9.28679 33.6938 9.0793 34.0562L6.99209 37.7017C6.78564 38.0623 6.78703 38.5056 6.99575 38.8648L9.12095 42.523C9.3292 42.8815 9.71235 43.1021 10.1269 43.1023L14.3375 43.1045C14.7551 43.1047 15.1408 42.8812 15.3483 42.5188L17.4355 38.8733C17.642 38.5127 17.6406 38.0694 17.4319 37.7102L15.3067 34.052ZM26.5982 34.052C26.39 33.6936 26.0068 33.4729 25.5923 33.4727L21.3816 33.4705C20.964 33.4703 20.5783 33.6938 20.3708 34.0562L18.2836 37.7017C18.0772 38.0623 18.0786 38.5056 18.2873 38.8648L20.4125 42.523C20.6207 42.8815 21.0039 43.1021 21.4184 43.1023L25.6291 43.1045C26.0467 43.1047 26.4324 42.8812 26.6399 42.5188L28.7271 38.8733C28.9335 38.5127 28.9321 38.0694 28.7234 37.7102L26.5982 34.052ZM25.9584 24.2837C26.1659 23.9213 26.5516 23.6978 26.9692 23.698L31.1799 23.7002C31.5944 23.7004 31.9776 23.9211 32.1858 24.2795L34.311 27.9377C34.5197 28.297 34.5211 28.7403 34.3147 29.1008L32.2275 32.7463C32.02 33.1087 31.6343 33.3322 31.2167 33.332L27.006 33.3299C26.5915 33.3296 26.2083 33.109 26.0001 32.7505L23.8749 29.0924C23.6662 28.7331 23.6648 28.2898 23.8712 27.9292L25.9584 24.2837Z"/>
</mask>
<path fill-rule="evenodd" clip-rule="evenodd" d="M8.96295 14.589C9.17044 14.2266 9.55616 14.0031 9.97376 14.0033L14.1844 14.0055C14.5989 14.0057 14.9821 14.2264 15.1903 14.5848L17.3155 18.243C17.5243 18.6023 17.5256 19.0455 17.3192 19.4061L15.232 23.0516C15.0245 23.414 14.6388 23.6375 14.2212 23.6373L10.0105 23.6351C9.596 23.6349 9.21285 23.4143 9.00461 23.0558L6.8794 19.3976C6.67068 19.0384 6.66929 18.5951 6.87574 18.2345L8.96295 14.589ZM14.2511 13.889C14.6657 13.8892 15.0488 14.1098 15.2571 14.4683L17.4498 18.2427C17.6585 18.602 17.6599 19.0453 17.4535 19.4059L15.2994 23.1682C15.0919 23.5306 14.7061 23.7541 14.2885 23.7539L11.4315 23.7524C10.5337 23.752 9.97336 24.725 10.4243 25.5013L11.8622 27.9763C12.0709 28.3356 12.0723 28.7789 11.8659 29.1395L10.4501 31.6122C10.0059 32.388 10.5658 33.3542 11.4597 33.3547L14.3675 33.3561C14.782 33.3564 15.1652 33.577 15.3734 33.9355L16.8437 36.4663C17.2941 37.2416 18.415 37.238 18.8604 36.46L20.3035 33.9396C20.511 33.5772 20.8967 33.3537 21.3143 33.3539L24.1939 33.3554C25.0917 33.3559 25.6521 32.3828 25.2011 31.6066L23.7406 29.0926C23.5319 28.7333 23.5305 28.2901 23.7369 27.9295L25.8911 24.1671C26.0986 23.8047 26.4843 23.5812 26.9019 23.5814L31.2466 23.5837C31.6611 23.5839 32.0443 23.8045 32.2525 24.163L34.4453 27.9374C34.654 28.2967 34.6554 28.74 34.449 29.1006L32.2948 32.8629C32.0873 33.2254 31.7016 33.4488 31.284 33.4486L28.4044 33.4471C27.5066 33.4467 26.9463 34.4197 27.3972 35.196L28.8577 37.7099C29.0664 38.0692 29.0678 38.5125 28.8614 38.8731L26.7072 42.6354C26.4998 42.9978 26.114 43.2213 25.6964 43.2211L21.3517 43.2189C20.9372 43.2187 20.554 42.998 20.3458 42.6395L18.8755 40.1087C18.4251 39.3335 17.3042 39.337 16.8587 40.1151L15.4157 42.6354C15.2082 42.9978 14.8225 43.2213 14.4049 43.2211L10.0602 43.2189C9.64563 43.2187 9.26247 42.998 9.05423 42.6395L6.86147 38.8651C6.65275 38.5058 6.65136 38.0625 6.8578 37.702L8.27355 35.2292C8.71774 34.4534 8.15791 33.4872 7.26394 33.4868L4.35623 33.4853C3.94168 33.4851 3.55853 33.2644 3.35029 32.906L1.15753 29.1315C0.948808 28.7722 0.947411 28.3289 1.15386 27.9684L3.30799 24.206C3.51548 23.8436 3.9012 23.6201 4.31879 23.6203L7.17586 23.6218C8.07362 23.6222 8.63398 22.6492 8.183 21.873L6.74512 19.3979C6.5364 19.0386 6.53501 18.5953 6.74146 18.2348L8.89558 14.4724C9.10307 14.11 9.48879 13.8865 9.90639 13.8867L14.2511 13.889ZM9.60273 24.3184C9.39449 23.96 9.01134 23.7393 8.59679 23.7391L4.38616 23.7369C3.96857 23.7367 3.58285 23.9602 3.37536 24.3226L1.28814 27.9681C1.08169 28.3287 1.08309 28.772 1.29181 29.1312L3.41701 32.7894C3.62525 33.1479 4.00841 33.3685 4.42295 33.3687L8.63358 33.3709C9.05118 33.3711 9.4369 33.1476 9.64439 32.7852L11.7316 29.1397C11.9381 28.7791 11.9367 28.3359 11.7279 27.9766L9.60273 24.3184ZM15.3067 34.052C15.0984 33.6936 14.7153 33.4729 14.3007 33.4727L10.0901 33.4705C9.67251 33.4703 9.28679 33.6938 9.0793 34.0562L6.99209 37.7017C6.78564 38.0623 6.78703 38.5056 6.99575 38.8648L9.12095 42.523C9.3292 42.8815 9.71235 43.1021 10.1269 43.1023L14.3375 43.1045C14.7551 43.1047 15.1408 42.8812 15.3483 42.5188L17.4355 38.8733C17.642 38.5127 17.6406 38.0694 17.4319 37.7102L15.3067 34.052ZM26.5982 34.052C26.39 33.6936 26.0068 33.4729 25.5923 33.4727L21.3816 33.4705C20.964 33.4703 20.5783 33.6938 20.3708 34.0562L18.2836 37.7017C18.0772 38.0623 18.0786 38.5056 18.2873 38.8648L20.4125 42.523C20.6207 42.8815 21.0039 43.1021 21.4184 43.1023L25.6291 43.1045C26.0467 43.1047 26.4324 42.8812 26.6399 42.5188L28.7271 38.8733C28.9335 38.5127 28.9321 38.0694 28.7234 37.7102L26.5982 34.052ZM25.9584 24.2837C26.1659 23.9213 26.5516 23.6978 26.9692 23.698L31.1799 23.7002C31.5944 23.7004 31.9776 23.9211 32.1858 24.2795L34.311 27.9377C34.5197 28.297 34.5211 28.7403 34.3147 29.1008L32.2275 32.7463C32.02 33.1087 31.6343 33.3322 31.2167 33.332L27.006 33.3299C26.5915 33.3296 26.2083 33.109 26.0001 32.7505L23.8749 29.0924C23.6662 28.7331 23.6648 28.2898 23.8712 27.9292L25.9584 24.2837Z" fill="#FFFEFB"/>
<path d="M23.8749 29.0924L23.4387 29.3458L23.8749 29.0924ZM23.8712 27.9292L23.4335 27.6786L23.8712 27.9292ZM26.0001 32.7505L25.5639 33.0039L26.0001 32.7505ZM32.2275 32.7463L32.6652 32.997L32.2275 32.7463ZM31.2167 33.332L31.2169 32.8276L31.2167 33.332ZM34.311 27.9377L33.8748 28.1911L34.311 27.9377ZM34.3147 29.1008L33.8769 28.8502L34.3147 29.1008ZM25.9584 24.2837L25.5207 24.0331L25.9584 24.2837ZM31.1799 23.7002L31.1796 24.2046L31.1799 23.7002ZM32.1858 24.2795L31.7496 24.5329L32.1858 24.2795ZM28.7271 38.8733L29.1648 39.1239L28.7271 38.8733ZM28.7234 37.7102L28.2873 37.9636L28.7234 37.7102ZM25.6291 43.1045L25.6293 42.6001L25.6291 43.1045ZM26.6399 42.5188L27.0776 42.7694L26.6399 42.5188ZM20.4125 42.523L20.8487 42.2696L20.4125 42.523ZM18.2836 37.7017L17.8459 37.4511L18.2836 37.7017ZM18.2873 38.8648L17.8511 39.1182L18.2873 38.8648ZM25.5923 33.4727L25.592 33.9771L25.5923 33.4727ZM26.5982 34.052L26.162 34.3054L26.5982 34.052ZM21.3816 33.4705L21.3814 33.975L21.3816 33.4705ZM20.3708 34.0562L20.8086 34.3068L20.3708 34.0562ZM17.4355 38.8733L17.8733 39.1239L17.4355 38.8733ZM14.3375 43.1045L14.3373 43.6089L14.3375 43.1045ZM9.12095 42.523L9.55712 42.2696L9.12095 42.523ZM10.1269 43.1023L10.1272 42.5979L10.1269 43.1023ZM6.99575 38.8648L6.55958 39.1182L6.99575 38.8648ZM14.3007 33.4727L14.3005 33.9771L14.3007 33.4727ZM10.0901 33.4705L10.0904 32.9661L10.0901 33.4705ZM9.0793 34.0562L8.64154 33.8056L9.0793 34.0562ZM11.7316 29.1397L11.2938 28.8891L11.7316 29.1397ZM8.63358 33.3709L8.63332 33.8753L8.63358 33.3709ZM9.64439 32.7852L9.20663 32.5346L9.64439 32.7852ZM3.41701 32.7894L3.85318 32.536L3.41701 32.7894ZM4.42295 33.3687L4.4227 33.8732L4.42295 33.3687ZM1.29181 29.1312L0.85564 29.3846L1.29181 29.1312ZM9.60273 24.3184L9.16656 24.5718L9.60273 24.3184ZM4.38616 23.7369L4.3859 24.2414L4.38616 23.7369ZM3.37536 24.3226L2.9376 24.072L3.37536 24.3226ZM8.89558 14.4724L8.45782 14.2218L8.89558 14.4724ZM6.74512 19.3979L6.30895 19.6513L6.74512 19.3979ZM7.17586 23.6218L7.1756 24.1262L7.17586 23.6218ZM8.183 21.873L8.61917 21.6196L8.183 21.873ZM4.31879 23.6203L4.31853 24.1247L4.31879 23.6203ZM1.15753 29.1315L0.721359 29.3849L1.15753 29.1315ZM1.15386 27.9684L0.716103 27.7177L1.15386 27.9684ZM3.35029 32.906L2.91412 33.1593L3.35029 32.906ZM8.27355 35.2292L7.8358 34.9786L8.27355 35.2292ZM7.26394 33.4868L7.26368 33.9912L7.26394 33.4868ZM6.86147 38.8651L7.29764 38.6117L6.86147 38.8651ZM6.8578 37.702L7.29556 37.9526L6.8578 37.702ZM10.0602 43.2189L10.0599 43.7233L10.0602 43.2189ZM9.05423 42.6395L8.61806 42.8929L9.05423 42.6395ZM15.4157 42.6354L14.9779 42.3848L15.4157 42.6354ZM14.4049 43.2211L14.4046 43.7255L14.4049 43.2211ZM18.8755 40.1087L18.4393 40.3621L18.8755 40.1087ZM21.3517 43.2189L21.352 42.7144L21.3517 43.2189ZM20.3458 42.6395L20.7819 42.3862L20.3458 42.6395ZM26.7072 42.6354L26.2695 42.3848L26.7072 42.6354ZM28.8577 37.7099L29.2939 37.4565L28.8577 37.7099ZM28.8614 38.8731L28.4236 38.6224L28.8614 38.8731ZM28.4044 33.4471L28.4041 33.9516L28.4044 33.4471ZM27.3972 35.196L26.9611 35.4494L27.3972 35.196ZM32.2948 32.8629L31.8571 32.6123L32.2948 32.8629ZM31.284 33.4486L31.2843 32.9442L31.284 33.4486ZM34.4453 27.9374L34.0091 28.1908L34.4453 27.9374ZM34.449 29.1006L34.0112 28.8499L34.449 29.1006ZM31.2466 23.5837L31.2469 23.0792L31.2466 23.5837ZM32.2525 24.163L32.6887 23.9096L32.2525 24.163ZM25.8911 24.1671L25.4533 23.9165L25.8911 24.1671ZM26.9019 23.5814L26.9016 24.0859L26.9019 23.5814ZM23.7406 29.0926L24.1768 28.8392L23.7406 29.0926ZM23.7369 27.9295L24.1747 28.1801L23.7369 27.9295ZM24.1939 33.3554L24.1937 33.8598L24.1939 33.3554ZM20.3035 33.9396L19.8657 33.689L20.3035 33.9396ZM21.3143 33.3539L21.314 33.8583L21.3143 33.3539ZM16.8437 36.4663L16.4075 36.7197L16.8437 36.4663ZM18.8604 36.46L19.2982 36.7106L18.8604 36.46ZM11.8622 27.9763L12.2984 27.7229L11.8622 27.9763ZM11.8659 29.1395L11.4281 28.8888L11.8659 29.1395ZM15.2994 23.1682L15.7371 23.4189L15.2994 23.1682ZM15.2571 14.4683L14.8209 14.7217L15.2571 14.4683ZM17.4535 19.4059L17.0157 19.1552L17.4535 19.4059ZM6.8794 19.3976L6.44323 19.651L6.8794 19.3976ZM6.87574 18.2345L7.31349 18.4851L6.87574 18.2345ZM10.0105 23.6351L10.0108 23.1307L10.0105 23.6351ZM9.00461 23.0558L8.56844 23.3092L9.00461 23.0558ZM14.2212 23.6373L14.2209 24.1417L14.2212 23.6373ZM17.3155 18.243L17.7517 17.9896L17.3155 18.243ZM17.3192 19.4061L16.8814 19.1555L17.3192 19.4061ZM9.97376 14.0033L9.97402 13.4989L9.97376 14.0033ZM8.96295 14.589L9.40071 14.8396L8.96295 14.589ZM14.1844 14.0055L14.1846 13.5011L14.1844 14.0055ZM14.1846 13.5011L9.97402 13.4989L9.9735 14.5078L14.1841 14.5099L14.1846 13.5011ZM17.7517 17.9896L15.6265 14.3314L14.7542 14.8382L16.8794 18.4964L17.7517 17.9896ZM15.6697 23.3023L17.757 19.6568L16.8814 19.1555L14.7942 22.801L15.6697 23.3023ZM10.0103 24.1396L14.2209 24.1417L14.2214 23.1329L10.0108 23.1307L10.0103 24.1396ZM6.44323 19.651L8.56844 23.3092L9.44077 22.8024L7.31557 19.1443L6.44323 19.651ZM8.52519 14.3384L6.43798 17.9839L7.31349 18.4851L9.40071 14.8396L8.52519 14.3384ZM17.886 17.9893L15.6932 14.2149L14.8209 14.7217L17.0136 18.4961L17.886 17.9893ZM15.7371 23.4189L17.8912 19.6565L17.0157 19.1552L14.8616 22.9176L15.7371 23.4189ZM11.4312 24.2569L14.2883 24.2583L14.2888 23.2495L11.4317 23.248L11.4312 24.2569ZM12.2984 27.7229L10.8605 25.2479L9.98817 25.7547L11.426 28.2297L12.2984 27.7229ZM10.8879 31.8628L12.3036 29.3901L11.4281 28.8888L10.0124 31.3616L10.8879 31.8628ZM14.3677 32.8517L11.46 32.8502L11.4595 33.8591L14.3672 33.8606L14.3677 32.8517ZM17.2799 36.2129L15.8096 33.6821L14.9372 34.1889L16.4075 36.7197L17.2799 36.2129ZM19.8657 33.689L18.4227 36.2093L19.2982 36.7106L20.7412 34.1902L19.8657 33.689ZM24.1942 32.851L21.3145 32.8495L21.314 33.8583L24.1937 33.8598L24.1942 32.851ZM23.3044 29.346L24.7649 31.86L25.6372 31.3532L24.1768 28.8392L23.3044 29.346ZM25.4533 23.9165L23.2992 27.6788L24.1747 28.1801L26.3288 24.4178L25.4533 23.9165ZM31.2469 23.0792L26.9021 23.077L26.9016 24.0859L31.2463 24.0881L31.2469 23.0792ZM34.8815 27.6841L32.6887 23.9096L31.8164 24.4164L34.0091 28.1908L34.8815 27.6841ZM32.7326 33.1136L34.8867 29.3512L34.0112 28.8499L31.8571 32.6123L32.7326 33.1136ZM28.4041 33.9516L31.2838 33.9531L31.2843 32.9442L28.4046 32.9427L28.4041 33.9516ZM29.2939 37.4565L27.8334 34.9426L26.9611 35.4494L28.4215 37.9633L29.2939 37.4565ZM27.145 42.8861L29.2991 39.1237L28.4236 38.6224L26.2695 42.3848L27.145 42.8861ZM21.3515 43.7233L25.6962 43.7255L25.6967 42.7167L21.352 42.7144L21.3515 43.7233ZM18.4393 40.3621L19.9096 42.8929L20.7819 42.3862L19.3116 39.8553L18.4393 40.3621ZM15.8535 42.8861L17.2965 40.3657L16.421 39.8644L14.9779 42.3848L15.8535 42.8861ZM10.0599 43.7233L14.4046 43.7255L14.4052 42.7167L10.0604 42.7144L10.0599 43.7233ZM6.4253 39.1185L8.61806 42.8929L9.4904 42.3862L7.29764 38.6117L6.4253 39.1185ZM7.8358 34.9786L6.42005 37.4513L7.29556 37.9526L8.71131 35.4799L7.8358 34.9786ZM4.35597 33.9897L7.26368 33.9912L7.2642 32.9823L4.35649 32.9808L4.35597 33.9897ZM0.721359 29.3849L2.91412 33.1593L3.78645 32.6526L1.5937 28.8781L0.721359 29.3849ZM2.87023 23.9554L0.716103 27.7177L1.59162 28.219L3.74574 24.4566L2.87023 23.9554ZM7.17612 23.1174L4.31905 23.1159L4.31853 24.1247L7.1756 24.1262L7.17612 23.1174ZM6.30895 19.6513L7.74683 22.1264L8.61917 21.6196L7.18129 19.1445L6.30895 19.6513ZM8.45782 14.2218L6.3037 17.9841L7.17921 18.4854L9.33334 14.723L8.45782 14.2218ZM14.2514 13.3845L9.90665 13.3823L9.90613 14.3911L14.2509 14.3934L14.2514 13.3845ZM4.3859 24.2414L8.59653 24.2435L8.59705 23.2347L4.38642 23.2325L4.3859 24.2414ZM1.7259 28.2187L3.81311 24.5732L2.9376 24.072L0.850385 27.7175L1.7259 28.2187ZM3.85318 32.536L1.72798 28.8779L0.85564 29.3846L2.98084 33.0428L3.85318 32.536ZM8.63384 32.8665L4.42321 32.8643L4.4227 33.8732L8.63332 33.8753L8.63384 32.8665ZM11.2938 28.8891L9.20663 32.5346L10.0821 33.0359L12.1694 29.3904L11.2938 28.8891ZM9.16656 24.5718L11.2918 28.23L12.1641 27.7232L10.0389 24.065L9.16656 24.5718ZM10.0898 33.975L14.3005 33.9771L14.301 32.9683L10.0904 32.9661L10.0898 33.975ZM7.42984 37.9523L9.51706 34.3068L8.64154 33.8056L6.55433 37.4511L7.42984 37.9523ZM9.55712 42.2696L7.43192 38.6114L6.55958 39.1182L8.68479 42.7764L9.55712 42.2696ZM14.3378 42.6001L10.1272 42.5979L10.1266 43.6068L14.3373 43.6089L14.3378 42.6001ZM16.9978 38.6227L14.9106 42.2682L15.7861 42.7694L17.8733 39.1239L16.9978 38.6227ZM14.8705 34.3054L16.9957 37.9636L17.868 37.4568L15.7428 33.7986L14.8705 34.3054ZM21.3814 33.975L25.592 33.9771L25.5925 32.9683L21.3819 32.9661L21.3814 33.975ZM18.7214 37.9523L20.8086 34.3068L19.9331 33.8056L17.8459 37.4511L18.7214 37.9523ZM20.8487 42.2696L18.7235 38.6114L17.8511 39.1182L19.9763 42.7764L20.8487 42.2696ZM25.6293 42.6001L21.4187 42.5979L21.4182 43.6068L25.6288 43.6089L25.6293 42.6001ZM28.2893 38.6227L26.2021 42.2682L27.0776 42.7694L29.1648 39.1239L28.2893 38.6227ZM26.162 34.3054L28.2873 37.9636L29.1596 37.4568L27.0344 33.7986L26.162 34.3054ZM31.1801 23.1958L26.9695 23.1936L26.969 24.2025L31.1796 24.2046L31.1801 23.1958ZM34.7472 27.6843L32.622 24.0261L31.7496 24.5329L33.8748 28.1911L34.7472 27.6843ZM32.6652 32.997L34.7524 29.3515L33.8769 28.8502L31.7897 32.4957L32.6652 32.997ZM27.0058 33.8343L31.2164 33.8364L31.2169 32.8276L27.0063 32.8254L27.0058 33.8343ZM23.4387 29.3458L25.5639 33.0039L26.4363 32.4971L24.3111 28.839L23.4387 29.3458ZM25.5207 24.0331L23.4335 27.6786L24.309 28.1799L26.3962 24.5344L25.5207 24.0331ZM24.3111 28.839C24.1928 28.6354 24.192 28.3842 24.309 28.1799L23.4335 27.6786C23.1376 28.1954 23.1396 28.8308 23.4387 29.3458L24.3111 28.839ZM27.0063 32.8254C26.7714 32.8253 26.5543 32.7003 26.4363 32.4971L25.5639 33.0039C25.8624 33.5177 26.4116 33.834 27.0058 33.8343L27.0063 32.8254ZM31.7897 32.4957C31.6721 32.7011 31.4536 32.8277 31.2169 32.8276L31.2164 33.8364C31.815 33.8368 32.3678 33.5164 32.6652 32.997L31.7897 32.4957ZM33.8748 28.1911C33.9931 28.3947 33.9939 28.6459 33.8769 28.8502L34.7524 29.3515C35.0484 28.8346 35.0463 28.1993 34.7472 27.6843L33.8748 28.1911ZM26.9695 23.1936C26.3709 23.1933 25.8181 23.5136 25.5207 24.0331L26.3962 24.5344C26.5138 24.329 26.7323 24.2024 26.969 24.2025L26.9695 23.1936ZM31.1796 24.2046C31.4145 24.2048 31.6316 24.3298 31.7496 24.5329L32.622 24.0261C32.3235 23.5124 31.7743 23.1961 31.1801 23.1958L31.1796 24.2046ZM29.1648 39.1239C29.4608 38.6071 29.4588 37.9717 29.1596 37.4568L28.2873 37.9636C28.4055 38.1672 28.4063 38.4183 28.2893 38.6227L29.1648 39.1239ZM25.6288 43.6089C26.2274 43.6092 26.7802 43.2889 27.0776 42.7694L26.2021 42.2682C26.0845 42.4735 25.866 42.6002 25.6293 42.6001L25.6288 43.6089ZM19.9763 42.7764C20.2748 43.2902 20.824 43.6065 21.4182 43.6068L21.4187 42.5979C21.1838 42.5978 20.9667 42.4727 20.8487 42.2696L19.9763 42.7764ZM17.8459 37.4511C17.55 37.9679 17.552 38.6033 17.8511 39.1182L18.7235 38.6114C18.6052 38.4079 18.6044 38.1567 18.7214 37.9523L17.8459 37.4511ZM25.592 33.9771C25.8269 33.9772 26.044 34.1023 26.162 34.3054L27.0344 33.7986C26.7359 33.2848 26.1867 32.9686 25.5925 32.9683L25.592 33.9771ZM21.3819 32.9661C20.7833 32.9658 20.2305 33.2861 19.9331 33.8056L20.8086 34.3068C20.9262 34.1015 21.1447 33.9748 21.3814 33.975L21.3819 32.9661ZM17.8733 39.1239C18.1692 38.6071 18.1672 37.9717 17.868 37.4568L16.9957 37.9636C17.114 38.1672 17.1148 38.4183 16.9978 38.6227L17.8733 39.1239ZM14.3373 43.6089C14.9358 43.6092 15.4887 43.2889 15.7861 42.7694L14.9106 42.2682C14.793 42.4735 14.5744 42.6002 14.3378 42.6001L14.3373 43.6089ZM8.68479 42.7764C8.98326 43.2902 9.53245 43.6065 10.1266 43.6068L10.1272 42.5979C9.89225 42.5978 9.67513 42.4727 9.55712 42.2696L8.68479 42.7764ZM6.55433 37.4511C6.25842 37.9679 6.26042 38.6033 6.55958 39.1182L7.43192 38.6114C7.31365 38.4079 7.31286 38.1567 7.42984 37.9523L6.55433 37.4511ZM14.3005 33.9771C14.5354 33.9772 14.7525 34.1023 14.8705 34.3054L15.7428 33.7986C15.4444 33.2848 14.8952 32.9686 14.301 32.9683L14.3005 33.9771ZM10.0904 32.9661C9.49181 32.9658 8.93895 33.2861 8.64154 33.8056L9.51706 34.3068C9.63464 34.1015 9.85321 33.9748 10.0898 33.975L10.0904 32.9661ZM12.1694 29.3904C12.4653 28.8735 12.4633 28.2381 12.1641 27.7232L11.2918 28.23C11.41 28.4336 11.4108 28.6847 11.2938 28.8891L12.1694 29.3904ZM8.63332 33.8753C9.23188 33.8756 9.78474 33.5553 10.0821 33.0359L9.20663 32.5346C9.08905 32.7399 8.87048 32.8666 8.63384 32.8665L8.63332 33.8753ZM2.98084 33.0428C3.27932 33.5566 3.82851 33.8729 4.4227 33.8732L4.42321 32.8643C4.1883 32.8642 3.97118 32.7391 3.85318 32.536L2.98084 33.0428ZM0.850385 27.7175C0.554474 28.2343 0.556476 28.8697 0.85564 29.3846L1.72798 28.8779C1.6097 28.6743 1.60891 28.4231 1.7259 28.2187L0.850385 27.7175ZM8.59653 24.2435C8.83144 24.2436 9.04856 24.3687 9.16656 24.5718L10.0389 24.065C9.74042 23.5512 9.19123 23.235 8.59705 23.2347L8.59653 24.2435ZM4.38642 23.2325C3.78787 23.2322 3.235 23.5525 2.9376 24.072L3.81311 24.5732C3.93069 24.3679 4.14927 24.2412 4.3859 24.2414L4.38642 23.2325ZM9.33334 14.723C9.45092 14.5177 9.66949 14.391 9.90613 14.3911L9.90665 13.3823C9.30809 13.382 8.75523 13.7023 8.45782 14.2218L9.33334 14.723ZM7.18129 19.1445C7.06302 18.9409 7.06222 18.6897 7.17921 18.4854L6.3037 17.9841C6.00779 18.501 6.00979 19.1363 6.30895 19.6513L7.18129 19.1445ZM7.1756 24.1262C8.4624 24.1269 9.26557 22.7322 8.61917 21.6196L7.74683 22.1264C8.00239 22.5662 7.68485 23.1176 7.17612 23.1174L7.1756 24.1262ZM3.74574 24.4566C3.86332 24.2513 4.0819 24.1246 4.31853 24.1247L4.31905 23.1159C3.7205 23.1156 3.16763 23.4359 2.87023 23.9554L3.74574 24.4566ZM1.5937 28.8781C1.47542 28.6745 1.47463 28.4233 1.59162 28.219L0.716103 27.7177C0.420192 28.2346 0.422195 28.8699 0.721359 29.3849L1.5937 28.8781ZM4.35649 32.9808C4.12158 32.9807 3.90446 32.8557 3.78645 32.6526L2.91412 33.1593C3.21259 33.6731 3.76178 33.9894 4.35597 33.9897L4.35649 32.9808ZM8.71131 35.4799C9.34798 34.3679 8.54555 32.983 7.2642 32.9823L7.26368 33.9912C7.77027 33.9915 8.0875 34.539 7.8358 34.9786L8.71131 35.4799ZM7.29764 38.6117C7.17937 38.4081 7.17857 38.1569 7.29556 37.9526L6.42005 37.4513C6.12414 37.9682 6.12614 38.6035 6.4253 39.1185L7.29764 38.6117ZM10.0604 42.7144C9.82552 42.7143 9.6084 42.5893 9.4904 42.3862L8.61806 42.8929C8.91654 43.4067 9.46573 43.723 10.0599 43.7233L10.0604 42.7144ZM14.9779 42.3848C14.8604 42.5901 14.6418 42.7168 14.4052 42.7167L14.4046 43.7255C15.0032 43.7258 15.5561 43.4055 15.8535 42.8861L14.9779 42.3848ZM19.3116 39.8553C18.6661 38.7441 17.0595 38.7492 16.421 39.8644L17.2965 40.3657C17.5489 39.9248 18.1841 39.9228 18.4393 40.3621L19.3116 39.8553ZM21.352 42.7144C21.1171 42.7143 20.8999 42.5893 20.7819 42.3862L19.9096 42.8929C20.2081 43.4067 20.7573 43.723 21.3515 43.7233L21.352 42.7144ZM26.2695 42.3848C26.1519 42.5901 25.9333 42.7168 25.6967 42.7167L25.6962 43.7255C26.2947 43.7258 26.8476 43.4055 27.145 42.8861L26.2695 42.3848ZM28.4215 37.9633C28.5398 38.1669 28.5406 38.4181 28.4236 38.6224L29.2991 39.1237C29.595 38.6069 29.593 37.9715 29.2939 37.4565L28.4215 37.9633ZM28.4046 32.9427C27.1178 32.9421 26.3147 34.3367 26.9611 35.4494L27.8334 34.9426C27.5778 34.5027 27.8954 33.9513 28.4041 33.9516L28.4046 32.9427ZM31.8571 32.6123C31.7395 32.8177 31.5209 32.9443 31.2843 32.9442L31.2838 33.9531C31.8823 33.9534 32.4352 33.633 32.7326 33.1136L31.8571 32.6123ZM34.0091 28.1908C34.1274 28.3944 34.1282 28.6456 34.0112 28.8499L34.8867 29.3512C35.1826 28.8344 35.1806 28.199 34.8815 27.6841L34.0091 28.1908ZM31.2463 24.0881C31.4812 24.0882 31.6984 24.2133 31.8164 24.4164L32.6887 23.9096C32.3902 23.3958 31.841 23.0795 31.2469 23.0792L31.2463 24.0881ZM26.3288 24.4178C26.4464 24.2124 26.665 24.0857 26.9016 24.0859L26.9021 23.077C26.3036 23.0767 25.7507 23.397 25.4533 23.9165L26.3288 24.4178ZM24.1768 28.8392C24.0585 28.6356 24.0577 28.3844 24.1747 28.1801L23.2992 27.6788C23.0033 28.1957 23.0053 28.8311 23.3044 29.346L24.1768 28.8392ZM24.1937 33.8598C25.4805 33.8605 26.2836 32.4658 25.6372 31.3532L24.7649 31.86C25.0205 32.2999 24.7029 32.8512 24.1942 32.851L24.1937 33.8598ZM20.7412 34.1902C20.8588 33.9849 21.0774 33.8582 21.314 33.8583L21.3145 32.8495C20.716 32.8492 20.1631 33.1695 19.8657 33.689L20.7412 34.1902ZM16.4075 36.7197C17.0531 37.8309 18.6597 37.8258 19.2982 36.7106L18.4227 36.2093C18.1702 36.6502 17.5351 36.6522 17.2799 36.2129L16.4075 36.7197ZM14.3672 33.8606C14.6021 33.8607 14.8192 33.9857 14.9372 34.1889L15.8096 33.6821C15.5111 33.1683 14.9619 32.852 14.3677 32.8517L14.3672 33.8606ZM10.0124 31.3616C9.37571 32.4735 10.1781 33.8584 11.4595 33.8591L11.46 32.8502C10.9534 32.85 10.6362 32.3025 10.8879 31.8628L10.0124 31.3616ZM11.426 28.2297C11.5443 28.4333 11.5451 28.6845 11.4281 28.8888L12.3036 29.3901C12.5996 28.8733 12.5975 28.2379 12.2984 27.7229L11.426 28.2297ZM11.4317 23.248C10.1449 23.2473 9.34177 24.642 9.98817 25.7547L10.8605 25.2479C10.605 24.808 10.9225 24.2566 11.4312 24.2569L11.4317 23.248ZM14.8616 22.9176C14.744 23.123 14.5254 23.2496 14.2888 23.2495L14.2883 24.2583C14.8868 24.2586 15.4397 23.9383 15.7371 23.4189L14.8616 22.9176ZM15.6932 14.2149C15.3947 13.7011 14.8456 13.3848 14.2514 13.3845L14.2509 14.3934C14.4858 14.3935 14.7029 14.5185 14.8209 14.7217L15.6932 14.2149ZM17.0136 18.4961C17.1319 18.6997 17.1327 18.9509 17.0157 19.1552L17.8912 19.6565C18.1871 19.1397 18.1851 18.5043 17.886 17.9893L17.0136 18.4961ZM7.31557 19.1443C7.1973 18.9407 7.19651 18.6895 7.31349 18.4851L6.43798 17.9839C6.14207 18.5007 6.14407 19.1361 6.44323 19.651L7.31557 19.1443ZM10.0108 23.1307C9.7759 23.1306 9.55878 23.0055 9.44077 22.8024L8.56844 23.3092C8.86692 23.823 9.4161 24.1393 10.0103 24.1396L10.0108 23.1307ZM14.7942 22.801C14.6766 23.0063 14.4581 23.133 14.2214 23.1329L14.2209 24.1417C14.8195 24.142 15.3723 23.8217 15.6697 23.3023L14.7942 22.801ZM16.8794 18.4964C16.9976 18.7 16.9984 18.9512 16.8814 19.1555L17.757 19.6568C18.0529 19.1399 18.0509 18.5045 17.7517 17.9896L16.8794 18.4964ZM9.97402 13.4989C9.37546 13.4986 8.8226 13.8189 8.52519 14.3384L9.40071 14.8396C9.51829 14.6343 9.73686 14.5076 9.9735 14.5078L9.97402 13.4989ZM14.1841 14.5099C14.419 14.51 14.6362 14.6351 14.7542 14.8382L15.6265 14.3314C15.328 13.8176 14.7788 13.5014 14.1846 13.5011L14.1841 14.5099Z" fill="#FFFEFB" mask="url(#path-4-outside-1_705_4285)"/>
<path d="M28.2913 10.1029L31.149 15.0348L28.3086 19.9588L22.6104 19.9509L19.7527 15.0191L22.5931 10.0951L28.2913 10.1029Z" fill="url(#paint0_radial_705_4285)"/>
<path fill-rule="evenodd" clip-rule="evenodd" d="M29.2542 10.7824C28.8212 10.0321 28.0206 9.56989 27.1539 9.56978L23.7089 9.56934C22.8423 9.56922 22.0413 10.0312 21.6077 10.7814L19.884 13.7633C19.4504 14.5134 19.4501 15.4377 19.8831 16.1879L21.6045 19.1703C22.0375 19.9206 22.8381 20.3828 23.7047 20.3829L27.1498 20.3833C28.0164 20.3835 28.8174 19.9214 29.2509 19.1713L30.9746 16.1894C31.4082 15.4392 31.4086 14.515 30.9756 13.7647L29.2542 10.7824ZM28.1304 11.2842C28.1923 11.1703 28.3489 11.1548 28.4137 11.2672L30.1351 14.2496C30.3949 14.6997 30.3947 15.2543 30.1345 15.7043L28.4109 18.6863C28.3519 18.7883 28.2092 18.7752 28.1531 18.6716L26.6192 15.8395C26.4434 15.5148 26.3555 15.3525 26.3211 15.1811C26.2906 15.0293 26.2907 14.873 26.3214 14.7213C26.3561 14.5499 26.4442 14.3877 26.6204 14.0633L28.1304 11.2842ZM27.1536 10.5396C27.2845 10.5396 27.3534 10.6819 27.2908 10.797L25.8264 13.4923C25.634 13.8464 25.5379 14.0234 25.3997 14.1524C25.2775 14.2665 25.1322 14.353 24.9735 14.4059C24.7943 14.4657 24.5928 14.4657 24.1898 14.4657H20.8621C20.7456 14.4657 20.6659 14.3492 20.7241 14.2484L22.4478 11.2664C22.708 10.8163 23.1885 10.5391 23.7085 10.5392L27.1536 10.5396ZM20.8972 15.4355C20.7526 15.4355 20.6513 15.5779 20.7236 15.7031L22.445 18.6855C22.7048 19.1357 23.1851 19.413 23.7051 19.4131L27.1501 19.4135C27.2933 19.4135 27.3673 19.2577 27.2992 19.1318L25.8256 16.411C25.6334 16.0562 25.5373 15.8788 25.3991 15.7495C25.2769 15.6351 25.1314 15.5485 24.9726 15.4954C24.7931 15.4355 24.5914 15.4355 24.1878 15.4355L20.8972 15.4355Z" fill="#FFFEFB"/>
<defs>
<radialGradient id="paint0_radial_705_4285" cx="0" cy="0" r="1" gradientUnits="userSpaceOnUse" gradientTransform="translate(25.4509 15.0269) rotate(120.257) scale(5.07091 5.08823)">
<stop stop-color="#FAF3E7"/>
<stop offset="0.296875" stop-color="#EBAA20"/>
<stop offset="0.619792" stop-color="#EB5222"/>
<stop offset="1" stop-color="#171717"/>
</radialGradient>
</defs>
</svg>
