<svg width="64" height="64" viewBox="0 0 64 64" fill="none" xmlns="http://www.w3.org/2000/svg">
<path fill-rule="evenodd" clip-rule="evenodd" d="M19.1055 16.5264V47.5012H27.3144L29.9063 37.191H31.7909L36.4955 47.5012H46.0093L39.2798 35.9114C39.3105 35.8956 39.3412 35.8796 39.3718 35.8635C41.0533 34.949 42.3661 33.6805 43.3101 32.058C44.2541 30.4355 44.7261 28.5475 44.7261 26.3941C44.7261 24.4766 44.2541 22.7803 43.3101 21.3053C42.3661 19.8303 41.0533 18.6651 39.3718 17.8096C37.6904 16.9541 35.7729 16.5264 33.6194 16.5264H19.1055ZM30.8571 20.197L31.0127 18.331L31.1682 20.197C31.4626 23.7294 34.1558 26.5912 37.6638 27.0993C34.1558 27.6075 31.4626 30.4693 31.1682 34.0017L31.0127 35.8677L30.8571 34.0017C30.5628 30.4693 27.8695 27.6075 24.3615 27.0993C27.8695 26.5912 30.5628 23.7294 30.8571 20.197Z" fill="black"/>
</svg>
