<svg width="61" height="61" viewBox="0 0 61 61" fill="none" xmlns="http://www.w3.org/2000/svg">
<path d="M50.8999 17.7349C43.6999 6.63489 28.9999 3.33489 17.5999 10.2349C6.49995 17.1349 2.89995 32.1349 10.0999 43.2349L10.6999 44.1349L8.29995 53.1349L17.2999 50.7349L18.1999 51.3349C22.0999 53.4349 26.2999 54.6349 30.5 54.6349C35 54.6349 39.5 53.4349 43.3999 51.0349C54.5 43.8349 57.7999 29.1349 50.8999 17.7349ZM44.5999 40.8349C43.3999 42.6349 41.9 43.8349 39.7999 44.1349C38.5999 44.1349 37.0999 44.7349 31.0999 42.3349C25.9999 39.9349 21.7999 36.0349 18.7999 31.5349C16.9999 29.4349 16.0999 26.7349 15.7999 24.0349C15.7999 21.6349 16.6999 19.5349 18.1999 18.0349C18.7999 17.4349 19.3999 17.1349 19.9999 17.1349H21.4999C22.0999 17.1349 22.6999 17.1349 23 18.3349C23.5999 19.8349 25.0999 23.4349 25.0999 23.7349C25.3999 24.0349 25.3999 24.6349 25.0999 24.9349C25.3999 25.5349 25.1 26.1349 24.7999 26.4349C24.5 26.7349 24.1999 27.3349 23.9 27.6349C23.2999 27.9349 22.9999 28.5349 23.2999 29.1349C24.4999 30.9349 26 32.7349 27.5 34.2349C29.2999 35.7349 31.0999 36.9349 33.1999 37.8349C33.7999 38.1349 34.3999 38.1349 34.6999 37.5349C34.9999 36.9349 36.4999 35.4349 37.0999 34.8349C37.6999 34.2349 37.9999 34.2349 38.5999 34.5349L43.3999 36.9349C44 37.2349 44.5999 37.5349 44.8999 37.8349C45.2 38.7349 45.1999 39.9349 44.5999 40.8349Z" fill="black"/>
</svg>
